<?xml version="1.0" encoding="utf-8"?>
<!-- Generator: Adobe Illustrator 16.0.4, SVG Export Plug-In . SVG Version: 6.00 Build 0)  -->
<!DOCTYPE svg PUBLIC "-//W3C//DTD SVG 1.1//EN" "http://www.w3.org/Graphics/SVG/1.1/DTD/svg11.dtd">
<svg version="1.1" id="Layer_1" xmlns="http://www.w3.org/2000/svg" xmlns:xlink="http://www.w3.org/1999/xlink" x="0px" y="0px"
	 width="50px" height="50px" viewBox="0 0 50 50" enable-background="new 0 0 50 50" xml:space="preserve">
<path d="M38.365,12.679c-0.203-0.285-0.451-0.525-0.728-0.738c-0.61-0.475-1.297-0.814-2.01-1.102
	c-1.515-0.611-3.096-0.971-4.701-1.229c-1.958-0.313-3.932-0.438-6.006-0.45c-1.854,0.016-3.797,0.133-5.725,0.434
	c-1.369,0.215-2.721,0.506-4.035,0.951c-0.869,0.297-1.71,0.649-2.477,1.164c-0.365,0.244-0.701,0.521-0.976,0.869
	c-0.344,0.438-0.491,0.926-0.402,1.479c0.173,1.092,0.333,2.185,0.513,3.272c0.264,1.611,0.537,3.222,0.811,4.828
	c0.306,1.787,0.62,3.574,0.918,5.361c0.07,0.416,0.246,0.768,0.526,1.07c0.179,0.193,0.37,0.377,0.574,0.543
	c0.73,0.59,1.562,1.01,2.432,1.354c2.082,0.83,4.259,1.205,6.485,1.328c1.616,0.09,3.23,0.033,4.838-0.187
	c1.369-0.184,2.709-0.479,4.01-0.948c0.965-0.349,1.891-0.775,2.725-1.382c0.355-0.26,0.683-0.547,0.945-0.901
	c0.181-0.239,0.305-0.504,0.355-0.805c0.397-2.341,0.808-4.679,1.196-7.021c0.362-2.172,0.701-4.346,1.058-6.518
	C38.775,13.548,38.66,13.095,38.365,12.679z M24.978,28.8c-2.4-0.008-4.341-1.971-4.333-4.383c0.006-2.41,1.958-4.347,4.369-4.338
	c2.425,0.008,4.359,1.961,4.35,4.387C29.353,26.864,27.385,28.808,24.978,28.8z M33.68,13.554c-0.124,0.139-0.274,0.262-0.436,0.357
	c-0.45,0.268-0.951,0.409-1.454,0.541c-0.952,0.243-1.923,0.383-2.896,0.485c-1.281,0.136-2.566,0.183-3.791,0.188
	c-1.49-0.008-2.914-0.068-4.332-0.238c-1.064-0.129-2.124-0.291-3.146-0.633c-0.303-0.104-0.598-0.236-0.883-0.381
	c-0.146-0.072-0.275-0.185-0.386-0.304c-0.197-0.215-0.196-0.45,0.005-0.663c0.117-0.125,0.26-0.232,0.407-0.316
	c0.424-0.246,0.89-0.389,1.359-0.512c0.983-0.256,1.985-0.402,2.994-0.509c1.652-0.17,3.308-0.221,4.967-0.172
	c1.525,0.045,3.045,0.158,4.55,0.431c0.706,0.127,1.407,0.274,2.075,0.545c0.236,0.096,0.463,0.217,0.683,0.346
	c0.109,0.064,0.208,0.164,0.288,0.266C33.826,13.167,33.832,13.382,33.68,13.554z M35.344,31.921
	c0.009,0.088-0.004,0.182-0.021,0.27c-0.304,1.604-0.614,3.205-0.911,4.811c-0.1,0.539-0.343,0.99-0.723,1.377
	c-0.422,0.431-0.918,0.752-1.449,1.023c-0.978,0.498-2.017,0.811-3.084,1.031c-1.377,0.287-2.771,0.414-3.564,0.408
	c-2.41-0.006-4.184-0.199-5.916-0.699c-0.802-0.23-1.577-0.529-2.3-0.953c-0.379-0.221-0.732-0.477-1.042-0.789
	c-0.388-0.391-0.64-0.846-0.741-1.395c-0.296-1.605-0.609-3.207-0.915-4.81c-0.016-0.081-0.021-0.163-0.019-0.245
	c0.019-0.394,0.37-0.597,0.724-0.423c0.036,0.021,0.072,0.041,0.105,0.064c1.174,0.852,2.484,1.422,3.858,1.856
	c1.262,0.4,2.556,0.641,3.873,0.758c1.52,0.138,3.031,0.103,4.54-0.11c2-0.281,3.91-0.851,5.687-1.828
	c0.353-0.194,0.685-0.429,1.025-0.646c0.056-0.035,0.108-0.076,0.167-0.104C34.977,31.366,35.311,31.554,35.344,31.921z
	 M27.185,24.444c-0.005,1.203-0.992,2.184-2.197,2.178c-1.205-0.004-2.178-0.987-2.172-2.196c0.004-1.212,0.98-2.181,2.192-2.175
	C26.217,22.257,27.188,23.233,27.185,24.444z"/>
</svg>
