<?xml version="1.0" encoding="UTF-8" standalone="no"?>
<svg width="31px" height="31px" viewBox="0 0 31 31" version="1.1" xmlns="http://www.w3.org/2000/svg" xmlns:xlink="http://www.w3.org/1999/xlink" xmlns:sketch="http://www.bohemiancoding.com/sketch/ns">
    <!-- Generator: Sketch 3.3.3 (12081) - http://www.bohemiancoding.com/sketch -->
    <title>Fill 5</title>
    <desc>Created with Sketch.</desc>
    <defs></defs>
    <g id="3.0-screens" stroke="none" stroke-width="1" fill="none" fill-rule="evenodd" sketch:type="MSPage">
        <g id="Artboard-29-Copy-73" sketch:type="MSArtboardGroup" transform="translate(-297.000000, -408.000000)" fill="#2BABE2">
            <g id="Group-Copy" sketch:type="MSLayerGroup" transform="translate(259.000000, 390.000000)">
                <path d="M54.4890833,34.2406026 L54.4890833,39.5991615 C56.4761875,39.3227931 57.4712292,38.4787491 57.4712292,37.0655357 C57.4712292,36.4007577 57.2656667,35.8704291 56.8575208,35.4566235 C56.449375,35.0517812 55.6613854,34.6454449 54.4890833,34.2406026 L54.4890833,34.2406026 Z M49.9562813,28.507079 C49.9562813,29.2077102 50.1618438,29.7694103 50.5729688,30.1891915 C50.9870729,30.6119604 51.7020729,31.0123211 52.7164792,31.3872858 L52.7164792,26.0556168 C51.8093229,26.2050051 51.1256042,26.4888429 50.6563854,26.9175874 C50.1886563,27.3433441 49.9562813,27.8751665 49.9562813,28.507079 L49.9562813,28.507079 Z M59.8054063,36.8832819 C59.8054063,36.0795728 59.6370833,35.3879049 59.2989479,34.8247109 C58.9578333,34.261517 58.4335,33.76256 57.7170104,33.3233584 C57.0035,32.8901322 55.9280208,32.4404734 54.4890833,31.9788635 L54.4890833,25.9988492 C55.8997188,26.103421 57.2865208,26.4246059 58.6509792,26.9653916 L59.3659792,25.1592869 C57.8004271,24.5258804 56.1738021,24.1882628 54.4890833,24.1404586 L54.4890833,21.6591186 L52.7164792,21.6591186 L52.7164792,24.1688423 C51.1851875,24.3331695 49.9562813,24.8022488 49.0282708,25.5730925 C48.0987708,26.3454301 47.6355104,27.3343808 47.6355104,28.5354628 C47.6355104,29.785843 48.012375,30.8046713 48.7661042,31.5949355 C49.5228125,32.3851997 50.8396042,33.0798554 52.7164792,33.6744209 L52.7164792,39.7380926 C51.9016771,39.7380926 50.9960104,39.6290392 50.0024583,39.4124261 C49.0089063,39.1988008 48.1315417,38.9224324 47.3733438,38.5788393 L47.3733438,40.7270433 C47.9870521,41.0138689 48.7735521,41.2364575 49.7388021,41.3977968 C50.6966042,41.5591362 51.6901563,41.638312 52.7164792,41.638312 L52.7164792,44.7112297 L54.4890833,44.7112297 L54.4890833,41.5128258 C56.1648646,41.3021883 57.4712292,40.7897864 58.4051979,39.977114 C59.3376771,39.1659354 59.8054063,38.135156 59.8054063,36.8832819 L59.8054063,36.8832819 Z M68.2707083,33.6669515 C68.2707083,41.9445581 61.5795,48.6535874 53.3272083,48.6535874 C45.0689583,48.6535874 38.3807292,41.9445581 38.3807292,33.6669515 C38.3807292,25.387851 45.0689583,18.6743401 53.3272083,18.6743401 C61.5795,18.6743401 68.2707083,25.387851 68.2707083,33.6669515 L68.2707083,33.6669515 Z" id="Fill-5" sketch:type="MSShapeGroup"></path>
            </g>
        </g>
    </g>
</svg>