<svg xmlns="http://www.w3.org/2000/svg" xmlns:xlink="http://www.w3.org/1999/xlink" viewBox="0 0 100 100" version="1.1" x="0px" y="0px"><title>tool-16</title><desc>Created with Sketch.</desc><g stroke="none" stroke-width="1" fill="none" fill-rule="evenodd"><path d="M10.4815223,52.5239142 C8.91533881,48.0208847 11.5266525,40.9922079 16.3098615,36.0588307 L20.5216253,56.2720715 C19.5450282,56.4383651 18.5734704,56.5320942 17.6140066,56.5320942 C13.8063868,56.5320942 11.4057117,55.1836042 10.4815223,52.5239142 M95,20.149067 C95,12.3352828 76.7046789,6 54.1371236,6 C31.5685605,6 13.2732394,12.334275 13.2732394,20.149067 C13.2732394,20.6106578 15.1185946,30.340346 15.1185946,30.340346 C7.36225723,36.6232211 3.23716775,47.0332014 5.72149357,54.1777798 C8.65934742,62.6265032 19.5782869,62.3987314 26.5595952,59.8015275 C35.6674461,56.4121612 43.3693601,49.6243582 49.9949008,42.7105752 C50.2821353,42.4122546 50.567354,42.1109104 50.8505571,41.8095662 C51.7515661,40.8501024 51.8775461,39.3181855 51.0108036,38.3284865 C50.0120341,37.1896272 48.279557,37.1835802 47.2707091,38.2589456 C42.3635357,43.493667 33.9480709,51.4425018 25.3753831,54.8651267 L19.665969,27.4619547 C27.3517576,31.1889473 40.3901848,32.8982441 49.8185288,33.6712575 C56.2636662,34.2003735 61.2202237,39.5832474 61.2202237,46.0505573 L61.2202237,68.0375967 C61.2202237,70.770859 63.2127236,73.215879 65.932884,73.4859802 C69.0521491,73.7963949 71.6836195,71.363469 71.6906744,68.3076978 C71.6967215,65.8505837 71.7047842,62.7030991 71.7118391,59.2683801 C71.7168783,56.6621056 73.6257274,54.4428417 76.2047902,54.0719566 C78.1055766,53.7978241 79.5669447,52.1631074 79.5669447,50.1857252 L79.5669447,37.2783172 C79.5669447,33.7972375 81.7317852,30.718286 84.9649362,29.4312742 C86.2831911,28.9071974 87.4845365,28.3468383 88.5709881,27.7592675 L76.7802669,85.3250777 C76.6432006,86.0225031 76.2138607,86.4588978 75.8601089,86.5294466 C69.4532694,87.8124271 61.9408294,88.4907034 54.1371236,88.4907034 C46.4352096,88.4907034 39.0064203,87.8285525 32.6529964,86.5768151 C32.3012602,86.508282 31.8719204,86.0739029 31.7247757,85.3371718 L27.8637403,66.8040004 C27.5805373,65.445432 26.2401099,64.562564 24.8885964,64.8770102 C24.8724709,64.8800337 24.8563455,64.884065 24.8392122,64.8880964 C23.5068476,65.1964955 22.6511914,66.4935857 22.9303631,67.8319973 L26.7913985,86.3651687 C27.317491,89.003694 29.2424656,91.0415467 31.6784151,91.5212786 C38.1235524,92.7911571 45.8415918,93.5299039 54.1371236,93.5299039 C62.5415021,93.5299039 70.3542785,92.7710003 76.8498078,91.4708866 C79.2867652,90.983092 81.2077084,88.9371766 81.7257382,86.2946199 C81.7257382,86.2946199 95,20.5995715 95,20.149067" fill="#000000"></path></g></svg>