<svg xmlns="http://www.w3.org/2000/svg" xmlns:xlink="http://www.w3.org/1999/xlink" viewBox="0 0 100 100" version="1.1" x="0px" y="0px"><title>tool-14</title><desc>Created with Sketch.</desc><g stroke="none" stroke-width="1" fill="none" fill-rule="evenodd"><path d="M10.4814341,52.5239627 C8.91524897,48.0209285 11.5265654,40.9932522 16.3107873,36.058862 L20.5215475,56.2721239 C19.5449495,56.4384177 18.5733906,56.532147 17.6139259,56.532147 C13.806302,56.532147 11.4066323,55.1836555 10.4814341,52.5239627 M88.6647106,19.5635261 C88.6647106,24.3396852 73.3515723,28.2108031 54.4616058,28.2108031 C35.5716393,28.2108031 20.258501,24.3396852 20.258501,19.5635261 C20.258501,14.7883747 35.5716393,10.9172569 54.4616058,10.9172569 C73.3515723,10.9172569 88.6647106,14.7883747 88.6647106,19.5635261 M54.137081,6 C31.5684943,6 13.2741619,12.3342816 13.2741619,20.1490818 C13.2741619,20.5995868 13.3416873,21.0450525 13.4606125,21.4854791 L13.2741619,21.4854791 L15.1185112,30.3393635 C7.36317362,36.6232531 3.23707199,47.0332442 5.7214004,54.1798457 C6.681873,56.9393148 9.5038282,61.5713527 17.6139259,61.5713527 C18.057376,61.5713527 18.5219907,61.5542194 19.0047466,61.5219684 C25.8117057,61.0583615 36.5220335,57.0572322 50.850511,41.8096036 C51.751521,40.8511466 51.878509,39.3192281 51.0117656,38.3295281 C50.0140028,37.1896598 48.2805161,37.1826049 47.2716671,38.2589792 C42.3644886,43.4926983 33.9490151,51.4425492 25.3763183,54.8651777 L19.7324079,27.779447 C26.9989426,31.6989412 39.6866547,34.2981635 54.137081,34.2981635 C68.6066562,34.2981635 81.3094859,31.6918864 88.5709814,27.7633216 L76.7812557,85.3251605 C76.6441893,86.0225866 76.214849,86.4589818 75.8610967,86.5295307 C69.4532428,87.8125124 61.9418027,88.4907895 54.137081,88.4907895 C46.4361668,88.4907895 39.0073697,87.8286379 32.6529314,86.5768992 C32.3011948,86.508366 31.8728623,86.0739865 31.7257175,85.3372546 L27.8636703,66.8040639 C27.5804669,65.445494 26.241046,64.5626252 24.8895311,64.8770716 C24.8723978,64.8800951 24.8562723,64.8841265 24.8401468,64.8881578 C23.5077808,65.1965572 22.6511159,66.4936488 22.9302879,67.8320618 L26.7923351,86.3652526 C27.3184282,89.0037807 29.2423969,91.0416354 31.6793568,91.5213678 C38.1234931,92.7912477 45.8415405,93.5299952 54.137081,93.5299952 C62.5424761,93.5299952 70.3542527,92.7710908 76.8497889,91.4709758 C79.2877566,90.9831807 81.207694,88.9372631 81.7257243,86.2947037 L95,21.4854791 L94.8135494,21.4854791 C94.9324746,21.0450525 95,20.5995868 95,20.1490818 C95,12.3352894 76.7056676,6 54.137081,6" fill="#000000"></path></g></svg>