<svg xmlns="http://www.w3.org/2000/svg" width="889" height="742.939" viewBox="0 0 889 742.939"><g><path d="M337.6 606.677c-1.476 0-2.636.522-3.48 1.568s-1.268 2.488-1.268 4.33c0 1.926.406 3.383 1.22 4.37.812.99 1.988 1.483 3.528 1.483.666 0 1.31-.066 1.934-.2.623-.13 1.27-.3 1.944-.51v2.203c-1.232.467-2.628.7-4.19.7-2.298 0-4.063-.697-5.295-2.09-1.23-1.394-1.848-3.386-1.848-5.98 0-1.632.3-3.06.896-4.285.6-1.225 1.464-2.163 2.596-2.814s2.46-.977 3.985-.977c1.605 0 3.087.337 4.448 1.01l-.924 2.138c-.53-.25-1.09-.47-1.682-.66-.59-.19-1.21-.283-1.862-.283zM355.13 614.443c0 1.94-.497 3.455-1.492 4.544s-2.38 1.633-4.157 1.633c-1.11 0-2.09-.25-2.942-.752s-1.508-1.22-1.966-2.16-.688-2.025-.688-3.265c0-1.927.494-3.43 1.482-4.512s2.38-1.62 4.18-1.62c1.718 0 3.078.552 4.08 1.66 1.003 1.105 1.505 2.597 1.505 4.473zm-8.647 0c0 2.743 1.014 4.114 3.04 4.114 2.005 0 3.008-1.37 3.008-4.114 0-2.714-1.01-4.07-3.028-4.07-1.06 0-1.828.35-2.305 1.052-.475.702-.714 1.708-.714 3.018zM360.556 620.405h-2.524V603.69h2.524v16.715zM366.69 620.405h-2.525V603.69h2.524v16.715zM377.732 620.405l-.505-1.654h-.086c-.572.725-1.148 1.217-1.728 1.478-.58.262-1.325.393-2.234.393-1.167 0-2.08-.314-2.734-.944s-.982-1.52-.982-2.675c0-1.224.455-2.147 1.364-2.77s2.295-.963 4.157-1.02l2.052-.065v-.634c0-.758-.178-1.326-.532-1.7-.354-.378-.903-.565-1.648-.565-.608 0-1.192.09-1.75.27s-1.097.39-1.612.633l-.816-1.805c.645-.337 1.35-.593 2.116-.768.767-.176 1.49-.264 2.17-.264 1.51 0 2.65.33 3.42.99.772.658 1.156 1.692 1.156 3.103v8.003h-1.808zm-3.76-1.718c.918 0 1.653-.256 2.208-.768.556-.514.833-1.23.833-2.155v-1.03l-1.525.063c-1.188.043-2.054.242-2.595.596-.54.355-.81.897-.81 1.628 0 .53.156.94.472 1.23.315.29.788.435 1.418.435zM389.13 608.31c1.482 0 2.637.537 3.464 1.61s1.24 2.583 1.24 4.523c0 1.948-.418 3.464-1.256 4.55-.838 1.084-2.002 1.627-3.49 1.627-1.505 0-2.672-.54-3.503-1.622h-.172l-.462 1.407h-1.89V603.69h2.524v3.975c0 .294-.015.73-.043 1.31s-.05.95-.063 1.107h.107c.803-1.182 1.984-1.772 3.546-1.772zm-.655 2.062c-1.017 0-1.75.3-2.197.896-.447.6-.678 1.6-.692 3.003v.173c0 1.446.23 2.494.688 3.142.458.648 1.207.973 2.245.973.895 0 1.572-.354 2.034-1.063s.693-1.733.693-3.072c0-2.7-.925-4.05-2.772-4.05zM407.306 614.443c0 1.94-.498 3.455-1.493 4.544s-2.38 1.633-4.157 1.633c-1.11 0-2.09-.25-2.943-.752s-1.508-1.22-1.966-2.16-.688-2.025-.688-3.265c0-1.927.493-3.43 1.48-4.512s2.382-1.62 4.18-1.62c1.72 0 3.08.552 4.082 1.66 1.002 1.105 1.504 2.597 1.504 4.473zm-8.648 0c0 2.743 1.014 4.114 3.04 4.114 2.005 0 3.008-1.37 3.008-4.114 0-2.714-1.01-4.07-3.03-4.07-1.06 0-1.827.35-2.304 1.052-.476.702-.714 1.708-.714 3.018zM416.232 608.31c.51 0 .928.036 1.257.107l-.248 2.353c-.358-.086-.73-.13-1.117-.13-1.01 0-1.828.33-2.455.99-.626.658-.94 1.514-.94 2.566v6.21h-2.523v-11.882h1.977l.333 2.095h.13c.393-.71.906-1.272 1.54-1.688s1.315-.622 2.045-.622zM427.125 620.405l-.505-1.654h-.086c-.573.725-1.15 1.217-1.73 1.478-.58.262-1.324.393-2.233.393-1.166 0-2.078-.314-2.733-.944s-.982-1.52-.982-2.675c0-1.224.455-2.147 1.364-2.77s2.294-.963 4.156-1.02l2.052-.065v-.634c0-.758-.178-1.326-.532-1.7-.354-.378-.903-.565-1.648-.565-.608 0-1.192.09-1.75.27s-1.097.39-1.612.633l-.816-1.805c.645-.337 1.35-.593 2.116-.768.767-.176 1.49-.264 2.17-.264 1.51 0 2.65.33 3.42.99.772.658 1.156 1.692 1.156 3.103v8.003h-1.807zm-3.76-1.718c.917 0 1.652-.256 2.207-.768.556-.514.833-1.23.833-2.155v-1.03l-1.525.063c-1.188.043-2.054.242-2.595.596-.54.355-.81.897-.81 1.628 0 .53.156.94.472 1.23.316.29.788.435 1.418.435zM436.88 618.58c.615 0 1.23-.098 1.847-.29v1.9c-.28.122-.64.224-1.08.307-.44.082-.896.123-1.37.123-2.39 0-3.587-1.26-3.587-3.78v-6.403h-1.622v-1.117l1.74-.924.86-2.514h1.557v2.643h3.384v1.912h-3.385v6.36c0 .607.152 1.058.456 1.347.305.29.705.435 1.2.435zM440.95 605.377c0-.45.123-.8.37-1.042s.6-.365 1.06-.365c.443 0 .788.122 1.035.365s.37.59.37 1.042c0 .43-.123.77-.37 1.015-.247.248-.592.37-1.036.37-.46 0-.813-.122-1.06-.37-.247-.246-.37-.585-.37-1.015zm2.675 15.028H441.1v-11.88h2.525v11.88zM449.94 620.405l-4.51-11.88h2.663l2.417 6.906c.415 1.16.666 2.1.752 2.815h.086c.064-.516.315-1.454.752-2.814l2.417-6.906h2.686l-4.533 11.88h-2.73zM464.196 620.62c-1.848 0-3.293-.54-4.335-1.617-1.04-1.077-1.56-2.562-1.56-4.452 0-1.94.482-3.465 1.45-4.575s2.294-1.665 3.984-1.665c1.568 0 2.808.477 3.717 1.43s1.365 2.262 1.365 3.93v1.365h-7.917c.036 1.153.348 2.04.935 2.658.587.62 1.414.93 2.48.93.703 0 1.356-.066 1.96-.2.606-.13 1.257-.352 1.95-.66v2.053c-.615.294-1.238.5-1.868.623s-1.35.18-2.16.18zm-.462-10.398c-.802 0-1.445.254-1.93.763s-.77 1.25-.863 2.224h5.394c-.015-.982-.25-1.726-.71-2.23-.457-.506-1.088-.758-1.89-.758zM480.213 620.405h-2.546V604.7h8.862v2.17h-6.317v4.91h5.92v2.18h-5.92v6.445zM497.486 620.405l-.354-1.558h-.13c-.35.552-.85.984-1.498 1.3-.647.315-1.387.473-2.218.473-1.44 0-2.514-.358-3.223-1.074s-1.063-1.8-1.063-3.255v-7.766h2.546v7.326c0 .91.187 1.592.56 2.047.37.454.955.682 1.75.682 1.06 0 1.84-.317 2.336-.952.498-.633.747-1.695.747-3.185v-5.92h2.534v11.882h-1.988zM513.524 620.405h-2.535V613.1c0-.917-.186-1.6-.555-2.052-.368-.45-.954-.677-1.756-.677-1.068 0-1.85.316-2.343.946s-.74 1.687-.74 3.17v5.918h-2.525v-11.88h1.977l.353 1.557h.13c.357-.564.865-1.002 1.524-1.31s1.39-.462 2.19-.462c2.85 0 4.276 1.45 4.276 4.35v7.747zM521.044 620.62c-1.482 0-2.64-.537-3.47-1.61s-1.246-2.583-1.246-4.523c0-1.948.42-3.464 1.262-4.55.842-1.084 2.008-1.627 3.497-1.627 1.562 0 2.75.576 3.566 1.73h.13c-.123-.854-.184-1.526-.184-2.02v-4.33h2.534v16.715h-1.977l-.44-1.558h-.117c-.81 1.182-1.995 1.773-3.556 1.773zm.677-2.04c1.04 0 1.795-.293 2.268-.876.473-.584.716-1.53.73-2.842v-.354c0-1.497-.243-2.56-.73-3.19s-1.25-.945-2.288-.945c-.888 0-1.572.36-2.052 1.08-.48.72-.72 1.745-.72 3.077 0 1.317.232 2.322.698 3.013.466.69 1.164 1.036 2.095 1.036zM530.594 605.377c0-.45.123-.8.37-1.042s.6-.365 1.06-.365c.443 0 .788.122 1.035.365s.37.59.37 1.042c0 .43-.124.77-.37 1.015-.248.248-.593.37-1.037.37-.458 0-.812-.122-1.06-.37-.246-.246-.37-.585-.37-1.015zm2.675 15.028h-2.525v-11.88h2.524v11.88zM547.33 620.405h-2.535V613.1c0-.917-.185-1.6-.554-2.052-.367-.45-.953-.677-1.755-.677-1.067 0-1.848.316-2.342.946s-.74 1.687-.74 3.17v5.918h-2.525v-11.88h1.977l.354 1.557h.128c.358-.564.866-1.002 1.525-1.31s1.39-.462 2.19-.462c2.85 0 4.276 1.45 4.276 4.35v7.747zM560.876 608.524v1.386l-2.03.376c.187.25.34.56.462.924s.183.752.183 1.16c0 1.225-.422 2.188-1.267 2.89s-2.01 1.053-3.49 1.053c-.38 0-.725-.028-1.032-.086-.543.337-.815.73-.815 1.182 0 .27.127.476.38.61.256.137.723.205 1.403.205h2.073c1.312 0 2.307.28 2.987.838.68.56 1.02 1.364 1.02 2.417 0 1.347-.555 2.385-1.664 3.115-1.11.73-2.714 1.096-4.812 1.096-1.617 0-2.853-.285-3.705-.858s-1.278-1.39-1.278-2.45c0-.73.23-1.344.692-1.84.46-.5 1.107-.845 1.938-1.038-.337-.144-.614-.374-.833-.693-.218-.317-.327-.652-.327-1.003 0-.444.125-.82.376-1.128s.623-.613 1.117-.914c-.615-.265-1.114-.696-1.498-1.295-.383-.597-.574-1.297-.574-2.1 0-1.288.406-2.287 1.22-2.996.812-.71 1.97-1.063 3.475-1.063.337 0 .69.024 1.058.07.37.047.647.096.834.146h4.112zm-9.335 13.73c0 .543.246.962.736 1.256.49.294 1.18.44 2.068.44 1.375 0 2.4-.197 3.072-.59s1.01-.918 1.01-1.57c0-.515-.185-.882-.554-1.1-.368-.22-1.054-.328-2.057-.328h-1.912c-.724 0-1.298.17-1.725.51-.424.34-.637.8-.637 1.38zm1.086-9.884c0 .745.19 1.317.574 1.72.384.4.934.6 1.65.6 1.46 0 2.19-.78 2.19-2.34 0-.774-.18-1.37-.543-1.79-.36-.418-.91-.628-1.648-.628-.73 0-1.285.208-1.66.623s-.564 1.02-.564 1.815zM226.86 646.265c0 1.104-.375 1.95-1.125 2.54s-1.812.882-3.188.882h-1.766v4.72h-.796v-11.423h2.797c2.72 0 4.08 1.093 4.08 3.28zM220.782 649h1.57c1.286 0 2.216-.213 2.79-.638s.858-1.113.858-2.066c0-.88-.27-1.532-.812-1.957s-1.38-.638-2.516-.638h-1.89V649zM233.293 645.75c.36 0 .745.035 1.156.108l-.15.742c-.353-.09-.72-.133-1.1-.133-.725 0-1.318.308-1.782.922s-.695 1.39-.695 2.327v4.688h-.773v-8.492h.656l.078 1.53h.055c.348-.624.72-1.062 1.116-1.315s.874-.38 1.437-.38zM244 650.147c0 1.386-.337 2.468-1.01 3.246s-1.598 1.168-2.78 1.168c-.745 0-1.4-.18-1.97-.538s-1.002-.875-1.304-1.547-.453-1.448-.453-2.328c0-1.386.336-2.465 1.008-3.238s1.595-1.16 2.767-1.16c1.167 0 2.082.39 2.746 1.175s.996 1.858.996 3.222zm-6.704 0c0 1.167.257 2.077.77 2.73s1.238.98 2.176.98 1.663-.327 2.176-.98.77-1.563.77-2.73c0-1.172-.26-2.08-.777-2.727s-1.245-.97-2.183-.97-1.66.322-2.168.966-.764 1.555-.764 2.73zM246.02 658.25c-.418 0-.77-.066-1.056-.196v-.672c.36.104.695.156 1.008.156.786 0 1.18-.458 1.18-1.375v-10.25h.773v10.14c0 .704-.165 1.246-.496 1.626s-.802.57-1.41.57zm1.022-14.696c0-.5.164-.75.492-.75.16 0 .288.065.38.195s.136.314.136.554c0 .234-.046.42-.137.555s-.218.202-.38.202c-.327 0-.49-.253-.49-.758zM254.998 654.562c-1.234 0-2.196-.38-2.887-1.14s-1.034-1.826-1.034-3.196c0-1.354.333-2.438 1-3.254s1.565-1.223 2.695-1.223c1 0 1.79.348 2.368 1.046s.867 1.646.867 2.844v.625h-6.117c.01 1.167.282 2.058.816 2.672s1.298.922 2.293.922c.484 0 .91-.035 1.277-.103s.832-.214 1.395-.438v.702c-.48.208-.923.35-1.33.426s-.853.114-1.342.114zm-.227-8.125c-.816 0-1.473.27-1.968.81s-.784 1.315-.867 2.33h5.25c0-.983-.214-1.753-.64-2.308s-1.02-.833-1.774-.833zM264.54 654.562c-1.214 0-2.164-.383-2.852-1.148s-1.03-1.833-1.03-3.203c0-1.405.355-2.5 1.07-3.284s1.69-1.176 2.93-1.176c.733 0 1.437.128 2.108.383l-.21.688c-.735-.244-1.373-.366-1.915-.366-1.04 0-1.83.32-2.366.965s-.805 1.568-.805 2.776c0 1.146.268 2.043.804 2.69s1.286.974 2.25.974c.77 0 1.487-.138 2.148-.414v.72c-.54.263-1.252.396-2.132.396zM271.793 653.874c.49 0 .917-.042 1.28-.125v.624c-.374.125-.807.188-1.296.188-.75 0-1.304-.2-1.66-.602s-.535-1.03-.535-1.89v-5.485h-1.258v-.453l1.258-.352.39-1.922h.4v2.055h2.49v.672h-2.49v5.375c0 .65.113 1.133.343 1.445s.59.47 1.078.47zM280.976 652.194c0 .76-.29 1.345-.867 1.754s-1.4.613-2.462.613c-1.136 0-2.036-.174-2.703-.522v-.836c.854.427 1.755.64 2.703.64.84 0 1.476-.14 1.91-.417s.652-.65.652-1.113c0-.427-.173-.786-.52-1.078s-.915-.578-1.707-.86c-.85-.307-1.445-.57-1.79-.792s-.602-.472-.776-.75-.262-.618-.262-1.02c0-.636.267-1.138.8-1.508s1.28-.555 2.24-.555c.916 0 1.785.17 2.608.515l-.29.703c-.832-.344-1.605-.516-2.32-.516-.69 0-1.24.114-1.647.344s-.61.547-.61.953c0 .44.158.796.474 1.06s.93.563 1.848.892c.766.276 1.323.524 1.672.746s.61.473.785.754.26.612.26.992zM291.162 653.874c.49 0 .917-.042 1.28-.125v.624c-.374.125-.807.188-1.296.188-.75 0-1.304-.2-1.66-.602s-.535-1.03-.535-1.89v-5.485h-1.257v-.453l1.258-.352.392-1.922h.398v2.055h2.492v.672h-2.492v5.375c0 .65.114 1.133.344 1.445s.59.47 1.078.47zM302.103 650.147c0 1.386-.336 2.468-1.008 3.246s-1.6 1.168-2.78 1.168c-.746 0-1.402-.18-1.97-.538s-1.003-.875-1.305-1.547-.453-1.448-.453-2.328c0-1.386.336-2.465 1.008-3.238s1.594-1.16 2.766-1.16c1.168 0 2.083.39 2.747 1.175s.996 1.858.996 3.222zm-6.704 0c0 1.167.256 2.077.77 2.73s1.237.98 2.175.98 1.663-.327 2.176-.98.77-1.563.77-2.73c0-1.172-.258-2.08-.776-2.727s-1.246-.97-2.184-.97-1.66.322-2.168.966-.763 1.555-.763 2.73zM315.476 652.194c0 .76-.29 1.345-.867 1.754s-1.4.613-2.462.613c-1.136 0-2.036-.174-2.703-.522v-.836c.854.427 1.755.64 2.703.64.84 0 1.476-.14 1.91-.417s.652-.65.652-1.113c0-.427-.173-.786-.52-1.078s-.915-.578-1.707-.86c-.85-.307-1.445-.57-1.79-.792s-.602-.472-.776-.75-.262-.618-.262-1.02c0-.636.267-1.138.8-1.508s1.28-.555 2.24-.555c.916 0 1.785.17 2.608.515l-.29.703c-.832-.344-1.605-.516-2.32-.516-.69 0-1.24.114-1.647.344s-.61.547-.61.953c0 .44.158.796.474 1.06s.93.563 1.848.892c.766.276 1.323.524 1.672.746s.61.473.785.754.26.612.26.992zM319.136 645.913v5.5c0 .854.18 1.476.54 1.863s.916.582 1.67.582c1.012 0 1.755-.255 2.23-.766s.716-1.34.716-2.492v-4.688h.766v8.492h-.656l-.14-1.172h-.048c-.552.886-1.534 1.328-2.945 1.328-1.934 0-2.9-1.034-2.9-3.102v-5.547h.766zM332.334 654.562c-1.308 0-2.26-.49-2.86-1.47h-.054l.023.657c.02.385.03.807.03 1.265v3.234h-.772v-12.337h.657l.148 1.21h.047c.583-.916 1.516-1.374 2.797-1.374 1.145 0 2.02.375 2.62 1.128s.902 1.848.902 3.285c0 1.396-.316 2.478-.95 3.246s-1.494 1.152-2.588 1.152zm-.016-.688c.87 0 1.543-.323 2.02-.97s.715-1.55.715-2.71c0-2.495-.9-3.742-2.703-3.742-.99 0-1.716.272-2.18.816s-.695 1.43-.695 2.66v.25c0 1.328.223 2.276.668 2.844s1.17.852 2.175.852zM342.657 654.562c-1.308 0-2.26-.49-2.86-1.47h-.054l.023.657c.02.385.03.807.03 1.265v3.234h-.772v-12.337h.656l.148 1.21h.047c.583-.916 1.516-1.374 2.797-1.374 1.146 0 2.02.375 2.62 1.128s.903 1.848.903 3.285c0 1.396-.316 2.478-.95 3.246s-1.494 1.152-2.588 1.152zm-.015-.688c.87 0 1.543-.323 2.02-.97s.715-1.55.715-2.71c0-2.495-.9-3.742-2.703-3.742-.99 0-1.716.272-2.18.816s-.695 1.43-.695 2.66v.25c0 1.328.222 2.276.667 2.844s1.17.852 2.175.852zM356.37 650.147c0 1.386-.335 2.468-1.007 3.246s-1.6 1.168-2.78 1.168c-.746 0-1.402-.18-1.97-.538s-1.003-.875-1.305-1.547-.453-1.448-.453-2.328c0-1.386.336-2.465 1.008-3.238s1.594-1.16 2.766-1.16c1.166 0 2.08.39 2.745 1.175s.996 1.858.996 3.222zm-6.702 0c0 1.167.257 2.077.77 2.73s1.238.98 2.176.98 1.663-.327 2.176-.98.77-1.563.77-2.73c0-1.172-.26-2.08-.777-2.727s-1.246-.97-2.184-.97-1.66.322-2.17.966-.762 1.555-.762 2.73zM362.866 645.75c.36 0 .745.035 1.156.108l-.148.742c-.354-.09-.722-.133-1.102-.133-.724 0-1.317.308-1.78.922s-.696 1.39-.696 2.327v4.688h-.773v-8.492h.656l.077 1.53h.055c.35-.624.722-1.062 1.117-1.315s.874-.38 1.436-.38zM368.792 653.874c.49 0 .917-.042 1.28-.125v.624c-.374.125-.807.188-1.296.188-.75 0-1.304-.2-1.66-.602s-.535-1.03-.535-1.89v-5.485h-1.257v-.453l1.258-.352.392-1.922h.398v2.055h2.492v.672h-2.492v5.375c0 .65.114 1.133.344 1.445s.59.47 1.078.47zM379.907 653.874c.49 0 .917-.042 1.28-.125v.624c-.374.125-.807.188-1.296.188-.75 0-1.303-.2-1.66-.602s-.534-1.03-.534-1.89v-5.485h-1.258v-.453l1.258-.352.39-1.922h.4v2.055h2.49v.672h-2.49v5.375c0 .65.113 1.133.343 1.445s.588.47 1.077.47zM389.746 654.405v-5.508c0-.854-.18-1.476-.54-1.863s-.916-.582-1.67-.582c-1.017 0-1.76.257-2.23.77s-.708 1.345-.708 2.496v4.688h-.773V642.25h.773v3.867l-.04 1.086h.056c.317-.51.72-.88 1.203-1.11s1.086-.343 1.805-.343c1.927 0 2.89 1.034 2.89 3.102v5.555h-.766zM397.49 654.562c-1.233 0-2.195-.38-2.886-1.14s-1.035-1.826-1.035-3.196c0-1.354.332-2.438 1-3.254s1.564-1.223 2.694-1.223c1 0 1.79.348 2.367 1.046s.868 1.646.868 2.844v.625h-6.117c.012 1.167.283 2.058.817 2.672s1.298.922 2.293.922c.484 0 .91-.035 1.277-.103s.832-.214 1.395-.438v.702c-.48.208-.922.35-1.328.426s-.854.114-1.343.114zm-.225-8.125c-.817 0-1.474.27-1.97.81s-.783 1.315-.866 2.33h5.25c0-.983-.215-1.753-.642-2.308s-1.018-.833-1.773-.833zM414.52 654.405v-5.508c0-.854-.18-1.476-.538-1.863s-.917-.582-1.672-.582c-1.016 0-1.76.257-2.23.77s-.707 1.345-.707 2.496v4.688h-.773v-8.492h.656l.148 1.164h.047c.553-.886 1.535-1.328 2.946-1.328 1.927 0 2.89 1.034 2.89 3.102v5.555h-.765zM422.267 654.562c-1.234 0-2.196-.38-2.887-1.14s-1.035-1.826-1.035-3.196c0-1.354.333-2.438 1-3.254s1.565-1.223 2.695-1.223c1 0 1.79.348 2.367 1.046s.867 1.646.867 2.844v.625h-6.117c.01 1.167.282 2.058.816 2.672s1.298.922 2.293.922c.484 0 .91-.035 1.277-.103s.832-.214 1.395-.438v.702c-.48.208-.922.35-1.328.426s-.854.114-1.343.114zm-.227-8.125c-.817 0-1.474.27-1.97.81s-.783 1.315-.866 2.33h5.25c0-.983-.214-1.753-.64-2.308s-1.02-.833-1.774-.833zM430.66 653.874c.49 0 .917-.042 1.28-.125v.624c-.374.125-.807.188-1.296.188-.75 0-1.304-.2-1.66-.602s-.535-1.03-.535-1.89v-5.485h-1.26v-.453l1.26-.352.39-1.922h.398v2.055h2.492v.672h-2.492v5.375c0 .65.114 1.133.344 1.445s.59.47 1.078.47zM441.366 654.405l-1.86-5.68c-.12-.386-.272-.95-.46-1.695H439l-.165.578-.352 1.133-1.89 5.665h-.767l-2.43-8.492h.828l1.36 4.922c.316 1.22.525 2.114.624 2.688h.047c.308-1.22.53-2.028.672-2.43l1.75-5.18h.703l1.664 5.164c.375 1.224.604 2.034.688 2.43h.047c.04-.34.25-1.245.624-2.72l1.297-4.874h.782l-2.305 8.492h-.81zM453.972 650.147c0 1.386-.336 2.468-1.008 3.246s-1.6 1.168-2.78 1.168c-.746 0-1.402-.18-1.97-.538s-1.003-.875-1.305-1.547-.454-1.448-.454-2.328c0-1.386.336-2.465 1.008-3.238s1.594-1.16 2.766-1.16c1.167 0 2.082.39 2.746 1.175s.996 1.858.996 3.222zm-6.703 0c0 1.167.256 2.077.77 2.73s1.237.98 2.175.98 1.663-.327 2.176-.98.77-1.563.77-2.73c0-1.172-.258-2.08-.776-2.727s-1.246-.97-2.184-.97-1.66.322-2.168.966-.763 1.555-.763 2.73zM460.467 645.75c.36 0 .745.035 1.156.108l-.148.742c-.354-.09-.722-.133-1.102-.133-.724 0-1.317.308-1.78.922s-.696 1.39-.696 2.327v4.688h-.773v-8.492h.656l.078 1.53h.055c.35-.624.722-1.062 1.117-1.315s.874-.38 1.437-.38zM464.907 650.68l4.336-4.767h.938l-3.343 3.625 3.633 4.867h-.93l-3.227-4.29-1.39 1.267v3.023h-.774V642.25h.772v6.093l-.055 2.336h.04zM482.804 654.405l-.195-1.344h-.063c-.427.548-.866.935-1.316 1.16s-.982.34-1.597.34c-.833 0-1.48-.213-1.945-.64s-.695-1.02-.695-1.773c0-.828.345-1.472 1.035-1.93s1.688-.7 2.996-.727l1.617-.047v-.562c0-.807-.163-1.416-.49-1.827s-.857-.617-1.587-.617c-.786 0-1.602.22-2.445.656l-.29-.672c.934-.438 1.855-.656 2.767-.656.933 0 1.63.242 2.09.727s.69 1.24.69 2.267v5.648h-.57zm-3.125-.547c.905 0 1.62-.26 2.144-.777s.785-1.237.785-2.16v-.835l-1.485.062c-1.192.058-2.043.243-2.55.56s-.763.805-.763 1.472c0 .53.163.943.488 1.237s.785.44 1.38.44zM492.847 654.405v-5.508c0-.854-.18-1.476-.54-1.863s-.916-.582-1.67-.582c-1.017 0-1.76.257-2.23.77s-.708 1.345-.708 2.496v4.688h-.774v-8.492h.656l.148 1.164h.047c.552-.886 1.534-1.328 2.945-1.328 1.927 0 2.89 1.034 2.89 3.102v5.555h-.765zM500.27 645.75c.615 0 1.147.11 1.595.335s.85.606 1.203 1.148h.047c-.03-.656-.047-1.3-.047-1.93v-3.055h.766v12.156h-.508l-.195-1.297h-.06c-.647.97-1.574 1.453-2.782 1.453-1.172 0-2.067-.364-2.688-1.094s-.93-1.792-.93-3.188c0-1.47.308-2.59.922-3.367s1.508-1.16 2.68-1.16zm0 .702c-.926 0-1.623.325-2.09.977s-.698 1.596-.698 2.835c0 2.406.935 3.61 2.805 3.61.958 0 1.66-.28 2.11-.837s.67-1.477.67-2.758v-.133c0-1.312-.22-2.257-.66-2.832s-1.15-.863-2.136-.863zM512.332 643.554c0-.5.164-.75.492-.75.16 0 .288.065.38.195s.136.314.136.554c0 .234-.046.42-.137.555s-.218.202-.38.202c-.327 0-.49-.253-.49-.758zm.883 10.85h-.773v-8.49h.773v8.49zM519.1 653.874c.49 0 .918-.042 1.282-.125v.624c-.375.125-.808.188-1.297.188-.75 0-1.304-.2-1.66-.602s-.535-1.03-.535-1.89v-5.485h-1.258v-.453l1.258-.352.39-1.922h.4v2.055h2.49v.672h-2.49v5.375c0 .65.113 1.133.343 1.445s.588.47 1.078.47zM528.284 652.194c0 .76-.29 1.345-.867 1.754s-1.398.613-2.46.613c-1.137 0-2.037-.174-2.704-.522v-.836c.854.427 1.755.64 2.703.64.84 0 1.476-.14 1.91-.417s.652-.65.652-1.113c0-.427-.173-.786-.52-1.078s-.915-.578-1.707-.86c-.848-.307-1.444-.57-1.788-.792s-.603-.472-.777-.75-.262-.618-.262-1.02c0-.636.267-1.138.8-1.508s1.28-.555 2.24-.555c.916 0 1.785.17 2.608.515l-.288.703c-.833-.344-1.606-.516-2.32-.516-.692 0-1.242.114-1.648.344s-.61.547-.61.953c0 .44.158.796.474 1.06s.93.563 1.848.892c.766.276 1.323.524 1.672.746s.61.473.785.754.26.612.26.992zM538.087 654.405l-3.28-8.492h.796l2.195 5.773c.292.74.51 1.386.656 1.938h.047c.215-.708.434-1.36.657-1.953l2.195-5.757h.797l-3.282 8.492h-.78zM544.262 643.554c0-.5.164-.75.492-.75.16 0 .288.065.38.195s.136.314.136.554c0 .234-.046.42-.137.555s-.218.202-.38.202c-.327 0-.49-.253-.49-.758zm.883 10.85h-.773v-8.49h.773v8.49zM554.054 652.194c0 .76-.29 1.345-.867 1.754s-1.398.613-2.46.613c-1.137 0-2.037-.174-2.704-.522v-.836c.854.427 1.755.64 2.703.64.84 0 1.476-.14 1.91-.417s.652-.65.652-1.113c0-.427-.173-.786-.52-1.078s-.915-.578-1.707-.86c-.848-.307-1.444-.57-1.788-.792s-.603-.472-.777-.75-.262-.618-.262-1.02c0-.636.267-1.138.8-1.508s1.28-.555 2.24-.555c.916 0 1.785.17 2.608.515l-.288.703c-.833-.344-1.606-.516-2.32-.516-.692 0-1.242.114-1.648.344s-.61.547-.61.953c0 .44.158.796.474 1.06s.93.563 1.848.892c.766.276 1.323.524 1.672.746s.61.473.785.754.26.612.26.992zM556.933 643.554c0-.5.164-.75.492-.75.16 0 .288.065.38.195s.136.314.136.554c0 .234-.045.42-.136.555s-.218.202-.38.202c-.327 0-.49-.253-.49-.758zm.882 10.85h-.773v-8.49h.773v8.49zM568.482 650.147c0 1.386-.336 2.468-1.008 3.246s-1.6 1.168-2.78 1.168c-.746 0-1.402-.18-1.97-.538s-1.003-.875-1.305-1.547-.454-1.448-.454-2.328c0-1.386.336-2.465 1.008-3.238s1.594-1.16 2.766-1.16c1.167 0 2.082.39 2.746 1.175s.996 1.858.996 3.222zm-6.703 0c0 1.167.256 2.077.77 2.73s1.237.98 2.175.98 1.663-.327 2.176-.98.77-1.563.77-2.73c0-1.172-.258-2.08-.776-2.727s-1.246-.97-2.184-.97-1.66.322-2.168.966-.763 1.555-.763 2.73zM577.556 654.405v-5.508c0-.854-.18-1.476-.54-1.863s-.916-.582-1.67-.582c-1.017 0-1.76.257-2.23.77s-.708 1.345-.708 2.496v4.688h-.773v-8.492h.656l.15 1.164h.046c.552-.886 1.534-1.328 2.945-1.328 1.928 0 2.892 1.034 2.892 3.102v5.555h-.766zM591.983 654.405l-.195-1.344h-.062c-.427.548-.866.935-1.316 1.16s-.983.34-1.598.34c-.833 0-1.48-.213-1.945-.64s-.695-1.02-.695-1.773c0-.828.345-1.472 1.035-1.93s1.688-.7 2.996-.727l1.617-.047v-.562c0-.807-.164-1.416-.492-1.827s-.856-.617-1.586-.617c-.786 0-1.602.22-2.445.656l-.29-.672c.934-.438 1.855-.656 2.767-.656.933 0 1.63.242 2.09.727s.69 1.24.69 2.267v5.648h-.57zm-3.125-.547c.906 0 1.62-.26 2.145-.777s.785-1.237.785-2.16v-.835l-1.484.062c-1.192.058-2.043.243-2.55.56s-.763.805-.763 1.472c0 .53.164.943.49 1.237s.785.44 1.378.44zM599.448 645.75c.36 0 .745.035 1.156.108l-.148.742c-.354-.09-.722-.133-1.102-.133-.724 0-1.317.308-1.78.922s-.696 1.39-.696 2.327v4.688h-.773v-8.492h.656l.08 1.53h.054c.35-.624.722-1.062 1.117-1.315s.876-.38 1.438-.38zM606.56 654.562c-1.233 0-2.195-.38-2.886-1.14s-1.035-1.826-1.035-3.196c0-1.354.332-2.438 1-3.254s1.564-1.223 2.694-1.223c1 0 1.79.348 2.367 1.046s.868 1.646.868 2.844v.625h-6.117c.012 1.167.283 2.058.817 2.672s1.298.922 2.293.922c.484 0 .91-.035 1.277-.103s.832-.214 1.395-.438v.702c-.48.208-.922.35-1.328.426s-.854.114-1.343.114zm-.226-8.125c-.817 0-1.474.27-1.97.81s-.783 1.315-.866 2.33h5.25c0-.983-.214-1.753-.64-2.308s-1.02-.833-1.774-.833zM620.824 646.585h-2v7.82h-.773v-7.82h-1.577v-.453l1.578-.29v-.655c0-1.042.192-1.806.575-2.293s1.01-.73 1.88-.73c.468 0 .937.07 1.405.21l-.18.673c-.417-.13-.83-.195-1.242-.195-.604 0-1.032.18-1.285.535s-.38.937-.38 1.738v.79h2v.67zM623.937 645.913v5.5c0 .854.18 1.476.54 1.863s.916.582 1.67.582c1.012 0 1.755-.255 2.23-.766s.716-1.34.716-2.492v-4.688h.766v8.492h-.657l-.14-1.172h-.048c-.552.886-1.534 1.328-2.945 1.328-1.933 0-2.898-1.034-2.898-3.102v-5.547h.765zM639.425 654.405v-5.508c0-.854-.18-1.476-.54-1.863s-.916-.582-1.67-.582c-1.017 0-1.76.257-2.23.77s-.708 1.345-.708 2.496v4.688h-.773v-8.492h.656l.148 1.164h.047c.552-.886 1.534-1.328 2.945-1.328 1.927 0 2.89 1.034 2.89 3.102v5.555h-.765zM646.85 645.75c.614 0 1.146.11 1.594.335s.85.606 1.203 1.148h.047c-.03-.656-.047-1.3-.047-1.93v-3.055h.766v12.156h-.508l-.195-1.297h-.062c-.646.97-1.573 1.453-2.78 1.453-1.173 0-2.068-.364-2.69-1.094s-.93-1.792-.93-3.188c0-1.47.31-2.59.923-3.367s1.508-1.16 2.68-1.16zm0 .702c-.927 0-1.624.325-2.09.977s-.7 1.596-.7 2.835c0 2.406.936 3.61 2.806 3.61.958 0 1.66-.28 2.11-.837s.67-1.477.67-2.758v-.133c0-1.312-.22-2.257-.66-2.832s-1.152-.863-2.136-.863zM657.493 654.562c-1.234 0-2.196-.38-2.887-1.14s-1.035-1.826-1.035-3.196c0-1.354.334-2.438 1-3.254s1.566-1.223 2.696-1.223c1 0 1.79.348 2.367 1.046s.867 1.646.867 2.844v.625h-6.117c.01 1.167.282 2.058.816 2.672s1.297.922 2.292.922c.484 0 .91-.035 1.277-.103s.83-.214 1.394-.438v.702c-.48.208-.922.35-1.328.426s-.854.114-1.343.114zm-.226-8.125c-.817 0-1.474.27-1.97.81s-.783 1.315-.866 2.33h5.25c0-.983-.213-1.753-.64-2.308s-1.02-.833-1.773-.833zM666.754 645.75c.614 0 1.146.11 1.594.335s.85.606 1.203 1.148h.048c-.03-.656-.047-1.3-.047-1.93v-3.055h.767v12.156h-.508l-.196-1.297h-.062c-.646.97-1.573 1.453-2.78 1.453-1.173 0-2.068-.364-2.69-1.094s-.93-1.792-.93-3.188c0-1.47.31-2.59.923-3.367s1.507-1.16 2.68-1.16zm0 .702c-.927 0-1.624.325-2.09.977s-.7 1.596-.7 2.835c0 2.406.936 3.61 2.806 3.61.958 0 1.66-.28 2.11-.837s.67-1.477.67-2.758v-.133c0-1.312-.22-2.257-.66-2.832s-1.152-.863-2.136-.863zM241.21 670.913v5.5c0 .854.18 1.476.54 1.863s.916.582 1.67.582c1.012 0 1.755-.255 2.23-.766s.716-1.34.716-2.492v-4.688h.766v8.492h-.656l-.14-1.172h-.048c-.552.886-1.534 1.328-2.945 1.328-1.933 0-2.898-1.034-2.898-3.102v-5.547h.765zM256.04 677.194c0 .76-.288 1.345-.866 1.754s-1.398.613-2.46.613c-1.137 0-2.037-.174-2.704-.522v-.836c.854.427 1.755.64 2.703.64.84 0 1.476-.14 1.91-.417s.652-.65.652-1.113c0-.427-.173-.786-.52-1.078s-.915-.578-1.707-.86c-.85-.307-1.445-.57-1.79-.792s-.602-.472-.776-.75-.262-.618-.262-1.02c0-.636.267-1.138.8-1.508s1.28-.555 2.24-.555c.916 0 1.785.17 2.608.515l-.29.703c-.832-.344-1.605-.516-2.32-.516-.69 0-1.24.114-1.647.344s-.608.547-.608.953c0 .44.157.796.473 1.06s.93.563 1.848.892c.766.276 1.323.524 1.672.746s.61.473.785.754.26.612.26.992zM258.92 668.554c0-.5.163-.75.49-.75.162 0 .29.065.38.195s.137.314.137.554c0 .234-.046.42-.137.555s-.218.202-.38.202c-.327 0-.49-.253-.49-.758zm.882 10.85h-.773v-8.49h.772v8.49zM269.368 679.405v-5.508c0-.854-.18-1.476-.54-1.863s-.916-.582-1.67-.582c-1.017 0-1.76.257-2.23.77s-.708 1.345-.708 2.496v4.688h-.773v-8.492h.656l.148 1.164h.048c.552-.886 1.534-1.328 2.945-1.328 1.927 0 2.89 1.034 2.89 3.102v5.555h-.765zM280.31 670.913v.54l-1.76.108c.47.584.704 1.225.704 1.923 0 .817-.272 1.48-.816 1.988s-1.274.763-2.19.763c-.387 0-.657-.016-.813-.047-.308.16-.542.352-.703.57s-.242.45-.242.695c0 .272.103.47.31.595s.55.188 1.034.188h1.484c.922 0 1.628.187 2.117.56s.734.922.734 1.65c0 .897-.364 1.588-1.09 2.075s-1.763.73-3.106.73c-1.067 0-1.895-.206-2.48-.617s-.88-.983-.88-1.718c0-.583.182-1.067.544-1.453s.853-.65 1.473-.79c-.254-.11-.46-.265-.612-.465s-.23-.43-.23-.69c0-.568.362-1.068 1.086-1.5-.495-.204-.88-.523-1.156-.958s-.414-.934-.414-1.496c0-.848.27-1.53.81-2.042s1.266-.77 2.183-.77c.558 0 .99.055 1.297.164h2.715zm-6.876 9.93c0 1.167.867 1.75 2.602 1.75 2.23 0 3.344-.71 3.344-2.133 0-.51-.175-.88-.523-1.11s-.914-.343-1.695-.343h-1.39c-1.56 0-2.338.612-2.338 1.836zm.648-7.28c0 .655.2 1.164.598 1.526s.93.542 1.598.542c.708 0 1.25-.18 1.63-.54s.565-.88.565-1.56c0-.725-.194-1.268-.582-1.63s-.93-.543-1.628-.543c-.677 0-1.21.193-1.598.58s-.582.93-.582 1.622zM292.963 679.405l-.195-1.344h-.062c-.427.548-.866.935-1.316 1.16s-.983.34-1.598.34c-.833 0-1.48-.213-1.945-.64s-.695-1.02-.695-1.773c0-.828.345-1.472 1.035-1.93s1.688-.7 2.996-.727l1.617-.047v-.562c0-.807-.164-1.416-.492-1.827s-.856-.617-1.586-.617c-.786 0-1.602.22-2.445.656l-.29-.672c.934-.438 1.855-.656 2.767-.656.933 0 1.63.242 2.09.727s.69 1.24.69 2.267v5.648h-.57zm-3.125-.547c.906 0 1.62-.26 2.145-.777s.785-1.237.785-2.16v-.835l-1.484.062c-1.192.058-2.043.243-2.55.56s-.763.805-.763 1.472c0 .53.164.943.49 1.237s.784.44 1.378.44zM304.282 678.874c.49 0 .917-.042 1.28-.125v.624c-.374.125-.807.188-1.296.188-.75 0-1.304-.2-1.66-.602s-.535-1.03-.535-1.89v-5.485h-1.257v-.453l1.258-.352.392-1.922h.398v2.055h2.492v.672h-2.492v5.375c0 .65.114 1.133.344 1.445s.59.47 1.078.47zM311.543 670.75c.36 0 .745.035 1.156.108l-.15.742c-.353-.09-.72-.133-1.1-.133-.725 0-1.318.308-1.782.922s-.695 1.39-.695 2.327v4.688h-.773v-8.492h.656l.078 1.53h.055c.348-.624.72-1.062 1.116-1.315s.874-.38 1.437-.38zM320.382 679.405l-.195-1.344h-.062c-.427.548-.866.935-1.316 1.16s-.984.34-1.6.34c-.832 0-1.48-.213-1.944-.64s-.695-1.02-.695-1.773c0-.828.346-1.472 1.036-1.93s1.688-.7 2.996-.727l1.617-.047v-.562c0-.807-.165-1.416-.493-1.827s-.856-.617-1.586-.617c-.785 0-1.6.22-2.444.656l-.29-.672c.934-.438 1.855-.656 2.767-.656.933 0 1.63.242 2.09.727s.69 1.24.69 2.267v5.648h-.57zm-3.125-.547c.906 0 1.62-.26 2.145-.777s.785-1.237.785-2.16v-.835l-1.484.062c-1.192.058-2.043.243-2.55.56s-.763.805-.763 1.472c0 .53.163.943.488 1.237s.785.44 1.38.44zM330.424 679.405v-5.508c0-.854-.18-1.476-.54-1.863s-.916-.582-1.67-.582c-1.017 0-1.76.257-2.23.77s-.708 1.345-.708 2.496v4.688h-.773v-8.492h.656l.147 1.164h.047c.552-.886 1.534-1.328 2.945-1.328 1.926 0 2.89 1.034 2.89 3.102v5.555h-.766zM340.005 677.194c0 .76-.29 1.345-.867 1.754s-1.398.613-2.46.613c-1.137 0-2.037-.174-2.704-.522v-.836c.854.427 1.755.64 2.703.64.84 0 1.476-.14 1.91-.417s.652-.65.652-1.113c0-.427-.174-.786-.52-1.078s-.916-.578-1.708-.86c-.85-.307-1.445-.57-1.79-.792s-.602-.472-.776-.75-.262-.618-.262-1.02c0-.636.267-1.138.8-1.508s1.28-.555 2.24-.555c.916 0 1.785.17 2.608.515l-.29.703c-.832-.344-1.605-.516-2.32-.516-.69 0-1.24.114-1.647.344s-.61.547-.61.953c0 .44.158.796.474 1.06s.93.563 1.847.892c.766.276 1.323.524 1.672.746s.61.473.784.754.26.612.26.992zM346.626 679.562c-1.308 0-2.26-.49-2.86-1.47h-.054l.023.657c.02.385.03.807.03 1.265v3.234h-.772v-12.337h.656l.147 1.21h.047c.583-.916 1.516-1.374 2.797-1.374 1.147 0 2.02.375 2.622 1.128s.902 1.848.902 3.285c0 1.396-.316 2.478-.95 3.246s-1.494 1.152-2.588 1.152zm-.016-.688c.87 0 1.543-.323 2.02-.97s.715-1.55.715-2.71c0-2.495-.9-3.742-2.703-3.742-.99 0-1.716.272-2.18.816s-.695 1.43-.695 2.66v.25c0 1.328.223 2.276.668 2.844s1.17.852 2.175.852zM358.473 679.405l-.195-1.344h-.062c-.427.548-.866.935-1.316 1.16s-.983.34-1.598.34c-.833 0-1.48-.213-1.945-.64s-.695-1.02-.695-1.773c0-.828.345-1.472 1.035-1.93s1.688-.7 2.996-.727l1.617-.047v-.562c0-.807-.164-1.416-.492-1.827s-.856-.617-1.586-.617c-.786 0-1.602.22-2.445.656l-.29-.672c.934-.438 1.855-.656 2.767-.656.933 0 1.63.242 2.09.727s.69 1.24.69 2.267v5.648h-.57zm-3.125-.547c.906 0 1.62-.26 2.145-.777s.785-1.237.785-2.16v-.835l-1.484.062c-1.192.058-2.043.243-2.55.56s-.763.805-.763 1.472c0 .53.164.943.49 1.237s.784.44 1.378.44zM365.937 670.75c.36 0 .745.035 1.156.108l-.148.742c-.354-.09-.722-.133-1.102-.133-.724 0-1.317.308-1.78.922s-.696 1.39-.696 2.327v4.688h-.773v-8.492h.656l.078 1.53h.055c.35-.624.722-1.062 1.117-1.315s.874-.38 1.437-.38zM373.05 679.562c-1.235 0-2.197-.38-2.888-1.14s-1.035-1.826-1.035-3.196c0-1.354.333-2.438 1-3.254s1.565-1.223 2.695-1.223c1 0 1.79.348 2.367 1.046s.866 1.646.866 2.844v.625h-6.117c.01 1.167.28 2.058.815 2.672s1.298.922 2.293.922c.484 0 .91-.035 1.277-.103s.832-.214 1.395-.438v.702c-.48.208-.922.35-1.328.426s-.854.114-1.343.114zm-.228-8.125c-.817 0-1.474.27-1.97.81s-.783 1.315-.866 2.33h5.25c0-.983-.214-1.753-.64-2.308s-1.02-.833-1.774-.833zM385.122 679.405v-5.508c0-.854-.18-1.476-.54-1.863s-.916-.582-1.67-.582c-1.017 0-1.76.257-2.23.77s-.708 1.345-.708 2.496v4.688h-.774v-8.492h.656l.148 1.164h.047c.553-.886 1.535-1.328 2.946-1.328 1.927 0 2.89 1.034 2.89 3.102v5.555h-.764zM391.68 678.874c.49 0 .918-.042 1.282-.125v.624c-.375.125-.808.188-1.297.188-.75 0-1.304-.2-1.66-.602s-.535-1.03-.535-1.89v-5.485h-1.258v-.453l1.258-.352.39-1.922h.4v2.055h2.49v.672h-2.49v5.375c0 .65.113 1.133.343 1.445s.588.47 1.078.47zM404.187 679.562c-1.308 0-2.26-.49-2.86-1.47h-.054l.023.657c.02.385.03.807.03 1.265v3.234h-.772v-12.337h.656l.148 1.21h.047c.583-.916 1.516-1.374 2.797-1.374 1.146 0 2.02.375 2.62 1.128s.903 1.848.903 3.285c0 1.396-.316 2.478-.95 3.246s-1.495 1.152-2.588 1.152zm-.016-.688c.87 0 1.544-.323 2.02-.97s.716-1.55.716-2.71c0-2.495-.9-3.742-2.703-3.742-.99 0-1.716.272-2.18.816s-.695 1.43-.695 2.66v.25c0 1.328.223 2.276.668 2.844s1.17.852 2.175.852zM416.033 679.405l-.195-1.344h-.062c-.427.548-.866.935-1.316 1.16s-.983.34-1.598.34c-.833 0-1.48-.213-1.945-.64s-.695-1.02-.695-1.773c0-.828.345-1.472 1.035-1.93s1.688-.7 2.996-.727l1.617-.047v-.562c0-.807-.164-1.416-.492-1.827s-.856-.617-1.586-.617c-.786 0-1.602.22-2.445.656l-.29-.672c.934-.438 1.855-.656 2.767-.656.933 0 1.63.242 2.09.727s.69 1.24.69 2.267v5.648h-.57zm-3.125-.547c.906 0 1.62-.26 2.145-.777s.785-1.237.785-2.16v-.835l-1.484.062c-1.192.058-2.043.243-2.55.56s-.763.805-.763 1.472c0 .53.164.943.49 1.237s.784.44 1.378.44zM423.497 670.75c.36 0 .745.035 1.156.108l-.148.742c-.354-.09-.722-.133-1.102-.133-.724 0-1.317.308-1.78.922s-.696 1.39-.696 2.327v4.688h-.773v-8.492h.656l.078 1.53h.055c.35-.624.722-1.062 1.117-1.315s.875-.38 1.437-.38zM429.423 678.874c.49 0 .917-.042 1.28-.125v.624c-.374.125-.807.188-1.296.188-.75 0-1.304-.2-1.66-.602s-.535-1.03-.535-1.89v-5.485h-1.258v-.453l1.258-.352.39-1.922h.4v2.055h2.49v.672h-2.49v5.375c0 .65.113 1.133.343 1.445s.59.47 1.078.47zM433.23 668.554c0-.5.164-.75.492-.75.16 0 .288.065.38.195s.136.314.136.554c0 .234-.046.42-.137.555s-.217.202-.378.202c-.327 0-.492-.253-.492-.758zm.883 10.85h-.773v-8.49h.773v8.49zM441.147 679.562c-1.214 0-2.164-.383-2.852-1.148s-1.03-1.833-1.03-3.203c0-1.405.355-2.5 1.07-3.284s1.69-1.176 2.93-1.176c.733 0 1.437.128 2.108.383l-.21.688c-.735-.244-1.373-.366-1.915-.366-1.042 0-1.83.32-2.367.965s-.804 1.568-.804 2.776c0 1.146.27 2.043.805 2.69s1.287.974 2.25.974c.772 0 1.488-.138 2.15-.414v.72c-.542.263-1.253.396-2.133.396zM446.05 668.554c0-.5.163-.75.49-.75.162 0 .29.065.38.195s.137.314.137.554c0 .234-.046.42-.137.555s-.218.202-.38.202c-.327 0-.49-.253-.49-.758zm.882 10.85h-.773v-8.49h.772v8.49zM454.208 679.562c-1.308 0-2.26-.49-2.86-1.47h-.054l.023.657c.02.385.03.807.03 1.265v3.234h-.772v-12.337h.656l.15 1.21h.046c.583-.916 1.516-1.374 2.797-1.374 1.146 0 2.02.375 2.62 1.128s.903 1.848.903 3.285c0 1.396-.316 2.478-.95 3.246s-1.494 1.152-2.588 1.152zm-.016-.688c.87 0 1.543-.323 2.02-.97s.715-1.55.715-2.71c0-2.495-.9-3.742-2.703-3.742-.99 0-1.716.272-2.18.816s-.695 1.43-.695 2.66v.25c0 1.328.222 2.276.667 2.844s1.17.852 2.175.852zM466.056 679.405l-.195-1.344h-.06c-.428.548-.867.935-1.317 1.16s-.983.34-1.598.34c-.833 0-1.48-.213-1.945-.64s-.695-1.02-.695-1.773c0-.828.345-1.472 1.035-1.93s1.688-.7 2.996-.727l1.617-.047v-.562c0-.807-.164-1.416-.492-1.827s-.855-.617-1.585-.617c-.786 0-1.602.22-2.445.656l-.29-.672c.934-.438 1.855-.656 2.767-.656.933 0 1.63.242 2.09.727s.69 1.24.69 2.267v5.648h-.57zm-3.125-.547c.907 0 1.622-.26 2.146-.777s.785-1.237.785-2.16v-.835l-1.483.062c-1.192.058-2.043.243-2.55.56s-.763.805-.763 1.472c0 .53.163.943.488 1.237s.785.44 1.38.44zM472.418 678.874c.49 0 .917-.042 1.28-.125v.624c-.374.125-.807.188-1.296.188-.75 0-1.304-.2-1.66-.602s-.535-1.03-.535-1.89v-5.485h-1.258v-.453l1.257-.352.39-1.922h.4v2.055h2.49v.672h-2.49v5.375c0 .65.113 1.133.343 1.445s.59.47 1.078.47zM483.358 675.147c0 1.386-.336 2.468-1.008 3.246s-1.6 1.168-2.78 1.168c-.746 0-1.402-.18-1.97-.538s-1.003-.875-1.305-1.547-.453-1.448-.453-2.328c0-1.386.336-2.465 1.008-3.238s1.594-1.16 2.766-1.16c1.167 0 2.082.39 2.746 1.175s.996 1.858.996 3.222zm-6.703 0c0 1.167.257 2.077.77 2.73s1.238.98 2.176.98 1.664-.327 2.177-.98.77-1.563.77-2.73c0-1.172-.26-2.08-.777-2.727s-1.246-.97-2.184-.97-1.66.322-2.168.966-.763 1.555-.763 2.73zM489.854 670.75c.36 0 .745.035 1.156.108l-.148.742c-.354-.09-.722-.133-1.102-.133-.724 0-1.317.308-1.78.922s-.696 1.39-.696 2.327v4.688h-.773v-8.492h.657l.078 1.53h.055c.35-.624.722-1.062 1.117-1.315s.874-.38 1.437-.38zM492.114 670.913h.797l1.798 4.766c.547 1.463.894 2.45 1.04 2.96h.046c.22-.672.575-1.675 1.07-3.008l1.797-4.72h.798l-3.805 9.868c-.308.802-.565 1.344-.773 1.625s-.452.492-.73.633-.616.21-1.012.21c-.297 0-.628-.054-.992-.163v-.672c.302.083.628.125.977.125.266 0 .5-.062.703-.188s.387-.32.55-.582.355-.68.57-1.25.356-.94.42-1.113l-3.252-8.492zM510.223 670.75c1.188 0 2.082.373 2.684 1.12s.902 1.84.902 3.277c0 1.41-.317 2.5-.95 3.266s-1.522 1.148-2.668 1.148c-.604 0-1.148-.124-1.633-.374s-.868-.604-1.15-1.062h-.07l-.218 1.28h-.484V667.25h.773v3.054c0 .458-.01.88-.03 1.266l-.023.664h.055c.323-.51.712-.886 1.168-1.125s1.002-.36 1.643-.36zm-.016.702c-1 0-1.716.286-2.148.86s-.65 1.518-.65 2.835v.133c0 1.28.227 2.2.677 2.758s1.152.836 2.105.836c.927 0 1.625-.324 2.094-.973s.703-1.57.703-2.77c-.002-2.45-.928-3.678-2.783-3.678zM517.632 670.913v5.5c0 .854.18 1.476.54 1.863s.916.582 1.67.582c1.012 0 1.755-.255 2.23-.766s.716-1.34.716-2.492v-4.688h.766v8.492h-.656l-.14-1.172h-.048c-.552.886-1.534 1.328-2.945 1.328-1.933 0-2.898-1.034-2.898-3.102v-5.547h.765zM530.307 670.75c.614 0 1.146.11 1.594.335s.85.606 1.204 1.148h.047c-.03-.656-.046-1.3-.046-1.93v-3.055h.766v12.156h-.508l-.195-1.297h-.062c-.646.97-1.573 1.453-2.78 1.453-1.173 0-2.068-.364-2.69-1.094s-.93-1.792-.93-3.188c0-1.47.31-2.59.923-3.367s1.507-1.16 2.68-1.16zm0 .702c-.927 0-1.624.325-2.09.977s-.7 1.596-.7 2.835c0 2.406.936 3.61 2.806 3.61.958 0 1.66-.28 2.11-.837s.67-1.477.67-2.758v-.133c0-1.312-.22-2.257-.66-2.832s-1.152-.863-2.136-.863zM544.146 670.913v.54l-1.758.108c.47.584.703 1.225.703 1.923 0 .817-.27 1.48-.815 1.988s-1.274.763-2.19.763c-.387 0-.657-.016-.813-.047-.308.16-.542.352-.703.57s-.243.45-.243.695c0 .272.103.47.31.595s.55.188 1.034.188h1.485c.922 0 1.628.187 2.117.56s.734.922.734 1.65c0 .897-.363 1.588-1.09 2.075s-1.762.73-3.105.73c-1.066 0-1.894-.206-2.48-.617s-.878-.983-.878-1.718c0-.583.18-1.067.543-1.453s.853-.65 1.473-.79c-.255-.11-.46-.265-.613-.465s-.23-.43-.23-.69c0-.568.362-1.068 1.086-1.5-.494-.204-.88-.523-1.155-.958s-.414-.934-.414-1.496c0-.848.27-1.53.81-2.042s1.267-.77 2.184-.77c.558 0 .99.055 1.297.164h2.716zm-6.875 9.93c0 1.167.868 1.75 2.603 1.75 2.23 0 3.344-.71 3.344-2.133 0-.51-.175-.88-.523-1.11s-.914-.343-1.695-.343h-1.392c-1.56 0-2.337.612-2.337 1.836zm.65-7.28c0 .655.198 1.164.597 1.526s.93.542 1.598.542c.708 0 1.25-.18 1.63-.54s.565-.88.565-1.56c0-.725-.194-1.268-.582-1.63s-.93-.543-1.63-.543c-.676 0-1.21.193-1.597.58s-.58.93-.58 1.622zM550.118 679.562c-1.234 0-2.196-.38-2.887-1.14s-1.034-1.826-1.034-3.196c0-1.354.333-2.438 1-3.254s1.565-1.223 2.695-1.223c1 0 1.79.348 2.368 1.046s.867 1.646.867 2.844v.625h-6.117c.01 1.167.282 2.058.816 2.672s1.298.922 2.293.922c.484 0 .91-.035 1.277-.103s.832-.214 1.395-.438v.702c-.48.208-.923.35-1.33.426s-.853.114-1.342.114zm-.226-8.125c-.817 0-1.474.27-1.97.81s-.783 1.315-.866 2.33h5.25c0-.983-.214-1.753-.64-2.308s-1.02-.833-1.774-.833zM558.512 678.874c.49 0 .917-.042 1.28-.125v.624c-.374.125-.807.188-1.296.188-.75 0-1.304-.2-1.66-.602s-.535-1.03-.535-1.89v-5.485h-1.257v-.453l1.258-.352.392-1.922h.398v2.055h2.492v.672h-2.492v5.375c0 .65.114 1.133.344 1.445s.588.47 1.078.47zM562.32 668.554c0-.5.163-.75.49-.75.162 0 .29.065.38.195s.137.314.137.554c0 .234-.046.42-.137.555s-.218.202-.38.202c-.327 0-.49-.253-.49-.758zm.882 10.85h-.773v-8.49h.772v8.49zM572.768 679.405v-5.508c0-.854-.18-1.476-.54-1.863s-.916-.582-1.67-.582c-1.017 0-1.76.257-2.23.77s-.708 1.345-.708 2.496v4.688h-.773v-8.492h.656l.148 1.164h.048c.552-.886 1.534-1.328 2.945-1.328 1.927 0 2.89 1.034 2.89 3.102v5.555h-.765zM583.708 670.913v.54l-1.758.108c.47.584.703 1.225.703 1.923 0 .817-.272 1.48-.816 1.988s-1.274.763-2.19.763c-.387 0-.657-.016-.813-.047-.308.16-.542.352-.703.57s-.24.45-.24.695c0 .272.102.47.308.595s.55.188 1.035.188h1.484c.922 0 1.628.187 2.117.56s.734.922.734 1.65c0 .897-.363 1.588-1.09 2.075s-1.762.73-3.105.73c-1.067 0-1.895-.206-2.48-.617s-.88-.983-.88-1.718c0-.583.182-1.067.544-1.453s.853-.65 1.473-.79c-.255-.11-.46-.265-.613-.465s-.23-.43-.23-.69c0-.568.362-1.068 1.086-1.5-.495-.204-.88-.523-1.156-.958s-.414-.934-.414-1.496c0-.848.27-1.53.81-2.042s1.266-.77 2.183-.77c.558 0 .99.055 1.297.164h2.715zm-6.875 9.93c0 1.167.867 1.75 2.602 1.75 2.23 0 3.344-.71 3.344-2.133 0-.51-.176-.88-.524-1.11s-.914-.343-1.695-.343h-1.39c-1.56 0-2.337.612-2.337 1.836zm.648-7.28c0 .655.2 1.164.6 1.526s.93.542 1.597.542c.708 0 1.25-.18 1.63-.54s.565-.88.565-1.56c0-.725-.194-1.268-.582-1.63s-.93-.543-1.63-.543c-.676 0-1.21.193-1.597.58s-.582.93-.582 1.622zM594.84 679.562c-1.308 0-2.26-.49-2.86-1.47h-.054l.023.657c.02.385.03.807.03 1.265v3.234h-.773v-12.337h.656l.148 1.21h.048c.583-.916 1.516-1.374 2.797-1.374 1.146 0 2.02.375 2.62 1.128s.903 1.848.903 3.285c0 1.396-.316 2.478-.95 3.246s-1.494 1.152-2.588 1.152zm-.016-.688c.87 0 1.543-.323 2.02-.97s.715-1.55.715-2.71c0-2.495-.902-3.742-2.704-3.742-.99 0-1.716.272-2.18.816s-.695 1.43-.695 2.66v.25c0 1.328.224 2.276.67 2.844s1.17.852 2.174.852zM604.874 670.75c.36 0 .745.035 1.156.108l-.148.742c-.354-.09-.722-.133-1.102-.133-.724 0-1.317.308-1.78.922s-.696 1.39-.696 2.327v4.688h-.773v-8.492h.657l.078 1.53h.055c.35-.624.722-1.062 1.117-1.315s.875-.38 1.437-.38zM615.58 675.147c0 1.386-.336 2.468-1.008 3.246s-1.6 1.168-2.78 1.168c-.746 0-1.402-.18-1.97-.538s-1.003-.875-1.305-1.547-.453-1.448-.453-2.328c0-1.386.336-2.465 1.008-3.238s1.594-1.16 2.766-1.16c1.167 0 2.082.39 2.746 1.175s.996 1.858.996 3.222zm-6.703 0c0 1.167.257 2.077.77 2.73s1.238.98 2.176.98 1.663-.327 2.176-.98.77-1.563.77-2.73c0-1.172-.26-2.08-.778-2.727s-1.246-.97-2.184-.97-1.66.322-2.168.966-.763 1.555-.763 2.73zM622.122 679.562c-1.214 0-2.164-.383-2.852-1.148s-1.03-1.833-1.03-3.203c0-1.405.355-2.5 1.07-3.284s1.69-1.176 2.93-1.176c.733 0 1.437.128 2.108.383l-.21.688c-.735-.244-1.373-.366-1.915-.366-1.042 0-1.83.32-2.367.965s-.805 1.568-.805 2.776c0 1.146.27 2.043.806 2.69s1.286.974 2.25.974c.77 0 1.487-.138 2.148-.414v.72c-.54.263-1.252.396-2.132.396zM630.563 679.562c-1.234 0-2.196-.38-2.887-1.14s-1.035-1.826-1.035-3.196c0-1.354.334-2.438 1-3.254s1.566-1.223 2.696-1.223c1 0 1.79.348 2.367 1.046s.867 1.646.867 2.844v.625h-6.117c.01 1.167.282 2.058.816 2.672s1.297.922 2.292.922c.484 0 .91-.035 1.277-.103s.83-.214 1.394-.438v.702c-.48.208-.922.35-1.328.426s-.853.114-1.343.114zm-.226-8.125c-.817 0-1.474.27-1.97.81s-.783 1.315-.866 2.33h5.25c0-.983-.213-1.753-.64-2.308s-1.018-.833-1.773-.833zM641.98 677.194c0 .76-.29 1.345-.867 1.754s-1.398.613-2.46.613c-1.137 0-2.037-.174-2.704-.522v-.836c.853.427 1.754.64 2.702.64.84 0 1.476-.14 1.91-.417s.652-.65.652-1.113c0-.427-.173-.786-.52-1.078s-.915-.578-1.707-.86c-.85-.307-1.445-.57-1.79-.792s-.602-.472-.776-.75-.26-.618-.26-1.02c0-.636.266-1.138.8-1.508s1.28-.555 2.238-.555c.917 0 1.786.17 2.61.515l-.29.703c-.833-.344-1.606-.516-2.32-.516-.692 0-1.242.114-1.648.344s-.61.547-.61.953c0 .44.158.796.474 1.06s.93.563 1.848.892c.766.276 1.323.524 1.672.746s.61.473.785.754.26.612.26.992zM650.233 677.194c0 .76-.29 1.345-.867 1.754s-1.398.613-2.46.613c-1.137 0-2.037-.174-2.704-.522v-.836c.854.427 1.755.64 2.703.64.84 0 1.476-.14 1.91-.417s.652-.65.652-1.113c0-.427-.173-.786-.52-1.078s-.915-.578-1.707-.86c-.85-.307-1.445-.57-1.79-.792s-.602-.472-.776-.75-.262-.618-.262-1.02c0-.636.267-1.138.8-1.508s1.28-.555 2.24-.555c.916 0 1.785.17 2.608.515l-.29.703c-.832-.344-1.605-.516-2.32-.516-.69 0-1.24.114-1.647.344s-.61.547-.61.953c0 .44.158.796.474 1.06s.93.563 1.848.892c.766.276 1.323.524 1.672.746s.61.473.785.754.26.612.26.992z"/><path fill="none" stroke="#424242" stroke-width="4" stroke-miterlimit="10" d="M430 708.94h29"/><g enable-background="new"><path fill="#D6D6D6" d="M623.93 303.97l-.21 4.284-38.79 13.422.206-4.284zM232.194 368.89l.208-4.284c.36-7.433 2.023-14.856 5.02-22.184 11.874-29.016 43.21-53.01 88.232-67.56 9.674-3.126 19.916-5.745 30.424-7.78 84.283-16.32 180.504 4.678 229.058 50.31l-.206 4.284c-48.557-45.633-144.777-66.63-229.06-50.31-10.507 2.035-20.75 4.653-30.423 7.778-45.02 14.55-76.358 38.545-88.23 67.562-2.998 7.327-4.662 14.75-5.023 22.185z"/><path fill="#EFEFEF" d="M249.82 418.838c-12.464-15.967-18.443-32.972-17.626-49.937l.208-4.283c-.707 14.66 3.66 29.35 12.903 43.374l-.05 1.064.05-1.063c4.628 7.022 10.478 13.877 17.522 20.478 54.1 50.69 161.895 74.21 256.326 55.92 11.77-2.278 23.217-5.202 34.048-8.7 65.58-21.19 102.38-59.647 104.32-100.51l-.206 4.285c-1.942 40.862-38.74 79.317-104.32 100.51-10.832 3.497-22.28 6.422-34.05 8.7-94.43 18.287-202.225-5.23-256.324-55.92-4.833-4.53-9.102-9.177-12.8-13.915-.213-.43-.44-.854-.66-1.28.22.426.447.85.66 1.28zm-.616-1.24l-.022-.043-.025-.045-.024-.05-.024-.046-.027-.05-.025-.05-.024-.05-.025-.048-.024-.048-.024-.048-.023-.045-.022-.045-.02-.042-.02-.04-.02-.04-.015-.034.016.035.017.037.02.04.02.043.022.045.022.045.024.048.023.048.024.05.024.048.025.05.026.05.023.047.024.05.025.045.022.044m-.396-.966v.025l.003.015.002.016.003.018.004.018v.018l.004.02.004.017.004.02.002.018.003.016v.017l.003.016v.025-.027l-.002-.015v-.016l-.004-.016-.002-.018-.004-.02-.004-.017-.003-.02v-.017l-.005-.018-.003-.017v-.015l-.004-.016V416.633m0-.003l-.1-.216-.103-.227-.105-.233-.11-.24-.11-.245-.113-.25-.114-.25-.114-.255-.114-.256-.113-.255-.113-.254-.112-.248-.108-.248-.11-.24-.103-.236-.1-.227.1.228.104.236.11.24.108.248.112.25.113.253.113.254.113.255.113.254.114.25.114.25.11.244.11.24.105.233.104.227.098.217m-1.745-3.874l-.075-.168-.085-.182-.093-.194-.1-.21-.106-.218-.113-.23-.115-.238-.122-.243-.124-.25-.13-.26-.13-.257-.13-.262-.132-.26-.132-.262-.13-.26-.13-.255.13.256.13.26.132.26.13.26.132.263.13.258.13.257.123.252.122.243.116.24.114.228.107.22.1.208.093.195.085.182.075.17"/><path fill="#D6D6D6" d="M658.727 375.38l-.208 4.282c-1.988 41.102-38.99 79.68-104.833 100.955-10.894 3.517-22.423 6.465-34.258 8.757-95.02 18.4-203.482-5.267-257.908-56.267-21.258-19.92-31.7-42.132-30.63-64.28l.208-4.283c-1.07 22.147 9.373 44.36 30.63 64.28 54.425 51 162.89 74.666 257.907 56.265 11.834-2.293 23.363-5.24 34.256-8.757 65.843-21.274 102.844-59.854 104.834-100.954zM624.322 302.95c66.066 61.91 34.31 139.54-70.43 173.383-10.893 3.518-22.422 6.464-34.256 8.756-95.02 18.4-203.482-5.267-257.906-56.267-28.44-26.648-37.526-57.403-25.575-86.612 11.943-29.2 43.494-53.35 88.812-67.995 9.744-3.145 20.045-5.783 30.63-7.832 84.663-16.396 181.296 4.61 230.04 49.947l38.685-13.38zm-71.12 172.738c103.943-33.59 135.585-110.548 70.727-171.72l-38.794 13.423c-48.554-45.63-144.774-66.63-229.058-50.31-10.508 2.036-20.75 4.655-30.424 7.78-45.02 14.55-76.358 38.545-88.232 67.56-11.864 29.017-2.85 59.576 25.406 86.047 54.1 50.69 161.895 74.21 256.326 55.92 11.77-2.278 23.217-5.2 34.048-8.7"/><path fill="#D6D6D6" d="M657.52 375.24l-.207 4.284c1.157-23.923-9.633-48.675-33.592-71.27l.21-4.286c23.957 22.598 34.748 47.35 33.59 71.272z"/><path fill="#fff" d="M356.078 267.082c84.283-16.322 180.504 4.678 228.76 49.875l39.09-12.988c64.857 61.17 33.218 138.13-70.726 171.718-10.83 3.498-22.278 6.422-34.048 8.7-94.432 18.29-202.226-5.23-256.326-55.92-28.255-26.47-37.27-57.03-25.407-86.046 11.876-29.017 43.213-53.01 88.236-67.56 9.672-3.126 19.914-5.745 30.422-7.78z"/></g><path fill-rule="evenodd" clip-rule="evenodd" fill="#fff" stroke="#D6D6D6" stroke-miterlimit="10" d="M569.5 140.255c0 6.313-5.392 12.185-12.15 12.185H324.826c-6.758 0-12.326-5.87-12.326-12.185V90.723c0-6.312 5.568-10.283 12.326-10.283H557.35c6.76 0 12.15 3.97 12.15 10.283v49.532z"/><path fill="#4F4E4E" d="M354.37 123.46c-1.114 0-2.204-.206-3.23-.61-1.135-.45-2.148-1.118-3.016-1.99-1.646-1.656-2.55-3.857-2.55-6.195 0-2.586 1.13-5.03 3.1-6.705 2.49-2.115 6.125-2.664 9.116-1.4 3.266 1.382 5.373 4.562 5.373 8.105 0 1.134-.213 2.238-.63 3.28-1.347 3.348-4.55 5.514-8.164 5.514zm0-12.644c-.928 0-1.788.316-2.49.912-.864.734-1.358 1.804-1.358 2.936 0 1.023.395 1.986 1.112 2.71.384.384.826.677 1.32.872.45.178.925.266 1.415.266 1.58 0 2.983-.947 3.57-2.414.185-.455.275-.938.275-1.434 0-1.55-.92-2.943-2.35-3.55-.47-.197-.972-.298-1.496-.298z"/><g fill="#4F4E4E"><path d="M366.826 108.557c.69-.146 1.777-.256 2.883-.256 1.577 0 2.596.274 3.356.89.637.473 1.018 1.2 1.018 2.16 0 1.18-.78 2.213-2.07 2.686v.036c1.162.29 2.522 1.253 2.522 3.066 0 1.052-.416 1.85-1.033 2.45-.852.78-2.23 1.143-4.228 1.143-1.09 0-1.922-.07-2.448-.145v-12.028zm1.58 5.005h1.43c1.67 0 2.65-.87 2.65-2.05 0-1.434-1.09-1.995-2.686-1.995-.727 0-1.143.054-1.395.108v3.937zm0 5.862c.305.054.76.073 1.322.073 1.633 0 3.14-.6 3.14-2.377 0-1.67-1.437-2.36-3.16-2.36h-1.302v4.664zM380.05 108.393v7.24c0 2.738 1.218 3.9 2.85 3.9 1.813 0 2.976-1.197 2.976-3.9v-7.24h1.596v7.13c0 3.756-1.98 5.3-4.625 5.3-2.505 0-4.39-1.435-4.39-5.227v-7.203h1.592zM392.023 108.557c.96-.146 2.105-.256 3.357-.256 2.267 0 3.882.528 4.95 1.526 1.09.998 1.726 2.414 1.726 4.39 0 1.996-.616 3.63-1.76 4.755-1.144 1.145-3.03 1.76-5.406 1.76-1.128 0-2.07-.054-2.867-.145v-12.028zm1.58 10.814c.4.072.978.09 1.597.09 3.373 0 5.206-1.888 5.206-5.188.02-2.885-1.613-4.718-4.952-4.718-.817 0-1.433.072-1.85.163v9.654zM415.225 120.077c-.703.255-2.102.673-3.754.673-1.85 0-3.372-.474-4.57-1.617-1.053-1.016-1.704-2.648-1.704-4.553.018-3.648 2.52-6.314 6.622-6.314 1.415 0 2.52.31 3.046.562l-.38 1.287c-.652-.29-1.468-.525-2.704-.525-2.975 0-4.916 1.85-4.916 4.917 0 3.103 1.868 4.936 4.717 4.936 1.036 0 1.745-.146 2.105-.327v-3.646H411.2v-1.27h4.025v5.877zM425.785 114.887h-4.754v4.41h5.3v1.324h-6.88v-12.228h6.606v1.324h-5.025v3.865h4.755v1.307zM432.496 109.735h-3.72v-1.343h9.053v1.343h-3.736v10.886h-1.598v-10.885z"/></g><path fill="#4F4E4E" d="M340.352 123.186c-2.675 0-5.238-1.223-6.94-3.42-.68-.88-1.18-1.863-1.487-2.924-.344-1.18-.434-2.393-.273-3.607.303-2.318 1.492-4.38 3.344-5.81 2.043-1.58 4.668-2.18 7.2-1.646l-1.024 4.84c-1.11-.237-2.258.027-3.152.72-.81.625-1.328 1.526-1.46 2.54-.072.536-.03 1.065.116 1.58.135.46.354.892.654 1.277.968 1.253 2.577 1.78 4.096 1.35l1.352 4.76c-.807.227-1.623.34-2.426.34zM341.428 115.753c-.756.583-1.842.444-2.427-.312-.582-.755-.443-1.84.313-2.425.755-.584 1.842-.446 2.427.31.584.757.445 1.843-.312 2.428"/><path fill="#4F4E4E" d="M354.35 123.466c-2.676 0-5.24-1.224-6.94-3.423-.677-.873-1.177-1.857-1.488-2.92-.34-1.18-.43-2.39-.274-3.608.307-2.316 1.492-4.38 3.346-5.81 2.044-1.582 4.674-2.183 7.2-1.645l-1.022 4.84c-1.115-.236-2.26.028-3.154.72-.81.625-1.33 1.526-1.463 2.54-.072.537-.03 1.067.12 1.58.133.46.354.893.65 1.275.97 1.255 2.58 1.785 4.097 1.35l1.353 4.762c-.808.228-1.622.34-2.425.34zM355.426 116.033c-.754.582-1.842.444-2.424-.31-.586-.757-.45-1.843.31-2.43.756-.583 1.842-.444 2.425.313.587.755.445 1.843-.31 2.427"/><path fill="#4F4E4E" d="M340.372 123.18c-1.106 0-2.192-.205-3.22-.61-1.142-.446-2.153-1.115-3.02-1.983l3.502-3.495c.385.386.828.68 1.326.875.95.374 2.025.353 2.95-.055l1.986 4.532c-1.114.49-2.3.737-3.524.737zM334.13 120.582c-1.647-1.66-2.556-3.86-2.556-6.197 0-2.585 1.13-5.03 3.102-6.705 2.492-2.117 6.125-2.666 9.12-1.4l-1.926 4.557c-1.302-.55-2.897-.313-3.988.613-.864.734-1.36 1.805-1.36 2.936 0 1.02.396 1.984 1.117 2.708l-3.51 3.488z"/><path fill="#80529B" d="M509.958 96.686l-29.24-31.356c8.14-7.59 18.11-11.52 29.24-11.52v42.876z"/><path fill="#00ACD0" d="M509.958 96.686l-40.54 13.96c-5.665-16.456-1.43-33.446 11.3-45.316l29.24 31.356z"/><path fill="#00D096" d="M509.958 96.686l-3.736 42.713c-17.34-1.52-31.137-12.3-36.803-28.755l40.538-13.96z"/><path fill="#404040" d="M509.958 96.686l16.062 39.754c-6.455 2.607-12.863 3.564-19.798 2.96l3.736-42.714z"/><path fill-rule="evenodd" clip-rule="evenodd" fill="#E95A78" d="M509.958 96.686l37.5 20.787c-5.063 9.133-11.757 15.055-21.44 18.967l-16.06-39.754z"/><path fill-rule="evenodd" clip-rule="evenodd" fill="#FFA800" d="M509.958 96.686l33.786-26.396c10.715 13.715 12.15 31.96 3.713 47.184l-37.5-20.788z"/><path fill-rule="evenodd" clip-rule="evenodd" fill="#C2C2C4" d="M509.958 96.686V53.81c13.924 0 25.214 5.51 33.786 16.48l-33.786 26.396z"/><circle fill-rule="evenodd" clip-rule="evenodd" fill="#fff" cx="511.579" cy="96.686" r="24"/><path d="M529.23 96.353c0 9.48-7.69 17.167-17.17 17.167s-17.166-7.686-17.166-17.167 7.688-17.167 17.166-17.167c9.48 0 17.17 7.685 17.17 17.167z"/><path fill-rule="evenodd" clip-rule="evenodd" fill="#fff" d="M511.19 89.035v-1.15h1.675v1.123c.395.1.77.172 1.134.293 1.36.456 2.152 1.5 2.228 2.93.02.384.003.767.003 1.16h-3.677c0-.172.008-.342 0-.51-.02-.384-.027-.768-.072-1.147-.04-.328-.196-.46-.51-.496-.302-.033-.552.094-.645.383-.184.562-.166 1.128.104 1.66.077.15.22.283.36.378.736.49 1.482.963 2.225 1.444.346.225.686.455 1.027.683.742.496 1.187 1.204 1.408 2.05.288 1.094.277 2.2-.037 3.287-.396 1.372-1.352 2.183-2.703 2.556-.268.073-.54.122-.832.188v1.347H511.2v-1.39c-.25-.05-.485-.082-.715-.145-.9-.24-1.68-.682-2.24-1.44-.348-.47-.503-1.02-.605-1.587-.123-.69-.117-1.388-.107-2.102h3.652c.002.058.008.118.008.18l.042 2.097c.003.096.02.19.032.285.048.303.178.45.438.5.308.06.598-.043.725-.285.072-.143.133-.31.14-.47.032-.59.008-1.182-.1-1.768-.062-.337-.242-.604-.497-.815-.23-.19-.473-.367-.72-.534-.694-.472-1.414-.917-2.096-1.41-.9-.65-1.394-1.57-1.597-2.645-.15-.786-.127-1.575.135-2.34.36-1.046 1.127-1.67 2.148-2.004.363-.12.744-.18 1.117-.266.07-.016.145-.024.23-.04z"/><ellipse fill-rule="evenodd" clip-rule="evenodd" fill="#EAEAEA" cx="384.482" cy="396.218" rx="11.917" ry="3.968"/><g fill-rule="evenodd" clip-rule="evenodd" fill="#C2C2C4"><path d="M377.522 358.965c4.91 3.547 8.437 3.547 14.126 0 2.186 2.77 2.934 5.898 3.496 9.317.215 1.306.58 4.374.516 5.697-.152 3.13-.81 3.23-1.635 3.797-.353.24-.52.83-.584 1.283-.53 3.742-1.27 7.48-1.456 11.24-.282 5.703-6.55 7.584-10.357 6.02-2.607-1.07-4.195-2.882-4.498-5.83-.392-3.807-.962-7.598-1.527-11.385-.084-.566-.052-1.377-.853-1.61 0 0-1.56-.638-1.56-3.354-.08-4.915.716-9.688 3.356-13.984.18-.293.8-1.037.976-1.19zM392.81 351.377c-.072 4.5-3.867 8.197-8.376 8.16-4.55-.035-8.233-3.86-8.182-8.497.05-4.52 3.805-8.158 8.37-8.114 4.614.043 8.26 3.81 8.187 8.45z"/></g><g opacity=".35"><ellipse fill-rule="evenodd" clip-rule="evenodd" fill="#EAEAEA" cx="242.35" cy="482.033" rx="13.131" ry="4.372"/><g fill-rule="evenodd" clip-rule="evenodd" fill="#C2C2C4"><path d="M234.68 440.982c5.413 3.91 9.297 3.91 15.568.002 2.406 3.052 3.232 6.498 3.85 10.266.238 1.44.64 4.82.567 6.277-.166 3.45-.89 3.562-1.8 4.186-.39.266-.57.915-.644 1.415-.584 4.123-1.397 8.24-1.603 12.386-.312 6.283-7.217 8.355-11.415 6.632-2.872-1.18-4.62-3.176-4.956-6.423-.43-4.195-1.058-8.372-1.68-12.545-.093-.624-.058-1.518-.94-1.775 0 0-1.72-.702-1.72-3.695-.088-5.417.79-10.68 3.7-15.412.196-.322.877-1.143 1.075-1.314zM251.523 432.623c-.077 4.956-4.26 9.032-9.226 8.992-5.017-.04-9.074-4.254-9.017-9.365.054-4.98 4.19-8.99 9.225-8.94 5.083.048 9.1 4.198 9.018 9.313z"/></g></g><g opacity=".35"><ellipse fill-rule="evenodd" clip-rule="evenodd" fill="#EAEAEA" cx="643.432" cy="488.813" rx="13.13" ry="4.372"/><g fill-rule="evenodd" clip-rule="evenodd" fill="#C2C2C4"><path d="M635.763 447.764c5.412 3.908 9.297 3.908 15.565 0 2.408 3.052 3.235 6.5 3.854 10.267.236 1.44.64 4.82.568 6.28-.168 3.45-.893 3.56-1.803 4.185-.388.265-.573.914-.644 1.413-.583 4.124-1.397 8.24-1.603 12.386-.312 6.285-7.22 8.357-11.417 6.634-2.872-1.18-4.62-3.176-4.954-6.423-.433-4.196-1.06-8.374-1.683-12.547-.094-.624-.058-1.517-.94-1.774 0 0-1.718-.702-1.72-3.696-.086-5.417.79-10.677 3.698-15.41.2-.324.882-1.144 1.078-1.314zM652.606 439.402c-.077 4.958-4.26 9.033-9.226 8.993-5.018-.04-9.074-4.253-9.02-9.364.057-4.978 4.193-8.988 9.227-8.94 5.084.048 9.1 4.198 9.02 9.312z"/></g></g><g fill-rule="evenodd" clip-rule="evenodd" fill="#F2F2F2"><path d="M515.35 513.97c.378-.773.623-1.658.674-2.67.187-3.76.925-7.497 1.455-11.24.063-.452.23-1.042.583-1.282.827-.566 1.483-.667 1.635-3.798.064-1.323-.3-4.392-.516-5.697-.562-3.42-1.31-6.548-3.496-9.317-5.69 3.547-9.214 3.547-14.125 0-.18.154-.797.898-.977 1.19-2.64 4.296-3.436 9.07-3.356 13.985 0 2.718 1.56 3.355 1.56 3.355.802.233.77 1.044.855 1.61.565 3.787 1.134 7.578 1.525 11.386.096.927.332 1.73.672 2.442-3.16.714-5.236 1.918-5.236 3.285 0 2.192 5.337 3.968 11.917 3.968 6.582 0 11.917-1.775 11.917-3.968 0-1.344-2.015-2.53-5.088-3.248zM508.473 480.538c4.508.036 8.303-3.662 8.373-8.16.073-4.643-3.572-8.41-8.185-8.452-4.566-.044-8.32 3.596-8.37 8.114-.052 4.638 3.63 8.462 8.183 8.498zM458.906 535.233c.418-.852.688-1.826.743-2.94.206-4.145 1.02-8.262 1.605-12.386.07-.5.254-1.148.643-1.413.91-.624 1.634-.735 1.8-4.186.07-1.458-.33-4.84-.567-6.278-.616-3.767-1.442-7.215-3.85-10.267-6.27 3.908-10.154 3.908-15.565 0-.197.17-.88.99-1.078 1.312-2.908 4.733-3.785 9.993-3.697 15.41 0 2.994 1.72 3.696 1.72 3.696.882.26.847 1.15.94 1.775.62 4.173 1.25 8.35 1.68 12.547.105 1.02.365 1.903.74 2.69-3.48.785-5.768 2.113-5.768 3.62 0 2.414 5.878 4.37 13.13 4.37 7.252 0 13.13-1.956 13.13-4.37 0-1.48-2.22-2.788-5.606-3.58zM451.33 498.396c4.968.04 9.147-4.035 9.23-8.993.08-5.114-3.94-9.265-9.022-9.312-5.033-.047-9.17 3.964-9.224 8.942-.056 5.11 3.998 9.324 9.016 9.364z"/></g><g opacity=".35"><ellipse fill-rule="evenodd" clip-rule="evenodd" fill="#EAEAEA" cx="508.519" cy="517.218" rx="11.917" ry="3.968"/><g fill-rule="evenodd" clip-rule="evenodd" fill="#C2C2C4"><path d="M501.56 479.965c4.912 3.547 8.437 3.547 14.126 0 2.186 2.77 2.934 5.898 3.496 9.317.215 1.306.58 4.374.516 5.697-.15 3.13-.808 3.23-1.635 3.797-.352.24-.52.83-.584 1.283-.53 3.742-1.27 7.48-1.456 11.24-.283 5.703-6.55 7.584-10.36 6.02-2.606-1.07-4.193-2.882-4.497-5.83-.392-3.807-.96-7.598-1.525-11.385-.085-.566-.053-1.377-.854-1.61 0 0-1.56-.638-1.56-3.354-.08-4.915.717-9.688 3.355-13.984.18-.293.798-1.037.978-1.19zM516.846 472.377c-.07 4.5-3.865 8.197-8.373 8.16-4.553-.035-8.234-3.86-8.184-8.497.05-4.52 3.804-8.158 8.37-8.114 4.613.043 8.26 3.81 8.186 8.45z"/></g></g><g opacity=".35"><ellipse fill-rule="evenodd" clip-rule="evenodd" fill="#EAEAEA" cx="451.382" cy="538.813" rx="13.13" ry="4.372"/><g fill-rule="evenodd" clip-rule="evenodd" fill="#C2C2C4"><path d="M443.715 497.764c5.41 3.908 9.295 3.908 15.564 0 2.407 3.052 3.233 6.5 3.85 10.267.24 1.44.64 4.82.57 6.28-.168 3.45-.89 3.56-1.802 4.185-.39.265-.572.914-.643 1.413-.587 4.124-1.4 8.24-1.606 12.386-.312 6.285-7.218 8.357-11.415 6.634-2.874-1.18-4.62-3.176-4.956-6.423-.432-4.196-1.06-8.374-1.682-12.547-.093-.624-.058-1.517-.94-1.774 0 0-1.72-.702-1.72-3.696-.087-5.417.79-10.677 3.698-15.41.198-.324.882-1.144 1.08-1.314zM460.56 489.402c-.082 4.958-4.262 9.033-9.23 8.993-5.018-.04-9.072-4.253-9.016-9.364.053-4.978 4.19-8.988 9.224-8.94 5.083.048 9.1 4.198 9.02 9.312z"/></g></g><g opacity=".35"><ellipse fill-rule="evenodd" clip-rule="evenodd" fill="#EAEAEA" cx="292.397" cy="251.026" rx="9.488" ry="3.159"/><g fill-rule="evenodd" clip-rule="evenodd" fill="#C2C2C4"><path d="M286.857 221.366c3.91 2.825 6.716 2.825 11.246 0 1.74 2.206 2.335 4.696 2.783 7.42.17 1.038.462 3.48.41 4.534-.12 2.493-.643 2.573-1.302 3.023-.28.19-.413.662-.465 1.023-.423 2.98-1.01 5.953-1.16 8.948-.225 4.54-5.215 6.038-8.247 4.792-2.076-.852-3.34-2.294-3.58-4.64-.313-3.032-.766-6.05-1.216-9.065-.067-.45-.042-1.096-.68-1.28 0 0-1.24-.51-1.242-2.672-.062-3.914.57-7.715 2.672-11.135.145-.23.637-.825.78-.947zM299.026 215.325c-.056 3.582-3.077 6.526-6.666 6.497-3.625-.027-6.556-3.072-6.516-6.766.04-3.598 3.03-6.495 6.665-6.46 3.673.035 6.575 3.033 6.516 6.73z"/></g></g><g opacity=".35"><ellipse fill-rule="evenodd" clip-rule="evenodd" fill="#EAEAEA" cx="484.629" cy="258.026" rx="9.487" ry="3.159"/><g fill-rule="evenodd" clip-rule="evenodd" fill="#C2C2C4"><path d="M479.09 228.366c3.908 2.825 6.714 2.825 11.246 0 1.74 2.206 2.335 4.696 2.783 7.42.17 1.038.46 3.48.408 4.534-.12 2.493-.643 2.573-1.3 3.023-.282.19-.414.662-.467 1.023-.42 2.98-1.008 5.953-1.157 8.948-.226 4.54-5.216 6.038-8.248 4.792-2.076-.852-3.34-2.294-3.58-4.64-.312-3.032-.766-6.05-1.216-9.065-.067-.45-.042-1.096-.682-1.28 0 0-1.24-.51-1.24-2.672-.064-3.914.57-7.715 2.672-11.135.142-.23.636-.825.78-.947zM491.258 222.325c-.056 3.582-3.077 6.526-6.666 6.497-3.625-.027-6.555-3.072-6.516-6.766.04-3.598 3.028-6.495 6.666-6.46 3.67.035 6.575 3.033 6.516 6.73z"/></g></g><g opacity=".35"><ellipse fill-rule="evenodd" clip-rule="evenodd" fill="#EAEAEA" cx="238.379" cy="300.026" rx="9.487" ry="3.159"/><g fill-rule="evenodd" clip-rule="evenodd" fill="#C2C2C4"><path d="M232.84 270.366c3.908 2.825 6.715 2.825 11.245 0 1.74 2.206 2.337 4.696 2.782 7.42.172 1.038.463 3.48.41 4.534-.12 2.493-.643 2.573-1.3 3.023-.28.19-.413.662-.465 1.023-.423 2.98-1.01 5.953-1.16 8.948-.225 4.54-5.214 6.038-8.248 4.792-2.075-.852-3.34-2.294-3.58-4.64-.312-3.032-.766-6.05-1.215-9.065-.068-.45-.042-1.096-.68-1.28 0 0-1.242-.51-1.242-2.672-.064-3.914.57-7.715 2.672-11.135.143-.23.635-.825.78-.947zM245.01 264.325c-.06 3.582-3.08 6.526-6.668 6.497-3.626-.027-6.556-3.072-6.516-6.766.04-3.598 3.03-6.495 6.666-6.46 3.672.035 6.575 3.033 6.517 6.73z"/></g></g><ellipse fill-rule="evenodd" clip-rule="evenodd" fill="#EAEAEA" cx="327.519" cy="360.218" rx="11.917" ry="3.968"/><g fill-rule="evenodd" clip-rule="evenodd" fill="#C2C2C4"><path d="M320.56 322.965c4.912 3.547 8.437 3.547 14.126 0 2.186 2.77 2.934 5.898 3.496 9.317.215 1.306.58 4.374.516 5.697-.15 3.13-.808 3.23-1.635 3.797-.352.24-.52.83-.584 1.283-.53 3.742-1.27 7.48-1.456 11.24-.283 5.703-6.55 7.584-10.36 6.02-2.606-1.07-4.193-2.882-4.497-5.83-.392-3.807-.96-7.598-1.525-11.385-.085-.566-.053-1.377-.854-1.61 0 0-1.56-.638-1.56-3.354-.08-4.915.717-9.688 3.355-13.984.18-.293.798-1.037.978-1.19zM335.846 315.377c-.07 4.5-3.865 8.197-8.373 8.16-4.553-.035-8.234-3.86-8.184-8.497.05-4.52 3.804-8.158 8.37-8.114 4.613.043 8.26 3.81 8.186 8.45z"/></g><g opacity=".7"><ellipse fill-rule="evenodd" clip-rule="evenodd" fill="#FFA800" cx="327.519" cy="360.218" rx="11.917" ry="3.968"/><g fill-rule="evenodd" clip-rule="evenodd" fill="#FFA800"><path d="M320.56 322.965c4.912 3.547 8.437 3.547 14.126 0 2.186 2.77 2.934 5.898 3.496 9.317.215 1.306.58 4.374.516 5.697-.15 3.13-.808 3.23-1.635 3.797-.352.24-.52.83-.584 1.283-.53 3.742-1.27 7.48-1.456 11.24-.283 5.703-6.55 7.584-10.36 6.02-2.606-1.07-4.193-2.882-4.497-5.83-.392-3.807-.96-7.598-1.525-11.385-.085-.566-.053-1.377-.854-1.61 0 0-1.56-.638-1.56-3.354-.08-4.915.717-9.688 3.355-13.984.18-.293.798-1.037.978-1.19zM335.846 315.377c-.07 4.5-3.865 8.197-8.373 8.16-4.553-.035-8.234-3.86-8.184-8.497.05-4.52 3.804-8.158 8.37-8.114 4.613.043 8.26 3.81 8.186 8.45z"/></g></g><path fill-rule="evenodd" clip-rule="evenodd" fill="none" d="M296.578 281.686"/><ellipse fill-rule="evenodd" clip-rule="evenodd" fill="#EAEAEA" cx="433.08" cy="435.813" rx="13.131" ry="4.372"/><g fill-rule="evenodd" clip-rule="evenodd" fill="#80529B"><path d="M425.412 394.764c5.41 3.908 9.296 3.908 15.565 0 2.408 3.052 3.232 6.5 3.85 10.267.24 1.44.642 4.82.57 6.28-.167 3.45-.89 3.56-1.802 4.185-.388.265-.573.914-.644 1.413-.583 4.124-1.396 8.24-1.602 12.386-.312 6.285-7.22 8.357-11.416 6.634-2.873-1.18-4.62-3.176-4.956-6.423-.432-4.196-1.058-8.374-1.68-12.547-.095-.624-.06-1.517-.94-1.774 0 0-1.72-.702-1.72-3.696-.088-5.417.79-10.677 3.698-15.41.2-.324.88-1.144 1.078-1.314zM442.255 386.402c-.077 4.958-4.26 9.033-9.226 8.993-5.02-.04-9.075-4.253-9.02-9.364.056-4.978 4.192-8.988 9.226-8.94 5.083.048 9.1 4.198 9.02 9.312z"/></g><g transform="matrix(.995 .097 -.097 .995 34.635 -63.356)"><ellipse fill="#EAEAEA" cx="670.077" cy="325.167" rx="19.53" ry="11.918"/><ellipse fill="none" stroke="#000" stroke-width="2" stroke-miterlimit="10" stroke-dasharray="3.9304,1.9652" cx="670.077" cy="325.167" rx="19.53" ry="11.918"/></g><g transform="matrix(.986 -.168 .168 .986 -65.982 89.785)"><ellipse fill="#EAEAEA" cx="498.078" cy="435.167" rx="23.407" ry="14.284"/><ellipse fill="none" stroke="#000" stroke-width="2" stroke-miterlimit="10" stroke-dasharray="4.004,2.002" cx="498.078" cy="435.167" rx="23.407" ry="14.284"/></g><g opacity=".35"><ellipse fill-rule="evenodd" clip-rule="evenodd" fill="#EAEAEA" cx="200.482" cy="358.218" rx="11.917" ry="3.968"/><g fill-rule="evenodd" clip-rule="evenodd" fill="#C2C2C4"><path d="M193.522 320.965c4.91 3.547 8.437 3.547 14.126 0 2.186 2.77 2.934 5.898 3.496 9.317.215 1.306.58 4.374.516 5.697-.152 3.13-.81 3.23-1.635 3.797-.353.24-.52.83-.584 1.283-.53 3.742-1.27 7.48-1.456 11.24-.282 5.703-6.55 7.584-10.357 6.02-2.607-1.07-4.195-2.882-4.498-5.83-.392-3.807-.962-7.598-1.527-11.385-.084-.566-.052-1.377-.853-1.61 0 0-1.56-.638-1.56-3.354-.08-4.915.716-9.688 3.356-13.984.18-.293.8-1.037.976-1.19zM208.81 313.377c-.072 4.5-3.867 8.197-8.376 8.16-4.55-.035-8.233-3.86-8.182-8.497.05-4.52 3.805-8.158 8.37-8.114 4.614.043 8.26 3.81 8.187 8.45z"/></g></g><ellipse fill-rule="evenodd" clip-rule="evenodd" fill="#EAEAEA" cx="339.379" cy="281.026" rx="9.487" ry="3.159"/><g fill-rule="evenodd" clip-rule="evenodd" fill="#C2C2C4"><path d="M333.84 251.366c3.908 2.825 6.715 2.825 11.245 0 1.74 2.206 2.337 4.696 2.782 7.42.172 1.038.463 3.48.41 4.534-.12 2.493-.643 2.573-1.3 3.023-.28.19-.413.662-.465 1.023-.423 2.98-1.01 5.953-1.16 8.948-.225 4.54-5.214 6.038-8.248 4.792-2.075-.852-3.34-2.294-3.58-4.64-.312-3.032-.766-6.05-1.215-9.065-.068-.45-.042-1.096-.68-1.28 0 0-1.242-.51-1.242-2.672-.064-3.914.57-7.715 2.672-11.135.143-.23.635-.825.78-.947zM346.01 245.325c-.06 3.582-3.08 6.526-6.668 6.497-3.626-.027-6.556-3.072-6.516-6.766.04-3.598 3.03-6.495 6.666-6.46 3.672.035 6.575 3.033 6.517 6.73z"/></g><path d="M650.465 292.767l.073-1.998 2.875.085-.05 2zM650.6 288.81l.095-3.956 2.8.05-.044 3.955zM650.727 282.898l.033-3.957 2.727.007.017 3.956zM650.76 276.986l-.032-3.957 2.653-.04.082 3.957zM650.695 271.074l-.098-3.955 2.577-.082.148 3.953zM650.53 265.164l-.17-3.952 2.502-.123.22 3.95zM650.26 259.26l-.24-3.95 2.423-.164.29 3.946zM649.88 253.36l-.316-3.944 2.347-.204.367 3.94zM649.39 247.47l-.397-3.938 2.27-.242.443 3.932zM648.778 241.59l-.475-3.93 2.19-.278.524 3.922zM648.047 235.724l-.56-3.917 2.11-.315.608 3.908zM647.188 229.875l-.647-3.903 2.03-.35.696 3.896zM646.2 224.048l-.738-3.888 1.946-.382.787 3.878zM645.074 218.245l-.83-3.868 1.863-.413.88 3.857zM643.81 212.472l-.93-3.847 1.782-.44.976 3.833zM642.398 206.73l-1.028-3.82 1.696-.468 1.077 3.808zM640.837 201.03l-1.132-3.79 1.613-.493 1.18 3.776zM639.12 195.374l-1.237-3.758 1.528-.513 1.285 3.742zM637.245 189.77l-1.347-3.722 1.443-.532 1.394 3.703zM635.206 184.22l-1.46-3.678 1.358-.548 1.504 3.66zM632.998 178.735l-1.572-3.63 1.27-.56 1.618 3.61zM630.62 173.323l-1.69-3.578 1.184-.568 1.735 3.555zM628.064 167.99l-1.808-3.518 1.1-.575 1.852 3.497zM625.332 162.746l-1.93-3.454 1.015-.574 1.973 3.43zM622.42 157.6l-2.052-3.383.93-.572 2.093 3.357zM619.322 152.56l-2.173-3.306.846-.565 2.214 3.28zM616.043 147.637l-2.296-3.223.765-.552 2.336 3.194zM612.58 142.84l-2.42-3.132.685-.535 2.458 3.1zM608.933 138.18l-2.54-3.034.605-.513 2.578 3zM605.104 133.666l-2.66-2.93.53-.486 2.695 2.896zM601.094 129.31l-2.78-2.816.457-.456 2.815 2.782zM596.906 125.124l-2.894-2.698.386-.42 2.928 2.662zM592.545 121.116l-3.008-2.57.32-.38 3.04 2.533zM588.014 117.3l-3.12-2.436.258-.334 3.15 2.397zM583.316 113.688l-3.226-2.293.2-.285 3.254 2.252zM578.458 110.29l-3.33-2.138.145-.23 3.358 2.097zM573.442 107.127l-3.433-1.972.096-.173 3.458 1.93zM568.27 104.217l-3.53-1.783.055-.112 3.555 1.74zM562.95 101.595l-3.638-1.56.02-.047 3.657 1.515zM557.468 99.327l-1.89-.64 1.898.617zM656.844 289.265l-4.953 1.915-4.817-2.237 4.505 11.743zM391.498 260.003l.295-1.98 2.814.397-.263 1.983zM392.1 256.032l.634-3.946 2.715.414-.573 3.957zM393.07 250.095l.692-3.938 2.614.44-.63 3.947zM394.127 244.172l.752-3.926 2.512.46-.69 3.94zM395.273 238.267l.813-3.914 2.412.48-.75 3.927zM396.513 232.38l.876-3.9 2.308.5-.813 3.913zM397.848 226.513l.94-3.885 2.208.516-.88 3.9zM399.28 220.67l1.008-3.868 2.106.53-.947 3.885zM400.814 214.854l1.077-3.85 2.005.543-1.016 3.866zM402.452 209.065l1.15-3.83 1.9.555-1.087 3.847zM404.2 203.31l1.22-3.808 1.8.562-1.16 3.826zM406.057 197.588l1.297-3.78 1.696.565-1.238 3.802zM408.028 191.905l1.376-3.754 1.594.572-1.315 3.775zM410.12 186.266l1.455-3.723 1.49.57-1.395 3.745zM412.33 180.673l1.54-3.69 1.39.568-1.48 3.714zM414.668 175.132l1.626-3.653 1.288.56-1.566 3.68zM417.136 169.648l1.714-3.612 1.187.552-1.656 3.64zM419.736 164.227l1.805-3.568 1.09.538-1.75 3.596zM422.475 158.873l1.898-3.518.988.523-1.84 3.55zM425.354 153.596l1.996-3.464.89.503-1.94 3.496zM428.38 148.4l2.095-3.404.793.48-2.04 3.438zM431.556 143.298l2.198-3.34.697.45-2.143 3.376zM434.886 138.296l2.304-3.27.604.42-2.252 3.304zM438.377 133.404l2.413-3.188.513.382-2.364 3.225zM442.032 128.635l2.527-3.1.422.34-2.477 3.14zM445.857 124.003l2.646-3 .338.293-2.596 3.042zM449.86 119.524l2.77-2.887.256.24-2.723 2.932zM454.05 115.22l2.9-2.76.18.185-2.857 2.804zM458.438 111.116l3.04-2.6.103.12-2.995 2.65zM463.038 107.26l3.203-2.4.04.052-3.165 2.45zM467.883 103.738l1.695-1.052-1.68 1.08zM398.296 257.185l-5.12 1.408-4.57-2.708 3.305 12.135z"/><circle cx="654.062" cy="313.603" r="8.75"/><path fill="#fff" d="M653.508 308.945v-.73h1.064v.714c.252.062.49.11.722.186.866.29 1.37.953 1.42 1.865.01.243 0 .487 0 .738h-2.34c0-.11.005-.218 0-.325-.013-.244-.018-.488-.046-.73-.025-.21-.126-.293-.324-.314-.193-.023-.352.058-.412.24-.116.36-.105.72.066 1.058.05.096.14.18.23.24.468.312.943.613 1.415.92.22.143.436.29.653.434.473.316.756.768.896 1.305.184.697.177 1.4-.023 2.092-.254.872-.86 1.388-1.722 1.625-.17.048-.343.078-.53.12v.857h-1.067v-.884c-.157-.032-.307-.054-.453-.092-.572-.154-1.068-.435-1.426-.917-.22-.3-.318-.65-.384-1.01-.078-.44-.075-.886-.068-1.34h2.324c0 .036.005.076.005.114.01.445.018.89.026 1.334.002.062.013.123.02.182.032.193.114.287.28.32.195.035.38-.028.46-.182.047-.092.085-.197.09-.3.02-.376.005-.753-.063-1.126-.04-.214-.154-.384-.316-.52-.146-.12-.3-.232-.458-.338-.442-.3-.9-.584-1.334-.896-.572-.416-.888-1-1.016-1.684-.096-.5-.08-1.003.085-1.488.23-.666.72-1.063 1.368-1.276.23-.075.475-.114.71-.17.048-.01.095-.015.15-.025z"/><circle cx="517.062" cy="425.603" r="8.75"/><path fill="#fff" d="M516.508 420.945v-.73h1.064v.714c.252.062.49.11.722.186.866.29 1.37.953 1.42 1.865.01.243 0 .487 0 .738h-2.34c0-.11.005-.218 0-.325-.013-.244-.018-.488-.046-.73-.025-.21-.126-.293-.324-.314-.193-.023-.352.058-.412.24-.116.36-.105.72.066 1.058.05.096.14.18.23.24.468.312.943.613 1.415.92.22.143.436.29.653.434.473.316.756.768.896 1.305.184.697.177 1.4-.023 2.092-.254.872-.86 1.388-1.722 1.625-.17.048-.343.078-.53.12v.857h-1.067v-.884c-.157-.032-.307-.054-.453-.092-.572-.154-1.068-.435-1.426-.917-.22-.3-.318-.65-.384-1.01-.078-.44-.075-.886-.068-1.34h2.324c0 .036.005.076.005.114.01.445.018.89.026 1.334.002.062.013.123.02.182.032.193.114.287.28.32.195.035.38-.028.46-.182.047-.092.085-.197.09-.3.02-.376.005-.753-.063-1.126-.04-.214-.154-.384-.316-.52-.146-.12-.3-.232-.458-.338-.442-.3-.9-.584-1.334-.896-.572-.416-.888-1-1.016-1.684-.096-.5-.08-1.003.085-1.488.23-.666.72-1.063 1.368-1.276.23-.075.475-.114.71-.17.048-.01.095-.015.15-.025z"/><path fill="none" d="M597.578 378.28"/><ellipse fill-rule="evenodd" clip-rule="evenodd" fill="#EAEAEA" cx="405.741" cy="339.602" rx="11.917" ry="3.968"/><g fill-rule="evenodd" clip-rule="evenodd" fill="#E95A78"><path d="M398.78 302.348c4.912 3.55 8.437 3.55 14.128.002 2.184 2.77 2.934 5.897 3.494 9.316.216 1.307.58 4.375.516 5.697-.15 3.13-.808 3.232-1.635 3.798-.352.242-.518.832-.583 1.285-.53 3.742-1.27 7.478-1.456 11.24-.283 5.702-6.55 7.583-10.36 6.02-2.605-1.072-4.193-2.883-4.497-5.83-.39-3.807-.96-7.598-1.525-11.385-.084-.566-.052-1.377-.854-1.61 0 0-1.56-.638-1.56-3.355-.08-4.916.717-9.69 3.356-13.986.18-.292.8-1.037.977-1.192zM414.066 294.762c-.07 4.498-3.865 8.197-8.373 8.16-4.552-.035-8.234-3.86-8.183-8.498.05-4.52 3.804-8.158 8.372-8.113 4.612.044 8.26 3.81 8.184 8.452z"/></g><ellipse opacity=".08" fill="#FFA800" cx="305.578" cy="342.841" rx="57" ry="34.845"/><ellipse transform="matrix(.992 .123 -.123 .992 41.773 -56.089)" opacity=".08" fill="#00ACD0" cx="476.165" cy="311.027" rx="51.736" ry="34.075"/><ellipse transform="matrix(.992 .123 -.123 .992 41.773 -56.089)" fill="none" stroke="#000" stroke-width="2" stroke-miterlimit="10" stroke-dasharray="4,2" cx="476.165" cy="311.027" rx="51.736" ry="34.075"/><ellipse transform="matrix(.976 .216 -.216 .976 103.55 -63.969)" opacity=".08" fill="#00D096" cx="344.078" cy="441.186" rx="48.5" ry="25.5"/><ellipse transform="matrix(1 .027 -.027 1 8.037 -9.982)" opacity=".08" fill="#80529B" cx="374.546" cy="293.345" rx="19.978" ry="11.335"/><ellipse transform="matrix(1 .027 -.027 1 8.037 -9.982)" fill="none" stroke="#000" stroke-width="2" stroke-miterlimit="10" stroke-dasharray="4,2" cx="374.546" cy="293.345" rx="19.978" ry="11.335"/><ellipse transform="matrix(.842 -.539 .539 .842 -126.44 384.03)" opacity=".08" fill="#E95A78" cx="592.502" cy="407.909" rx="60.898" ry="33.186"/><ellipse fill-rule="evenodd" clip-rule="evenodd" fill="#EAEAEA" cx="303.79" cy="320.026" rx="9.487" ry="3.159"/><g fill-rule="evenodd" clip-rule="evenodd" fill="#C2C2C4"><path d="M298.25 290.366c3.91 2.825 6.716 2.825 11.246 0 1.74 2.206 2.337 4.696 2.784 7.42.17 1.038.46 3.48.41 4.534-.12 2.493-.645 2.573-1.302 3.023-.28.19-.414.662-.465 1.023-.422 2.98-1.01 5.953-1.16 8.948-.225 4.54-5.214 6.038-8.248 4.792-2.074-.852-3.338-2.294-3.58-4.64-.31-3.032-.764-6.05-1.215-9.065-.067-.45-.04-1.096-.68-1.28 0 0-1.24-.51-1.24-2.672-.064-3.914.57-7.715 2.67-11.135.144-.23.638-.825.78-.947zM310.42 284.325c-.057 3.582-3.078 6.526-6.667 6.497-3.624-.027-6.556-3.072-6.516-6.766.04-3.598 3.03-6.495 6.666-6.46 3.672.035 6.575 3.033 6.517 6.73z"/></g><g opacity=".7"><ellipse fill-rule="evenodd" clip-rule="evenodd" fill="#FFA800" cx="303.79" cy="320.026" rx="9.487" ry="3.159"/><g fill-rule="evenodd" clip-rule="evenodd" fill="#FFA800"><path d="M298.25 290.366c3.91 2.825 6.716 2.825 11.246 0 1.74 2.206 2.337 4.696 2.784 7.42.17 1.038.46 3.48.41 4.534-.12 2.493-.645 2.573-1.302 3.023-.28.19-.414.662-.465 1.023-.422 2.98-1.01 5.953-1.16 8.948-.225 4.54-5.214 6.038-8.248 4.792-2.074-.852-3.338-2.294-3.58-4.64-.31-3.032-.764-6.05-1.215-9.065-.067-.45-.04-1.096-.68-1.28 0 0-1.24-.51-1.24-2.672-.064-3.914.57-7.715 2.67-11.135.144-.23.638-.825.78-.947zM310.42 284.325c-.057 3.582-3.078 6.526-6.667 6.497-3.624-.027-6.556-3.072-6.516-6.766.04-3.598 3.03-6.495 6.666-6.46 3.672.035 6.575 3.033 6.517 6.73z"/></g></g><ellipse fill-rule="evenodd" clip-rule="evenodd" fill="#EAEAEA" cx="280.49" cy="363.218" rx="11.916" ry="3.968"/><g fill-rule="evenodd" clip-rule="evenodd" fill="#C2C2C4"><path d="M273.532 325.965c4.91 3.547 8.434 3.547 14.125 0 2.186 2.77 2.934 5.898 3.496 9.317.214 1.306.58 4.374.515 5.697-.15 3.13-.808 3.23-1.634 3.797-.354.24-.52.83-.585 1.283-.53 3.742-1.27 7.48-1.456 11.24-.283 5.703-6.55 7.584-10.36 6.02-2.606-1.07-4.193-2.882-4.496-5.83-.392-3.807-.962-7.598-1.526-11.385-.084-.566-.052-1.377-.854-1.61 0 0-1.558-.638-1.56-3.354-.08-4.915.72-9.688 3.356-13.984.178-.293.8-1.037.978-1.19zM288.816 318.377c-.07 4.5-3.865 8.197-8.373 8.16-4.553-.035-8.233-3.86-8.184-8.497.05-4.52 3.803-8.158 8.372-8.114 4.61.043 8.26 3.81 8.184 8.45z"/></g><g opacity=".7"><ellipse fill-rule="evenodd" clip-rule="evenodd" fill="#FFA800" cx="280.49" cy="363.218" rx="11.916" ry="3.968"/><g fill-rule="evenodd" clip-rule="evenodd" fill="#FFA800"><path d="M273.532 325.965c4.91 3.547 8.434 3.547 14.125 0 2.186 2.77 2.934 5.898 3.496 9.317.214 1.306.58 4.374.515 5.697-.15 3.13-.808 3.23-1.634 3.797-.354.24-.52.83-.585 1.283-.53 3.742-1.27 7.48-1.456 11.24-.283 5.703-6.55 7.584-10.36 6.02-2.606-1.07-4.193-2.882-4.496-5.83-.392-3.807-.962-7.598-1.526-11.385-.084-.566-.052-1.377-.854-1.61 0 0-1.558-.638-1.56-3.354-.08-4.915.72-9.688 3.356-13.984.178-.293.8-1.037.978-1.19zM288.816 318.377c-.07 4.5-3.865 8.197-8.373 8.16-4.553-.035-8.233-3.86-8.184-8.497.05-4.52 3.803-8.158 8.372-8.114 4.61.043 8.26 3.81 8.184 8.45z"/></g></g><ellipse fill-rule="evenodd" clip-rule="evenodd" fill="#EAEAEA" cx="504.523" cy="311.74" rx="9.488" ry="3.158"/><g fill-rule="evenodd" clip-rule="evenodd" fill="#C2C2C4"><path d="M498.98 282.08c3.91 2.824 6.718 2.824 11.25 0 1.737 2.205 2.334 4.695 2.78 7.418.173 1.04.462 3.482.41 4.536-.12 2.493-.643 2.573-1.3 3.023-.28.192-.413.66-.465 1.022-.423 2.978-1.01 5.952-1.16 8.948-.225 4.54-5.214 6.037-8.247 4.792-2.075-.853-3.34-2.294-3.58-4.642-.313-3.03-.766-6.05-1.216-9.063-.066-.45-.04-1.097-.68-1.282 0 0-1.24-.508-1.24-2.672-.065-3.912.57-7.714 2.67-11.134.145-.23.638-.823.78-.947zM511.15 276.04c-.055 3.58-3.076 6.525-6.665 6.497-3.624-.03-6.557-3.074-6.516-6.768.038-3.6 3.027-6.495 6.665-6.46 3.673.036 6.576 3.034 6.516 6.73z"/></g><g opacity=".6"><ellipse fill-rule="evenodd" clip-rule="evenodd" fill="#00ACD0" cx="504.523" cy="311.74" rx="9.488" ry="3.158"/><g fill-rule="evenodd" clip-rule="evenodd" fill="#00ACD0"><path d="M498.98 282.08c3.91 2.824 6.718 2.824 11.25 0 1.737 2.205 2.334 4.695 2.78 7.418.173 1.04.462 3.482.41 4.536-.12 2.493-.643 2.573-1.3 3.023-.28.192-.413.66-.465 1.022-.423 2.978-1.01 5.952-1.16 8.948-.225 4.54-5.214 6.037-8.247 4.792-2.075-.853-3.34-2.294-3.58-4.642-.313-3.03-.766-6.05-1.216-9.063-.066-.45-.04-1.097-.68-1.282 0 0-1.24-.508-1.24-2.672-.065-3.912.57-7.714 2.67-11.134.145-.23.638-.823.78-.947zM511.15 276.04c-.055 3.58-3.076 6.525-6.665 6.497-3.624-.03-6.557-3.074-6.516-6.768.038-3.6 3.027-6.495 6.665-6.46 3.673.036 6.576 3.034 6.516 6.73z"/></g></g><path d="M459.984 250.865l-.327-1.972 2.74-.485.37 1.965zM459.336 246.838l-.577-4.057 2.617-.4.666 4.042zM458.493 240.713l-.462-4.07 2.496-.312.55 4.06zM457.827 234.566l-.34-4.084 2.368-.222.43 4.074zM457.346 228.402l-.213-4.09 2.24-.142.302 4.086zM457.058 222.228l-.08-4.097 2.11-.063.17 4.094zM456.975 216.047l.06-4.097 1.976.008.03 4.098zM457.104 209.868l.207-4.092 1.84.074-.12 4.095zM457.454 203.698l.36-4.08 1.702.13-.272 4.09zM458.037 197.548l.52-4.065 1.56.183-.43 4.074zM458.86 191.426l.686-4.04 1.418.224-.595 4.054zM459.936 185.345l.854-4.007 1.275.257-.766 4.025zM461.268 179.316l1.03-3.965 1.133.282-.944 3.987zM462.865 173.354l1.212-3.914.99.295-1.127 3.94zM464.736 167.476l1.398-3.853.846.297-1.312 3.882zM466.888 161.695l1.588-3.778.706.288-1.505 3.812zM469.326 156.032l1.782-3.69.57.267-1.703 3.728zM472.057 150.507l1.983-3.587.434.233-1.904 3.63zM475.09 145.144l2.19-3.467.304.188-2.113 3.514zM478.434 139.97l2.406-3.316.18.13-2.332 3.368zM482.106 135.033l2.652-3.127.068.057-2.583 3.184zM486.15 130.414l1.43-1.394-1.398 1.425zM465.495 246.044l-4.4 2.972-5.196-1.105 7.01 10.442z"/><ellipse fill-rule="evenodd" clip-rule="evenodd" fill="#EAEAEA" cx="517.048" cy="378.218" rx="11.916" ry="3.968"/><g fill-rule="evenodd" clip-rule="evenodd" fill="#C2C2C4"><path d="M510.09 340.965c4.91 3.547 8.435 3.547 14.125 0 2.186 2.77 2.935 5.898 3.495 9.317.216 1.306.58 4.374.516 5.697-.15 3.13-.808 3.23-1.634 3.797-.354.24-.52.83-.584 1.283-.53 3.742-1.27 7.48-1.457 11.24-.28 5.703-6.548 7.584-10.358 6.02-2.607-1.07-4.193-2.882-4.497-5.83-.392-3.807-.96-7.598-1.525-11.385-.084-.566-.052-1.377-.854-1.61 0 0-1.56-.638-1.56-3.354-.08-4.915.717-9.688 3.355-13.984.18-.293.8-1.037.98-1.19zM525.375 333.377c-.072 4.5-3.866 8.197-8.374 8.16-4.553-.035-8.232-3.86-8.182-8.497.05-4.52 3.804-8.158 8.37-8.114 4.614.043 8.26 3.81 8.187 8.45z"/></g><ellipse fill-rule="evenodd" clip-rule="evenodd" fill="#EAEAEA" cx="592.432" cy="382.813" rx="13.13" ry="4.372"/><g fill-rule="evenodd" clip-rule="evenodd" fill="#C2C2C4"><path d="M584.763 341.764c5.412 3.908 9.297 3.908 15.565 0 2.408 3.052 3.235 6.5 3.854 10.267.236 1.44.64 4.82.568 6.28-.168 3.45-.893 3.56-1.803 4.185-.388.265-.573.914-.644 1.413-.583 4.124-1.397 8.24-1.603 12.386-.312 6.285-7.22 8.357-11.417 6.634-2.872-1.18-4.62-3.176-4.954-6.423-.433-4.196-1.06-8.374-1.683-12.547-.094-.624-.058-1.517-.94-1.774 0 0-1.718-.702-1.72-3.696-.086-5.417.79-10.677 3.698-15.41.2-.324.882-1.144 1.078-1.314zM601.606 333.402c-.077 4.958-4.26 9.033-9.226 8.993-5.018-.04-9.074-4.253-9.02-9.364.057-4.978 4.193-8.988 9.227-8.94 5.084.048 9.1 4.198 9.02 9.312z"/></g><ellipse fill-rule="evenodd" clip-rule="evenodd" fill="#EAEAEA" cx="567.344" cy="432.813" rx="13.13" ry="4.372"/><g fill-rule="evenodd" clip-rule="evenodd" fill="#C2C2C4"><path d="M559.676 391.764c5.412 3.908 9.296 3.908 15.565 0 2.41 3.052 3.233 6.5 3.854 10.267.236 1.44.64 4.82.568 6.28-.17 3.45-.89 3.56-1.8 4.185-.39.265-.574.914-.646 1.413-.584 4.124-1.4 8.24-1.604 12.386-.312 6.285-7.217 8.357-11.413 6.634-2.874-1.18-4.624-3.176-4.958-6.423-.43-4.196-1.06-8.374-1.682-12.547-.093-.624-.058-1.517-.94-1.774 0 0-1.718-.702-1.72-3.696-.086-5.417.79-10.677 3.7-15.41.197-.324.88-1.144 1.076-1.314zM576.52 383.402c-.078 4.958-4.26 9.033-9.23 8.993-5.013-.04-9.07-4.253-9.015-9.364.054-4.978 4.193-8.988 9.225-8.94 5.083.048 9.1 4.198 9.02 9.312z"/></g><ellipse fill-rule="evenodd" clip-rule="evenodd" fill="#EAEAEA" cx="622.08" cy="408.813" rx="13.131" ry="4.372"/><g fill-rule="evenodd" clip-rule="evenodd" fill="#C2C2C4"><path d="M614.412 367.764c5.41 3.908 9.296 3.908 15.565 0 2.408 3.052 3.232 6.5 3.85 10.267.24 1.44.642 4.82.57 6.28-.167 3.45-.89 3.56-1.802 4.185-.388.265-.573.914-.644 1.413-.583 4.124-1.396 8.24-1.602 12.386-.312 6.285-7.22 8.357-11.416 6.634-2.873-1.18-4.62-3.176-4.956-6.423-.432-4.196-1.058-8.374-1.68-12.547-.095-.624-.06-1.517-.94-1.774 0 0-1.72-.702-1.72-3.696-.088-5.417.79-10.677 3.698-15.41.2-.324.88-1.144 1.078-1.314zM631.255 359.402c-.077 4.958-4.26 9.033-9.226 8.993-5.02-.04-9.075-4.253-9.02-9.364.056-4.978 4.192-8.988 9.226-8.94 5.083.048 9.1 4.198 9.02 9.312z"/></g><g opacity=".6"><ellipse fill-rule="evenodd" clip-rule="evenodd" fill="#E95A78" cx="592.432" cy="382.813" rx="13.13" ry="4.372"/><g fill-rule="evenodd" clip-rule="evenodd" fill="#E95A78"><path d="M584.763 341.764c5.412 3.908 9.297 3.908 15.565 0 2.408 3.052 3.235 6.5 3.854 10.267.236 1.44.64 4.82.568 6.28-.168 3.45-.893 3.56-1.803 4.185-.388.265-.573.914-.644 1.413-.583 4.124-1.397 8.24-1.603 12.386-.312 6.285-7.22 8.357-11.417 6.634-2.872-1.18-4.62-3.176-4.954-6.423-.433-4.196-1.06-8.374-1.683-12.547-.094-.624-.058-1.517-.94-1.774 0 0-1.718-.702-1.72-3.696-.086-5.417.79-10.677 3.698-15.41.2-.324.882-1.144 1.078-1.314zM601.606 333.402c-.077 4.958-4.26 9.033-9.226 8.993-5.018-.04-9.074-4.253-9.02-9.364.057-4.978 4.193-8.988 9.227-8.94 5.084.048 9.1 4.198 9.02 9.312z"/></g></g><g opacity=".6"><ellipse fill-rule="evenodd" clip-rule="evenodd" fill="#E95A78" cx="567.344" cy="432.813" rx="13.13" ry="4.372"/><g fill-rule="evenodd" clip-rule="evenodd" fill="#E95A78"><path d="M559.676 391.764c5.412 3.908 9.296 3.908 15.565 0 2.41 3.052 3.233 6.5 3.854 10.267.236 1.44.64 4.82.568 6.28-.17 3.45-.89 3.56-1.8 4.185-.39.265-.574.914-.646 1.413-.584 4.124-1.4 8.24-1.604 12.386-.312 6.285-7.217 8.357-11.413 6.634-2.874-1.18-4.624-3.176-4.958-6.423-.43-4.196-1.06-8.374-1.682-12.547-.093-.624-.058-1.517-.94-1.774 0 0-1.718-.702-1.72-3.696-.086-5.417.79-10.677 3.7-15.41.197-.324.88-1.144 1.076-1.314zM576.52 383.402c-.078 4.958-4.26 9.033-9.23 8.993-5.013-.04-9.07-4.253-9.015-9.364.054-4.978 4.193-8.988 9.225-8.94 5.083.048 9.1 4.198 9.02 9.312z"/></g></g><g opacity=".6"><ellipse fill-rule="evenodd" clip-rule="evenodd" fill="#E95A78" cx="622.08" cy="408.813" rx="13.131" ry="4.372"/><g fill-rule="evenodd" clip-rule="evenodd" fill="#E95A78"><path d="M614.412 367.764c5.41 3.908 9.296 3.908 15.565 0 2.408 3.052 3.232 6.5 3.85 10.267.24 1.44.642 4.82.57 6.28-.167 3.45-.89 3.56-1.802 4.185-.388.265-.573.914-.644 1.413-.583 4.124-1.396 8.24-1.602 12.386-.312 6.285-7.22 8.357-11.416 6.634-2.873-1.18-4.62-3.176-4.956-6.423-.432-4.196-1.058-8.374-1.68-12.547-.095-.624-.06-1.517-.94-1.774 0 0-1.72-.702-1.72-3.696-.088-5.417.79-10.677 3.698-15.41.2-.324.88-1.144 1.078-1.314zM631.255 359.402c-.077 4.958-4.26 9.033-9.226 8.993-5.02-.04-9.075-4.253-9.02-9.364.056-4.978 4.192-8.988 9.226-8.94 5.083.048 9.1 4.198 9.02 9.312z"/></g></g><ellipse fill-rule="evenodd" clip-rule="evenodd" fill="#EAEAEA" cx="363.08" cy="457.813" rx="13.131" ry="4.372"/><g fill-rule="evenodd" clip-rule="evenodd" fill="#C2C2C4"><path d="M355.412 416.764c5.41 3.908 9.296 3.908 15.565 0 2.408 3.052 3.232 6.5 3.85 10.267.24 1.44.642 4.82.57 6.28-.167 3.45-.89 3.56-1.802 4.185-.388.265-.573.914-.644 1.413-.583 4.124-1.396 8.24-1.602 12.386-.312 6.285-7.22 8.357-11.416 6.634-2.873-1.18-4.62-3.176-4.956-6.423-.432-4.196-1.058-8.374-1.68-12.547-.095-.624-.06-1.517-.94-1.774 0 0-1.72-.702-1.72-3.696-.088-5.417.79-10.677 3.698-15.41.2-.324.88-1.144 1.078-1.314zM372.255 408.402c-.077 4.958-4.26 9.033-9.226 8.993-5.02-.04-9.075-4.253-9.02-9.364.056-4.978 4.192-8.988 9.226-8.94 5.083.048 9.1 4.198 9.02 9.312z"/></g><ellipse fill-rule="evenodd" clip-rule="evenodd" fill="#EAEAEA" cx="322.432" cy="437.813" rx="13.13" ry="4.372"/><g fill-rule="evenodd" clip-rule="evenodd" fill="#C2C2C4"><path d="M314.763 396.764c5.412 3.908 9.297 3.908 15.565 0 2.408 3.052 3.235 6.5 3.854 10.267.236 1.44.64 4.82.568 6.28-.168 3.45-.893 3.56-1.803 4.185-.388.265-.573.914-.644 1.413-.583 4.124-1.397 8.24-1.603 12.386-.312 6.285-7.22 8.357-11.417 6.634-2.872-1.18-4.62-3.176-4.954-6.423-.433-4.196-1.06-8.374-1.683-12.547-.094-.624-.058-1.517-.94-1.774 0 0-1.718-.702-1.72-3.696-.086-5.417.79-10.677 3.698-15.41.2-.324.882-1.144 1.078-1.314zM331.606 388.402c-.077 4.958-4.26 9.033-9.226 8.993-5.018-.04-9.074-4.253-9.02-9.364.057-4.978 4.193-8.988 9.227-8.94 5.084.048 9.1 4.198 9.02 9.312z"/></g><g opacity=".6"><ellipse fill-rule="evenodd" clip-rule="evenodd" fill="#00D096" cx="363.08" cy="457.813" rx="13.131" ry="4.372"/><g fill-rule="evenodd" clip-rule="evenodd" fill="#00D096"><path d="M355.412 416.764c5.41 3.908 9.296 3.908 15.565 0 2.408 3.052 3.232 6.5 3.85 10.267.24 1.44.642 4.82.57 6.28-.167 3.45-.89 3.56-1.802 4.185-.388.265-.573.914-.644 1.413-.583 4.124-1.396 8.24-1.602 12.386-.312 6.285-7.22 8.357-11.416 6.634-2.873-1.18-4.62-3.176-4.956-6.423-.432-4.196-1.058-8.374-1.68-12.547-.095-.624-.06-1.517-.94-1.774 0 0-1.72-.702-1.72-3.696-.088-5.417.79-10.677 3.698-15.41.2-.324.88-1.144 1.078-1.314zM372.255 408.402c-.077 4.958-4.26 9.033-9.226 8.993-5.02-.04-9.075-4.253-9.02-9.364.056-4.978 4.192-8.988 9.226-8.94 5.083.048 9.1 4.198 9.02 9.312z"/></g></g><g opacity=".6"><ellipse fill-rule="evenodd" clip-rule="evenodd" fill="#00D096" cx="322.432" cy="437.813" rx="13.13" ry="4.372"/><g fill-rule="evenodd" clip-rule="evenodd" fill="#00D096"><path d="M314.763 396.764c5.412 3.908 9.297 3.908 15.565 0 2.408 3.052 3.235 6.5 3.854 10.267.236 1.44.64 4.82.568 6.28-.168 3.45-.893 3.56-1.803 4.185-.388.265-.573.914-.644 1.413-.583 4.124-1.397 8.24-1.603 12.386-.312 6.285-7.22 8.357-11.417 6.634-2.872-1.18-4.62-3.176-4.954-6.423-.433-4.196-1.06-8.374-1.683-12.547-.094-.624-.058-1.517-.94-1.774 0 0-1.718-.702-1.72-3.696-.086-5.417.79-10.677 3.698-15.41.2-.324.882-1.144 1.078-1.314zM331.606 388.402c-.077 4.958-4.26 9.033-9.226 8.993-5.018-.04-9.074-4.253-9.02-9.364.057-4.978 4.193-8.988 9.227-8.94 5.084.048 9.1 4.198 9.02 9.312z"/></g></g><g opacity=".35"><ellipse fill-rule="evenodd" clip-rule="evenodd" fill="#EAEAEA" cx="546.379" cy="267.026" rx="9.487" ry="3.159"/><g fill-rule="evenodd" clip-rule="evenodd" fill="#C2C2C4"><path d="M540.84 237.366c3.908 2.825 6.715 2.825 11.245 0 1.74 2.206 2.337 4.696 2.782 7.42.172 1.038.463 3.48.41 4.534-.12 2.493-.643 2.573-1.3 3.023-.28.19-.413.662-.465 1.023-.423 2.98-1.01 5.953-1.16 8.948-.225 4.54-5.214 6.038-8.248 4.792-2.075-.852-3.34-2.294-3.58-4.64-.312-3.032-.766-6.05-1.215-9.065-.068-.45-.042-1.096-.68-1.28 0 0-1.242-.51-1.242-2.672-.064-3.914.57-7.715 2.672-11.135.143-.23.635-.825.78-.947zM553.01 231.325c-.06 3.582-3.08 6.526-6.668 6.497-3.626-.027-6.556-3.072-6.516-6.766.04-3.598 3.03-6.495 6.666-6.46 3.672.035 6.575 3.033 6.517 6.73z"/></g></g><circle cx="390.062" cy="281.603" r="8.75"/><path fill="#fff" d="M389.508 276.945v-.73h1.064v.714c.252.062.49.11.722.186.866.29 1.37.953 1.42 1.865.01.243 0 .487 0 .738h-2.34c0-.11.005-.218 0-.325-.013-.244-.018-.488-.046-.73-.025-.21-.126-.293-.324-.314-.193-.023-.352.058-.412.24-.116.36-.105.72.066 1.058.05.096.14.18.23.24.468.312.943.613 1.415.92.22.143.436.29.653.434.473.316.756.768.896 1.305.184.697.177 1.4-.023 2.092-.254.872-.86 1.388-1.722 1.625-.17.048-.343.078-.53.12v.857h-1.067v-.884c-.157-.032-.307-.054-.453-.092-.572-.154-1.068-.435-1.426-.917-.22-.3-.318-.65-.384-1.01-.078-.44-.075-.886-.068-1.34h2.324c0 .036.005.076.005.114.01.445.018.89.026 1.334.002.062.013.123.02.182.032.193.114.287.28.32.195.035.38-.028.46-.182.047-.092.085-.197.09-.3.02-.376.005-.753-.063-1.126-.04-.214-.154-.384-.316-.52-.146-.12-.3-.232-.458-.338-.442-.3-.9-.584-1.334-.896-.572-.416-.888-1-1.016-1.684-.096-.5-.08-1.003.085-1.488.23-.666.72-1.063 1.368-1.276.23-.075.475-.114.71-.17.048-.01.095-.015.15-.025z"/><circle cx="466.062" cy="273.603" r="8.75"/><path fill="#fff" d="M465.508 268.945v-.73h1.064v.714c.252.062.49.11.722.186.866.29 1.37.953 1.42 1.865.01.243 0 .487 0 .738h-2.34c0-.11.005-.218 0-.325-.013-.244-.018-.488-.046-.73-.025-.21-.126-.293-.324-.314-.193-.023-.352.058-.412.24-.116.36-.105.72.066 1.058.05.096.14.18.23.24.468.312.943.613 1.415.92.22.143.436.29.653.434.473.316.756.768.896 1.305.184.697.177 1.4-.023 2.092-.254.872-.86 1.388-1.722 1.625-.17.048-.343.078-.53.12v.857h-1.067v-.884c-.157-.032-.307-.054-.453-.092-.572-.154-1.068-.435-1.426-.917-.22-.3-.318-.65-.384-1.01-.078-.44-.075-.886-.068-1.34h2.324c0 .036.005.076.005.114.01.445.018.89.026 1.334.002.062.013.123.02.182.032.193.114.287.28.32.195.035.38-.028.46-.182.047-.092.085-.197.09-.3.02-.376.005-.753-.063-1.126-.04-.214-.154-.384-.316-.52-.146-.12-.3-.232-.458-.338-.442-.3-.9-.584-1.334-.896-.572-.416-.888-1-1.016-1.684-.096-.5-.08-1.003.085-1.488.23-.666.72-1.063 1.368-1.276.23-.075.475-.114.71-.17.048-.01.095-.015.15-.025z"/><ellipse fill-rule="evenodd" clip-rule="evenodd" fill="#EAEAEA" cx="670.756" cy="326.026" rx="9.488" ry="3.159"/><g fill-rule="evenodd" clip-rule="evenodd" fill="#969696"><path d="M665.215 296.366c3.91 2.825 6.718 2.825 11.247 0 1.74 2.206 2.336 4.696 2.784 7.42.17 1.038.46 3.48.41 4.534-.12 2.493-.644 2.573-1.302 3.023-.28.19-.413.662-.465 1.023-.423 2.98-1.012 5.953-1.16 8.948-.226 4.54-5.215 6.038-8.247 4.792-2.076-.852-3.34-2.294-3.58-4.64-.313-3.032-.767-6.05-1.217-9.065-.066-.45-.04-1.096-.68-1.28 0 0-1.24-.51-1.24-2.672-.063-3.914.57-7.715 2.672-11.135.142-.23.636-.825.777-.947zM677.386 290.325c-.057 3.582-3.078 6.526-6.668 6.497-3.623-.027-6.556-3.072-6.514-6.766.038-3.598 3.028-6.495 6.665-6.46 3.672.035 6.574 3.033 6.516 6.73z"/></g><ellipse fill-rule="evenodd" clip-rule="evenodd" fill="#EAEAEA" cx="467.885" cy="337.218" rx="11.916" ry="3.968"/><g fill-rule="evenodd" clip-rule="evenodd" fill="#C2C2C4"><path d="M460.926 299.965c4.91 3.547 8.436 3.547 14.125 0 2.187 2.77 2.937 5.898 3.498 9.317.214 1.306.58 4.374.516 5.697-.152 3.13-.81 3.23-1.636 3.797-.352.24-.52.83-.584 1.283-.53 3.742-1.27 7.48-1.455 11.24-.284 5.703-6.55 7.584-10.36 6.02-2.607-1.07-4.194-2.882-4.497-5.83-.392-3.807-.96-7.598-1.526-11.385-.085-.566-.053-1.377-.854-1.61 0 0-1.56-.638-1.56-3.354-.08-4.915.717-9.688 3.355-13.984.18-.293.8-1.037.978-1.19zM476.21 292.377c-.07 4.5-3.864 8.197-8.372 8.16-4.553-.035-8.234-3.86-8.184-8.497.05-4.52 3.805-8.158 8.372-8.114 4.613.043 8.258 3.81 8.185 8.45z"/></g><g opacity=".6"><ellipse fill-rule="evenodd" clip-rule="evenodd" fill="#00ACD0" cx="467.885" cy="337.218" rx="11.916" ry="3.968"/><g fill-rule="evenodd" clip-rule="evenodd" fill="#00ACD0"><path d="M460.926 299.965c4.91 3.547 8.436 3.547 14.125 0 2.187 2.77 2.937 5.898 3.498 9.317.214 1.306.58 4.374.516 5.697-.152 3.13-.81 3.23-1.636 3.797-.352.24-.52.83-.584 1.283-.53 3.742-1.27 7.48-1.455 11.24-.284 5.703-6.55 7.584-10.36 6.02-2.607-1.07-4.194-2.882-4.497-5.83-.392-3.807-.96-7.598-1.526-11.385-.085-.566-.053-1.377-.854-1.61 0 0-1.56-.638-1.56-3.354-.08-4.915.717-9.688 3.355-13.984.18-.293.8-1.037.978-1.19zM476.21 292.377c-.07 4.5-3.864 8.197-8.372 8.16-4.553-.035-8.234-3.86-8.184-8.497.05-4.52 3.805-8.158 8.372-8.114 4.613.043 8.258 3.81 8.185 8.45z"/></g></g><ellipse fill-rule="evenodd" clip-rule="evenodd" fill="#EAEAEA" cx="450.756" cy="286.026" rx="9.488" ry="3.159"/><g fill-rule="evenodd" clip-rule="evenodd" fill="#C2C2C4"><path d="M445.215 256.366c3.91 2.825 6.718 2.825 11.247 0 1.74 2.206 2.336 4.696 2.784 7.42.17 1.038.46 3.48.41 4.534-.12 2.493-.644 2.573-1.302 3.023-.28.19-.413.662-.465 1.023-.423 2.98-1.012 5.953-1.16 8.948-.226 4.54-5.215 6.038-8.247 4.792-2.076-.852-3.34-2.294-3.58-4.64-.313-3.032-.767-6.05-1.217-9.065-.066-.45-.04-1.096-.68-1.28 0 0-1.24-.51-1.24-2.672-.063-3.914.57-7.715 2.672-11.135.142-.23.636-.825.777-.947zM457.386 250.325c-.057 3.582-3.078 6.526-6.668 6.497-3.623-.027-6.556-3.072-6.514-6.766.038-3.598 3.028-6.495 6.665-6.46 3.672.035 6.574 3.033 6.516 6.73z"/></g><g opacity=".6"><ellipse fill-rule="evenodd" clip-rule="evenodd" fill="#00ACD0" cx="450.756" cy="286.026" rx="9.488" ry="3.159"/><g fill-rule="evenodd" clip-rule="evenodd" fill="#00ACD0"><path d="M445.215 256.366c3.91 2.825 6.718 2.825 11.247 0 1.74 2.206 2.336 4.696 2.784 7.42.17 1.038.46 3.48.41 4.534-.12 2.493-.644 2.573-1.302 3.023-.28.19-.413.662-.465 1.023-.423 2.98-1.012 5.953-1.16 8.948-.226 4.54-5.215 6.038-8.247 4.792-2.076-.852-3.34-2.294-3.58-4.64-.313-3.032-.767-6.05-1.217-9.065-.066-.45-.04-1.096-.68-1.28 0 0-1.24-.51-1.24-2.672-.063-3.914.57-7.715 2.672-11.135.142-.23.636-.825.777-.947zM457.386 250.325c-.057 3.582-3.078 6.526-6.668 6.497-3.623-.027-6.556-3.072-6.514-6.766.038-3.598 3.028-6.495 6.665-6.46 3.672.035 6.574 3.033 6.516 6.73z"/></g></g><path d="M524.978 404.05l.93-1.77 2.574 1.34-.913 1.778zM526.835 400.507l1.844-3.583 2.53 1.287-1.808 3.602zM529.583 395.143l1.804-3.604 2.49 1.23-1.766 3.622zM532.27 389.747l1.763-3.624 2.45 1.177-1.725 3.64zM534.897 384.32l1.72-3.642 2.408 1.12-1.682 3.662zM537.458 378.865l1.675-3.665 2.367 1.068-1.64 3.68zM539.952 373.377l1.63-3.685 2.323 1.013-1.592 3.702zM542.377 367.86l1.582-3.707 2.28.96-1.545 3.722zM544.73 362.31l1.533-3.726 2.237.906-1.495 3.742zM547.01 356.73l1.48-3.746 2.194.854-1.444 3.762zM549.213 351.12l1.43-3.766 2.146.8-1.392 3.783zM551.336 345.48l1.374-3.788 2.102.75-1.336 3.802zM553.378 339.81l1.317-3.81 2.055.7-1.28 3.82zM555.334 334.108l1.26-3.827 2.007.65-1.22 3.84zM557.203 328.378l1.198-3.847 1.96.6-1.16 3.86zM558.98 322.62l1.135-3.867 1.91.55-1.096 3.878zM560.663 316.832l1.07-3.885 1.86.503-1.03 3.895zM562.248 311.017l1.004-3.903 1.81.456-.965 3.912zM563.732 305.175l.934-3.92 1.758.41-.895 3.93zM565.11 299.308l.864-3.936 1.705.364-.823 3.945zM566.383 293.416l.787-3.95 1.652.32-.747 3.958zM567.54 287.5l.71-3.965 1.6.277-.67 3.974zM568.584 281.564l.63-3.98 1.544.237-.59 3.988zM569.507 275.607l.548-3.99 1.488.195-.508 3.998zM570.306 269.633l.463-4.002 1.43.16-.423 4.006zM570.977 263.643l.375-4.012 1.374.122-.335 4.016zM571.516 257.64l.283-4.02 1.314.086-.243 4.022zM571.917 251.624l.19-4.025 1.257.052-.15 4.027zM572.18 245.6l.092-4.028 1.197.022-.054 4.03zM572.295 239.572l-.006-4.03 1.136-.006.045 4.03zM572.262 233.543l-.108-4.027 1.075-.035.147 4.028zM572.075 227.517l-.212-4.025 1.012-.058.253 4.02zM571.73 221.496l-.32-4.017.95-.082.36 4.014zM571.225 215.486l-.43-4.006.886-.1.47 4.002zM570.552 209.492l-.544-3.992.823-.116.586 3.987zM569.71 203.52l-.66-3.975.76-.13.7 3.968zM568.692 197.574l-.778-3.954.695-.14.818 3.946zM567.497 191.66l-.9-3.928.632-.147.938 3.918zM566.12 185.786l-1.024-3.897.568-.154 1.063 3.887zM564.556 179.957l-1.15-3.86.504-.155 1.19 3.85zM562.802 174.183l-1.28-3.822.443-.15 1.317 3.81zM560.854 168.47l-1.41-3.776.378-.144 1.45 3.76zM558.707 162.826l-1.546-3.722.32-.133 1.582 3.707zM556.356 157.265l-1.685-3.662.258-.12 1.722 3.644zM553.795 151.795l-1.83-3.593.198-.1 1.866 3.572zM551.015 146.43l-1.984-3.51.142-.08 2.018 3.49zM548.002 141.19l-2.146-3.41.085-.054 2.182 3.388zM544.74 136.105l-2.34-3.285.033-.023 2.372 3.26zM541.174 131.227l-1.274-1.537 1.29 1.523zM532.245 403.64l-5.296-.4-3.388-4.092-.984 12.538z"/><ellipse fill-rule="evenodd" clip-rule="evenodd" fill="#EAEAEA" cx="496.921" cy="435.813" rx="13.13" ry="4.372"/><g fill-rule="evenodd" clip-rule="evenodd" fill="#00ACD0"><path d="M489.254 394.764c5.41 3.908 9.293 3.908 15.564 0 2.408 3.052 3.232 6.5 3.852 10.267.236 1.44.638 4.82.567 6.28-.165 3.45-.89 3.56-1.8 4.185-.39.265-.573.914-.645 1.413-.584 4.124-1.396 8.24-1.604 12.386-.312 6.285-7.218 8.357-11.415 6.634-2.873-1.18-4.62-3.176-4.955-6.423-.43-4.196-1.06-8.374-1.682-12.547-.092-.624-.057-1.517-.94-1.774 0 0-1.718-.702-1.72-3.696-.087-5.417.793-10.677 3.698-15.41.2-.324.882-1.144 1.08-1.314zM506.096 386.402c-.078 4.958-4.26 9.033-9.227 8.993-5.02-.04-9.073-4.253-9.02-9.364.056-4.978 4.192-8.988 9.227-8.94 5.08.048 9.1 4.198 9.02 9.312z"/></g><path fill="none" stroke="#969696" stroke-width="2" stroke-miterlimit="10" d="M244 409.94h-2"/><path fill="none" stroke="#969696" stroke-width="2" stroke-miterlimit="10" stroke-dasharray="4,2" d="M240 409.94h-17"/><path fill="none" stroke="#969696" stroke-width="2" stroke-miterlimit="10" d="M221.578 409.686h-2l.007-2"/><path fill="none" stroke="#969696" stroke-width="2" stroke-miterlimit="10" stroke-dasharray="4.0138,2.0069" d="M219.592 405.68l.976-287.99"/><path fill="none" stroke="#969696" stroke-width="2" stroke-miterlimit="10" d="M220.782 116.94l-.204-2H223"/><path fill="none" stroke="#969696" stroke-width="2" stroke-miterlimit="10" stroke-dasharray="4,2" d="M225 114.94h72"/><path fill="none" stroke="#969696" stroke-width="2" stroke-miterlimit="10" d="M298 114.94h2"/><path fill="#969696" d="M297.044 119.13l1.888-4.444-1.888-4.444 10.534 4.444z"/><ellipse fill-rule="evenodd" clip-rule="evenodd" fill="#EAEAEA" cx="374.79" cy="294.026" rx="9.487" ry="3.159"/><g fill-rule="evenodd" clip-rule="evenodd" fill="#C2C2C4"><path d="M369.25 264.366c3.91 2.825 6.716 2.825 11.246 0 1.74 2.206 2.337 4.696 2.784 7.42.17 1.038.46 3.48.41 4.534-.12 2.493-.645 2.573-1.302 3.023-.28.19-.414.662-.465 1.023-.422 2.98-1.01 5.953-1.16 8.948-.225 4.54-5.214 6.038-8.248 4.792-2.074-.852-3.338-2.294-3.58-4.64-.31-3.032-.764-6.05-1.215-9.065-.067-.45-.04-1.096-.68-1.28 0 0-1.24-.51-1.24-2.672-.064-3.914.57-7.715 2.67-11.135.144-.23.638-.825.78-.947zM381.42 258.325c-.057 3.582-3.078 6.526-6.667 6.497-3.624-.027-6.556-3.072-6.516-6.766.04-3.598 3.03-6.495 6.666-6.46 3.672.035 6.575 3.033 6.517 6.73z"/></g><g opacity=".6"><ellipse fill-rule="evenodd" clip-rule="evenodd" fill="#80529B" cx="374.79" cy="294.026" rx="9.487" ry="3.159"/><g fill-rule="evenodd" clip-rule="evenodd" fill="#80529B"><path d="M369.25 264.366c3.91 2.825 6.716 2.825 11.246 0 1.74 2.206 2.337 4.696 2.784 7.42.17 1.038.46 3.48.41 4.534-.12 2.493-.645 2.573-1.302 3.023-.28.19-.414.662-.465 1.023-.422 2.98-1.01 5.953-1.16 8.948-.225 4.54-5.214 6.038-8.248 4.792-2.074-.852-3.338-2.294-3.58-4.64-.31-3.032-.764-6.05-1.215-9.065-.067-.45-.04-1.096-.68-1.28 0 0-1.24-.51-1.24-2.672-.064-3.914.57-7.715 2.67-11.135.144-.23.638-.825.78-.947zM381.42 258.325c-.057 3.582-3.078 6.526-6.667 6.497-3.624-.027-6.556-3.072-6.516-6.766.04-3.598 3.03-6.495 6.666-6.46 3.672.035 6.575 3.033 6.517 6.73z"/></g></g><g opacity=".6"><ellipse fill-rule="evenodd" clip-rule="evenodd" fill="#80529B" cx="374.79" cy="294.026" rx="9.487" ry="3.159"/><g fill-rule="evenodd" clip-rule="evenodd" fill="#80529B" opacity=".6"><path d="M369.25 264.366c3.91 2.825 6.716 2.825 11.246 0 1.74 2.206 2.337 4.696 2.783 7.42.17 1.038.46 3.48.41 4.534-.12 2.493-.645 2.573-1.302 3.023-.28.19-.414.662-.465 1.023-.422 2.98-1.01 5.953-1.16 8.948-.225 4.54-5.214 6.038-8.248 4.792-2.074-.852-3.338-2.294-3.58-4.64-.31-3.032-.764-6.05-1.215-9.065-.067-.45-.04-1.096-.68-1.28 0 0-1.24-.51-1.24-2.672-.064-3.914.57-7.715 2.67-11.135.143-.23.638-.825.78-.947zM381.42 258.325c-.057 3.582-3.078 6.526-6.667 6.497-3.624-.027-6.556-3.072-6.516-6.766.04-3.598 3.03-6.495 6.666-6.46 3.672.035 6.574 3.033 6.517 6.73z"/></g></g></g></svg>