<?xml version="1.0" encoding="utf-8"?>
<!-- Generator: Adobe Illustrator 19.2.0, SVG Export Plug-In . SVG Version: 6.00 Build 0)  -->
<svg version="1.1" id="Layer_1" xmlns="http://www.w3.org/2000/svg" xmlns:xlink="http://www.w3.org/1999/xlink" x="0px" y="0px"
	 viewBox="0 0 816.3 190.7" style="enable-background:new 0 0 816.3 190.7;" xml:space="preserve">
<style type="text/css">
	.st0{fill:#F99400;}
	.st1{fill:#83C541;}
	.st2{fill:#FF5250;}
	.st3{fill:#80509C;}
	.st4{fill:#1EA9E3;}
	.st5{fill:#F6C400;}
	.st6{fill:#00BC8F;}
</style>
<g>
	<g>
		<path class="st0" d="M37.5,96.2v-0.3c0-26.5,19.8-48.4,47.3-48.4c15.1,0,24.7,4.9,33.4,12.2c1.1,0.9,2.1,2.4,2.1,4.3
			c0,2.8-2.5,5.2-5.3,5.2c-1.5,0-2.7-0.7-3.5-1.2c-7.2-6.4-15.4-10.7-26.9-10.7c-20.7,0-36.2,16.8-36.2,38.4v0.3
			c0,21.7,15.6,38.6,36.2,38.6c11.6,0,19.8-4,27.8-11.4c0.8-0.8,2-1.5,3.3-1.5c2.7,0,5.1,2.4,5.1,5.1c0,1.6-0.8,2.9-1.7,3.7
			c-9.2,8.4-19.4,13.8-34.8,13.8C57.4,144.3,37.5,123.1,37.5,96.2z"/>
	</g>
	<g>
		<path class="st1" d="M131.5,96.2v-0.3c0-25.8,19.4-48.4,47.9-48.4c28.5,0,47.6,22.3,47.6,48.1v0.3c0,25.8-19.4,48.4-47.9,48.4
			C150.6,144.3,131.5,122,131.5,96.2z M216,96.2v-0.3c0-21.3-15.5-38.6-36.9-38.6s-36.6,17.1-36.6,38.4v0.3
			c0,21.3,15.5,38.6,36.9,38.6S216,117.5,216,96.2z"/>
	</g>
	<g>
		<path class="st2" d="M244.3,54.5c0-2.9,2.4-5.3,5.2-5.3h34.6c10.7,0,19.1,3.1,24.5,8.3c3.9,4,6,9,6,15v0.3
			c0,12.2-7.5,18.4-14.8,21.7c11.1,3.3,20.1,9.8,20.1,22.6v0.3c0,16-13.5,25.5-34,25.5h-36.4c-2.8,0-5.2-2.4-5.2-5.3V54.5z
			 M282.4,90.9c12.7,0,21.5-5.7,21.5-16.7v-0.3c0-9.2-7.4-15.2-20.7-15.2h-28.5v32.2H282.4z M286.2,133.2c14.2,0,23-6.3,23-16.7
			v-0.3c0-10.2-8.6-16-24.9-16h-29.5v33H286.2z"/>
	</g>
	<g>
		<path class="st3" d="M331.7,103.6V53.8c0-2.9,2.4-5.3,5.2-5.3c2.9,0,5.3,2.4,5.3,5.3v49.1c0,20.2,10.8,31.5,28.6,31.5
			c17.2,0,28.2-10.4,28.2-30.9V53.8c0-2.9,2.4-5.3,5.3-5.3c2.8,0,5.2,2.4,5.2,5.3v48.9c0,27.3-15.6,41.4-39,41.4
			C347.5,144.2,331.7,130,331.7,103.6z"/>
	</g>
	<g>
		<path class="st4" d="M430,54.5c0-2.9,2.4-5.3,5.2-5.3h27.3c29.4,0,49.7,20.2,49.7,46.5v0.3c0,26.3-20.3,46.8-49.7,46.8h-27.3
			c-2.8,0-5.2-2.4-5.2-5.3V54.5z M462.5,133c23.7,0,38.8-16,38.8-36.8v-0.3c0-20.7-15.1-37-38.8-37h-21.9V133H462.5z"/>
	</g>
	<g>
		<path class="st5" d="M522.3,96.2v-0.3c0-25.7,18.8-48.4,46.9-48.4c14.2,0,23.4,3.7,31.9,10c1.2,0.9,2.1,2.4,2.1,4.3
			c0,2.9-2.4,5.3-5.2,5.3c-1.2,0-2.3-0.5-3.3-1.3c-6.7-5.1-14.2-8.6-25.9-8.6c-20.7,0-35.6,17.5-35.6,38.4v0.3
			c0,22.3,14.3,38.9,37,38.9c10.7,0,20.6-4.1,27-9.4v-23.3h-25.1c-2.5,0-4.7-2.1-4.7-4.7c0-2.7,2.1-4.8,4.7-4.8h30.1
			c2.8,0,5.2,2.4,5.2,5.3v28.5c0,2.5-1.2,4.8-3.6,6.4c-8.6,6.3-20,11.4-34,11.4C540.5,144.3,522.3,122.9,522.3,96.2z"/>
	</g>
	<g>
		<path class="st6" d="M623,137.4V54.5c0-2.9,2.4-5.3,5.2-5.3h58.1c2.7,0,4.8,2.1,4.8,4.8s-2.1,4.8-4.8,4.8h-52.8v31.9h46.8
			c2.7,0,4.8,2.3,4.8,4.8c0,2.7-2.1,4.8-4.8,4.8h-46.8v32.7H687c2.7,0,4.8,2.1,4.8,4.8c0,2.7-2.1,4.8-4.8,4.8h-58.8
			C625.4,142.7,623,140.3,623,137.4z"/>
	</g>
	<g>
		<path class="st2" d="M734.9,58.9h-27.1c-2.7,0-4.9-2.1-4.9-4.8c0-2.7,2.3-4.9,4.9-4.9h65c2.7,0,4.9,2.3,4.9,4.9
			c0,2.7-2.3,4.8-4.9,4.8h-27.1V138c0,2.9-2.4,5.3-5.3,5.3c-2.9,0-5.3-2.4-5.3-5.3V58.9z"/>
	</g>
</g>
</svg>
