<?xml version="1.0" encoding="UTF-8" standalone="no"?>
<svg width="20px" height="21px" viewBox="0 0 20 21" version="1.1" xmlns="http://www.w3.org/2000/svg" xmlns:xlink="http://www.w3.org/1999/xlink" xmlns:sketch="http://www.bohemiancoding.com/sketch/ns">
    <!-- Generator: Sketch 3.3.3 (12081) - http://www.bohemiancoding.com/sketch -->
    <title>Shape</title>
    <desc>Created with Sketch.</desc>
    <defs></defs>
    <g id="3.0-screens" stroke="none" stroke-width="1" fill="none" fill-rule="evenodd" sketch:type="MSPage">
        <g id="Artboard-29-Copy-83" sketch:type="MSArtboardGroup" transform="translate(-816.000000, -242.000000)" fill="#000000">
            <path d="M826.047014,242.037257 C820.638847,242.037257 816.254573,246.567745 816.254573,252.156272 C816.254573,257.74476 820.638809,262.27517 826.047014,262.27517 C831.455143,262.27517 835.839455,257.7448 835.839455,252.156272 C835.839417,246.567705 831.455143,242.037257 826.047014,242.037257 L826.047014,242.037257 Z M826.820203,257.589825 L826.820203,259.400997 L825.136163,259.400997 L825.136163,257.713687 C823.984936,257.660637 822.868125,257.341197 822.215105,256.950473 L822.730424,254.872872 C823.452314,255.281437 824.466107,255.654123 825.582956,255.654123 C826.562334,255.654123 827.232504,255.263635 827.232504,254.553195 C827.232504,253.878594 826.682769,253.452425 825.411107,253.008651 C823.572521,252.369337 822.318123,251.481356 822.318123,249.758877 C822.318123,248.196334 823.383444,246.971308 825.222145,246.598188 L825.222145,244.911548 L826.905994,244.911548 L826.905994,246.474091 C828.057488,246.527377 828.830639,246.775966 829.397829,247.060197 L828.899394,249.066514 C828.4526,248.871132 827.662185,248.463 826.425052,248.463 C825.308089,248.463 824.947125,248.960021 824.947125,249.457041 C824.947125,250.043344 825.548579,250.415873 827.009165,250.984336 C829.054092,251.730024 829.878809,252.706421 829.878809,254.304606 C829.878809,255.88495 828.796147,257.234507 826.820203,257.589825 L826.820203,257.589825 Z" id="Shape" sketch:type="MSShapeGroup"></path>
        </g>
    </g>
</svg>