<?xml version="1.0" encoding="UTF-8" standalone="no"?>
<svg width="143px" height="143px" viewBox="0 0 143 143" version="1.1" xmlns="http://www.w3.org/2000/svg" xmlns:xlink="http://www.w3.org/1999/xlink" xmlns:sketch="http://www.bohemiancoding.com/sketch/ns">
    <!-- Generator: Sketch 3.3.3 (12081) - http://www.bohemiancoding.com/sketch -->
    <title>Group Copy 2</title>
    <desc>Created with Sketch.</desc>
    <defs></defs>
    <g id="Scratch-pad" stroke="none" stroke-width="1" fill="none" fill-rule="evenodd" sketch:type="MSPage">
        <g id="Artboard-29-Copy-64" sketch:type="MSArtboardGroup" transform="translate(-153.000000, -514.000000)">
            <g id="Group" sketch:type="MSLayerGroup" transform="translate(57.000000, 478.000000)">
                <g id="Group-Copy-2" transform="translate(96.000000, 36.000000)" sketch:type="MSShapeGroup">
                    <path d="M142.298406,71.2789053 C142.298406,110.590441 110.522615,142.45945 71.3227396,142.45945 C32.1243542,142.45945 0.350052083,110.590441 0.350052083,71.2789053 C0.350052083,31.9688638 32.1243542,0.101348179 71.3227396,0.101348179 C110.522615,0.101348179 142.298406,31.9688638 142.298406,71.2789053" id="Fill-3" fill="#4990E2"></path>
                    <path d="M93.9137604,138.757608 L93.7931042,138.431941 C93.3551667,138.315418 93.0438438,138.013654 93.0066042,137.646159 C92.5701563,137.526648 92.2603229,137.226377 92.2230833,136.857388 C91.7851458,136.740865 91.4723333,136.440595 91.4380729,136.070112 C91.001625,135.953589 90.6917917,135.654812 90.6560417,135.284329 C90.2181042,135.167806 89.9067813,134.867536 89.8725208,134.500041 C89.4330938,134.383518 89.1232604,134.083247 89.0860208,133.712764 C88.6495729,133.594747 88.33825,133.292983 88.3025,132.925488 C87.8645625,132.810459 87.55175,132.508694 87.5174896,132.138211 C87.0810417,132.023182 86.7712083,131.721418 86.7369479,131.352429 C86.2975208,131.2374 85.9847083,130.935635 85.9489583,130.56814 C85.5125104,130.450123 85.2041667,130.149853 85.1669271,129.782358 C84.7289896,129.664341 84.4176667,129.361083 84.3804271,128.992093 C83.9454688,128.875571 83.6341458,128.576794 83.5983958,128.206311 C83.1619479,128.091282 82.850625,127.789518 82.814875,127.422022 C82.3769375,127.305499 82.0671042,127.003735 82.028375,126.633252 C81.5934167,126.518223 81.2820938,126.216459 81.2448542,125.848963 C80.8098958,125.73244 80.4970833,125.43217 80.4598438,125.060193 C80.0248854,124.94367 79.7135625,124.6434 79.6778125,124.275904 C79.239875,124.159381 78.9285521,123.859111 78.8942917,123.491616 C78.4578438,123.372105 78.1465208,123.073328 78.1107708,122.702845 C77.6743229,122.586322 77.363,122.286052 77.3257604,121.918557 C76.8878229,121.80054 76.5765,121.500269 76.54075,121.129786 C76.1043021,121.013264 75.7929792,120.711499 75.7572292,120.344004 C75.3192917,120.227481 75.0079688,119.92721 74.9722188,119.556727 C74.5342813,119.440205 74.2244479,119.139934 74.1901875,118.772439 C73.7507604,118.655916 73.4394375,118.354151 73.4021979,117.983668 C72.9672396,117.868639 72.6544271,117.565381 72.6186771,117.197886 C72.1822292,117.082857 71.8709063,116.781093 71.8366458,116.412103 C71.4001979,116.294087 71.0873854,115.992322 71.0516354,115.624827 C70.6136979,115.509798 70.3038646,115.208034 70.2681146,114.840538 C69.8301771,114.722522 69.5218333,114.422251 69.4831042,114.051768 C69.0481458,113.935245 68.7353333,113.633481 68.6980938,113.265985 C68.2631354,113.150956 67.9518125,112.849192 67.9160625,112.478709 C67.478125,112.362186 67.1668021,112.060422 67.1295625,111.692926 C66.6946042,111.57491 66.3832813,111.277627 66.3475313,110.910132 C65.9110833,110.790621 65.5997604,110.491844 65.5625208,110.121361 C65.1275625,110.003345 64.81475,109.703074 64.779,109.335579 C64.3410625,109.216068 64.0297396,108.918785 63.9954792,108.548302 C63.5575417,108.43178 63.2462188,108.130015 63.2119583,107.76252 C62.7740208,107.643009 62.4626979,107.345726 62.4269479,106.975243 C61.9890104,106.858721 61.6776875,106.55845 61.6419375,106.189461 C61.1786771,106.065469 60.8405417,105.736814 60.8405417,105.336454 L60.8405417,104.142841 C60.8405417,103.639402 61.3767917,103.228584 62.0336979,103.228584 L62.8872292,103.228584 C62.6265521,103.076208 62.45525,102.849138 62.4269479,102.586215 C61.9919896,102.46521 61.6791771,102.16494 61.6434271,101.797444 C61.1786771,101.671958 60.8405417,101.343304 60.8405417,100.941449 L60.8405417,99.7508245 C60.8405417,99.2443981 61.3767917,98.836568 62.0336979,98.836568 L62.8872292,98.836568 C62.6265521,98.6797102 62.45525,98.4541339 62.4269479,98.1882227 C61.9919896,98.0731937 61.6791771,97.7714293 61.6434271,97.403934 C61.1786771,97.2754601 60.8405417,96.9468058 60.8405417,96.547939 L60.8405417,95.3543263 C60.8405417,94.9330513 61.2308125,94.5864704 61.7462083,94.4848863 C61.7432292,94.3310164 61.7283333,94.1741586 61.7134375,94.015807 L60.9835417,94.015807 L60.9835417,93.9665089 C60.9835417,93.7319692 60.9522604,93.4780091 60.9314063,93.2285306 L60.1985313,93.2285306 L60.1985313,93.1822202 C60.1985313,92.9446928 60.1702292,92.6922265 60.1463958,92.4442419 L59.4150104,92.4442419 L59.4150104,92.3934499 C59.4150104,89.8687874 58.0803438,86.5568484 56.3151875,84.4564487 C56.1230313,84.2682194 55.8981042,84.042643 55.6463646,83.7812135 C55.4348438,83.5780454 55.1726771,83.3151219 54.8732708,83.007382 C52.5212188,80.7277163 43.9680313,71.7793562 43.9680313,62.4007577 C43.9680313,61.9630499 43.9814375,61.526836 44.0037813,61.0951038 C43.9814375,60.6618777 43.9680313,60.2241699 43.9680313,59.787956 C43.9680313,44.6384869 56.2183646,32.3542856 71.3272083,32.3542856 C79.0819792,32.3542856 86.0636563,35.6064693 91.0433333,40.8036888 C91.3099688,41.0561551 91.5691563,41.3175846 91.8223854,41.5864836 C92.0934896,41.8434315 92.3571458,42.1063549 92.6163333,42.3797355 C92.8814792,42.6322018 93.1391771,42.8936313 93.3938958,43.1610364 C93.6635104,43.4179843 93.9271667,43.6824016 94.1848646,43.9527945 C94.4485208,44.2052608 94.7047292,44.4622087 94.9579583,44.7281199 C95.2275729,44.9880555 95.4897396,45.250979 95.7489271,45.5228657 C96.0170521,45.7783197 96.2762396,46.0382554 96.5324479,46.3071544 C96.7975938,46.5641023 97.0582708,46.8240379 97.3159688,47.091443 C97.5826042,47.3498848 97.8447708,47.6128082 98.0994896,47.8787195 C98.366125,48.1356674 98.6268021,48.3970969 98.8830104,48.664502 C99.1496458,48.9229438 99.4133021,49.1843733 99.671,49.4547662 C99.9376354,49.7102202 100.198313,49.9731436 100.454521,50.2390548 C100.718177,50.4945089 100.978854,50.7559384 101.235063,51.0218496 C101.504677,51.2817853 101.765354,51.5462026 102.024542,51.8136077 C102.289688,52.0705556 102.548875,52.3304913 102.803594,52.5964025 C103.070229,52.8548443 103.332396,53.1162738 103.590094,53.3866667 C103.856729,53.6421207 104.115917,53.9020564 104.370635,54.1679676 C104.63876,54.4279032 104.900927,54.6893328 105.158625,54.9582318 C105.423771,55.2166735 105.685938,55.4751153 105.942146,55.7425204 C106.210271,56.0009622 106.470948,56.2638856 106.725667,56.5312907 C106.992302,56.7852509 107.252979,57.0466804 107.507698,57.3140855 C107.777313,57.5725273 108.040969,57.8399324 108.301646,58.1103252 C108.563813,58.3612976 108.82151,58.6182455 109.070271,58.8826628 C109.339885,59.1411046 109.606521,59.4055219 109.864219,59.6774087 C110.132344,59.9343566 110.391531,60.1942922 110.64476,60.4616973 C110.912885,60.7186452 111.173563,60.9800748 111.429771,61.2474799 C111.696406,61.5044278 111.957083,61.7658573 112.214781,62.0332624 C112.481417,62.2917042 112.742094,62.5546276 112.999792,62.8205388 C113.266427,63.0789806 113.528594,63.3404102 113.784802,63.6078153 C114.046969,63.8632693 114.304667,64.1217111 114.559385,64.3846345 C114.831979,64.6475579 115.098615,64.9164569 115.359292,65.1883436 C115.622948,65.4423038 115.880646,65.7007456 116.133875,65.9651629 C116.40051,66.2236047 116.661188,66.4850342 116.917396,66.7509454 C117.185521,67.0093872 117.447688,67.2723107 117.703896,67.5397157 C117.970531,67.7981575 118.231208,68.0580932 118.487417,68.3254983 C118.755542,68.5824462 119.014729,68.8453696 119.272427,69.1112808 C119.539063,69.3697226 119.79974,69.6311522 120.058927,69.9000511 C120.324073,70.1584929 120.58624,70.4199225 120.843938,70.6888214 C121.109083,70.9442755 121.368271,71.2027173 121.618521,71.4686285 C121.889625,71.7240825 122.151792,71.9870059 122.40651,72.2588926 C122.673146,72.5128528 122.930844,72.7727885 123.187052,73.0372058 C123.458156,73.2986353 123.723302,73.5630526 123.981,73.8349394 C124.246146,74.0874056 124.505333,74.3503291 124.760052,74.6162403 C125.029667,74.8746821 125.287365,75.1346177 125.543573,75.4020228 C125.811698,75.6589707 126.072375,75.9218942 126.328583,76.1907931 C126.595219,76.4462471 126.857385,76.7091706 127.113594,76.9780696 C127.381719,77.2350175 127.640906,77.4949531 127.898604,77.7623582 C128.16226,78.0193061 128.422938,78.2777479 128.676167,78.5436591 C128.944292,78.8035948 129.207948,79.0650243 129.465646,79.3354172 C129.733771,79.593859 129.992958,79.8537946 130.249167,80.1211997 C130.517292,80.3781476 130.777969,80.6410711 131.035667,80.90997 C131.300813,81.1669179 131.55851,81.4268536 131.814719,81.6912709 C132.082844,81.9497127 132.34501,82.2126362 132.602708,82.4800412 C132.869344,82.7369891 133.130021,82.9999126 133.386229,83.2673177 C133.654354,83.5257595 133.913542,83.7856951 134.16975,84.0531002 C134.439365,84.3130359 134.701531,84.5759593 134.959229,84.8463522 C135.221396,85.0988184 135.479094,85.3542724 135.729344,85.6171959 C136.001938,85.8771315 136.265594,86.1430427 136.524781,86.4134356 C136.791417,86.6718774 137.050604,86.9303192 137.303833,87.1977243 C137.573448,87.456166 137.835615,87.7175956 138.090333,87.9879885 C138.359948,88.2434425 138.619135,88.5033781 138.873854,88.773771 C139.141979,89.0277311 139.401167,89.2891607 139.658865,89.5565658 L139.865917,89.7657094 C133.70351,112.807363 116.302198,131.220967 93.9137604,138.757608" id="Fill-4" fill-opacity="0.15905231" fill="#1B3655"></path>
                    <path d="M72.4890833,60.2406026 L72.4890833,65.5991615 C74.4761875,65.3227931 75.4712292,64.4787491 75.4712292,63.0655357 C75.4712292,62.4007577 75.2656667,61.8704291 74.8575208,61.4566235 C74.449375,61.0517812 73.6613854,60.6454449 72.4890833,60.2406026 L72.4890833,60.2406026 Z M67.9562813,54.507079 C67.9562813,55.2077102 68.1618438,55.7694103 68.5729688,56.1891915 C68.9870729,56.6119604 69.7020729,57.0123211 70.7164792,57.3872858 L70.7164792,52.0556168 C69.8093229,52.2050051 69.1256042,52.4888429 68.6563854,52.9175874 C68.1886563,53.3433441 67.9562813,53.8751665 67.9562813,54.507079 L67.9562813,54.507079 Z M77.8054063,62.8832819 C77.8054063,62.0795728 77.6370833,61.3879049 77.2989479,60.8247109 C76.9578333,60.261517 76.4335,59.76256 75.7170104,59.3233584 C75.0035,58.8901322 73.9280208,58.4404734 72.4890833,57.9788635 L72.4890833,51.9988492 C73.8997188,52.103421 75.2865208,52.4246059 76.6509792,52.9653916 L77.3659792,51.1592869 C75.8004271,50.5258804 74.1738021,50.1882628 72.4890833,50.1404586 L72.4890833,47.6591186 L70.7164792,47.6591186 L70.7164792,50.1688423 C69.1851875,50.3331695 67.9562813,50.8022488 67.0282708,51.5730925 C66.0987708,52.3454301 65.6355104,53.3343808 65.6355104,54.5354628 C65.6355104,55.785843 66.012375,56.8046713 66.7661042,57.5949355 C67.5228125,58.3851997 68.8396042,59.0798554 70.7164792,59.6744209 L70.7164792,65.7380926 C69.9016771,65.7380926 68.9960104,65.6290392 68.0024583,65.4124261 C67.0089063,65.1988008 66.1315417,64.9224324 65.3733438,64.5788393 L65.3733438,66.7270433 C65.9870521,67.0138689 66.7735521,67.2364575 67.7388021,67.3977968 C68.6966042,67.5591362 69.6901563,67.638312 70.7164792,67.638312 L70.7164792,70.7112297 L72.4890833,70.7112297 L72.4890833,67.5128258 C74.1648646,67.3021883 75.4712292,66.7897864 76.4051979,65.977114 C77.3376771,65.1659354 77.8054063,64.135156 77.8054063,62.8832819 L77.8054063,62.8832819 Z M86.2707083,59.6669515 C86.2707083,67.9445581 79.5795,74.6535874 71.3272083,74.6535874 C63.0689583,74.6535874 56.3807292,67.9445581 56.3807292,59.6669515 C56.3807292,51.387851 63.0689583,44.6743401 71.3272083,44.6743401 C79.5795,44.6743401 86.2707083,51.387851 86.2707083,59.6669515 L86.2707083,59.6669515 Z" id="Fill-5" fill="#FFFFFF"></path>
                    <path d="M88.9087604,59.6669515 C88.9087604,49.9417721 81.0229063,42.0301669 71.3272083,42.0301669 C61.6300208,42.0301669 53.7411875,49.9417721 53.7411875,59.6669515 C53.7411875,69.390637 61.6300208,77.2992544 71.3272083,77.2992544 C81.0229063,77.2992544 88.9087604,69.390637 88.9087604,59.6669515 L88.9087604,59.6669515 Z M98.6491458,61.0951038 C98.6670208,61.526836 98.6819167,61.9630499 98.6819167,62.4007577 C98.6819167,73.2732393 87.1704167,83.582527 87.1704167,83.582527 C85.0075417,85.5215874 83.2334479,89.4833655 83.2334479,92.3934499 L83.2334479,92.4442419 L59.4150104,92.4442419 L59.4150104,92.3934499 C59.4150104,89.4833655 57.6424063,85.5215874 55.4780417,83.582527 C55.4780417,83.582527 43.9680313,73.2732393 43.9680313,62.4007577 C43.9680313,61.9630499 43.9814375,61.526836 44.0037813,61.0951038 C43.9814375,60.6618777 43.9680313,60.2241699 43.9680313,59.787956 C43.9680313,44.6384869 56.2183646,32.3542856 71.3272083,32.3542856 C86.4345625,32.3542856 98.6819167,44.6384869 98.6819167,59.787956 C98.6819167,60.2241699 98.6670208,60.6618777 98.6491458,61.0951038 L98.6491458,61.0951038 Z" id="Fill-6" fill="#FFCB2A"></path>
                    <path d="M65.1811875,107.557858 L77.4181146,107.557858 C76.2979479,109.114484 73.9831354,110.206513 71.3167813,110.206513 C68.6623438,110.206513 66.3117813,109.101039 65.1811875,107.557858" id="Fill-7" fill="#4B535D"></path>
                    <path d="M80.598375,103.228584 L62.0351875,103.228584 C61.3767917,103.228584 60.8405417,103.639402 60.8405417,104.144335 L60.8405417,105.336454 C60.8405417,105.844374 61.3767917,106.25071 62.0351875,106.25071 L80.598375,106.25071 C81.2567708,106.25071 81.7915312,105.844374 81.7915312,105.336454 L81.7915312,104.144335 C81.7915312,103.639402 81.2567708,103.228584 80.598375,103.228584" id="Fill-8" fill="#4B535D"></path>
                    <path d="M80.598375,94.4385759 L62.0351875,94.4385759 C61.3767917,94.4385759 60.8405417,94.8538755 60.8405417,95.3543263 L60.8405417,96.547939 C60.8405417,97.0513776 61.3767917,97.4651832 62.0351875,97.4651832 L80.598375,97.4651832 C81.2567708,97.4651832 81.7915312,97.0513776 81.7915312,96.547939 L81.7915312,95.3543263 C81.7915312,94.8538755 81.2567708,94.4385759 80.598375,94.4385759" id="Fill-9" fill="#4B535D"></path>
                    <path d="M80.598375,98.836568 L62.0351875,98.836568 C61.3767917,98.836568 60.8405417,99.2443981 60.8405417,99.7508245 L60.8405417,100.941449 C60.8405417,101.447876 61.3767917,101.8572 62.0351875,101.8572 L80.598375,101.8572 C81.2567708,101.8572 81.7915312,101.447876 81.7915312,100.941449 L81.7915312,99.7508245 C81.7915312,99.2443981 81.2567708,98.836568 80.598375,98.836568" id="Fill-10" fill="#4B535D"></path>
                </g>
            </g>
        </g>
    </g>
</svg>