<?xml version="1.0" encoding="UTF-8" standalone="no"?>
<svg width="27px" height="38px" viewBox="0 0 27 38" version="1.1" xmlns="http://www.w3.org/2000/svg" xmlns:xlink="http://www.w3.org/1999/xlink" xmlns:sketch="http://www.bohemiancoding.com/sketch/ns">
    <!-- Generator: Sketch 3.3.3 (12081) - http://www.bohemiancoding.com/sketch -->
    <title>Group</title>
    <desc>Created with Sketch.</desc>
    <defs></defs>
    <g id="3.0-screens" stroke="none" stroke-width="1" fill="none" fill-rule="evenodd" sketch:type="MSPage">
        <g id="Artboard-29-Copy-73" sketch:type="MSArtboardGroup" transform="translate(-296.000000, -752.000000)">
            <g id="Group-Copy-19" sketch:type="MSLayerGroup" transform="translate(260.000000, 737.000000)">
                <g id="Group" transform="translate(36.000000, 15.000000)" sketch:type="MSShapeGroup">
                    <path d="M22.1345809,13.3081539 C22.1345809,8.63021949 18.3324727,4.82463723 13.6577612,4.82463723 C8.98233147,4.82463723 5.17878683,8.63021949 5.17878683,13.3081539 C5.17878683,17.9853697 8.98233147,21.7895148 13.6577612,21.7895148 C18.3324727,21.7895148 22.1345809,17.9853697 22.1345809,13.3081539 L22.1345809,13.3081539 Z M26.8308382,13.9951132 C26.8394565,14.2027819 26.8466384,14.4126063 26.8466384,14.6231493 C26.8466384,19.8529506 21.2964509,24.8118484 21.2964509,24.8118484 C20.2536362,25.744561 19.3982695,27.6502264 19.3982695,29.0500139 L19.3982695,29.0744455 L7.91438002,29.0744455 L7.91438002,29.0500139 C7.91438002,27.6502264 7.05973158,25.744561 6.01619866,24.8118484 C6.01619866,24.8118484 0.466729353,19.8529506 0.466729353,14.6231493 C0.466729353,14.4126063 0.47319308,14.2027819 0.48396596,13.9951132 C0.47319308,13.786726 0.466729353,13.576183 0.466729353,13.3663586 C0.466729353,6.07927217 6.37314007,0.170415875 13.6577612,0.170415875 C20.9416641,0.170415875 26.8466384,6.07927217 26.8466384,13.3663586 C26.8466384,13.576183 26.8394565,13.786726 26.8308382,13.9951132 L26.8308382,13.9951132 Z" id="Fill-6" fill="#FFCB2A"></path>
                    <path d="M10.6945011,36.3442861 L16.5944481,36.3442861 C16.0543677,37.093043 14.9382974,37.6183226 13.6527338,37.6183226 C12.3729157,37.6183226 11.2396088,37.0865758 10.6945011,36.3442861" id="Fill-7" fill="#4B535D"></path>
                    <path d="M18.1277879,34.2618508 L9.17767969,34.2618508 C8.86023884,34.2618508 8.60168973,34.4594594 8.60168973,34.7023383 L8.60168973,35.2757625 C8.60168973,35.5200786 8.86023884,35.7155314 9.17767969,35.7155314 L18.1277879,35.7155314 C18.4452288,35.7155314 18.7030597,35.5200786 18.7030597,35.2757625 L18.7030597,34.7023383 C18.7030597,34.4594594 18.4452288,34.2618508 18.1277879,34.2618508" id="Fill-8" fill="#4B535D"></path>
                    <path d="M18.1277879,30.0337454 L9.17767969,30.0337454 C8.86023884,30.0337454 8.60168973,30.2335097 8.60168973,30.4742329 L8.60168973,31.0483757 C8.60168973,31.2905361 8.86023884,31.4895818 9.17767969,31.4895818 L18.1277879,31.4895818 C18.4452288,31.4895818 18.7030597,31.2905361 18.7030597,31.0483757 L18.7030597,30.4742329 C18.7030597,30.2335097 18.4452288,30.0337454 18.1277879,30.0337454" id="Fill-9" fill="#4B535D"></path>
                    <path d="M18.1277879,32.1492352 L9.17767969,32.1492352 C8.86023884,32.1492352 8.60168973,32.3454067 8.60168973,32.5890042 L8.60168973,33.1617098 C8.60168973,33.4053073 8.86023884,33.6021973 9.17767969,33.6021973 L18.1277879,33.6021973 C18.4452288,33.6021973 18.7030597,33.4053073 18.7030597,33.1617098 L18.7030597,32.5890042 C18.7030597,32.3454067 18.4452288,32.1492352 18.1277879,32.1492352" id="Fill-10" fill="#4B535D"></path>
                </g>
            </g>
        </g>
    </g>
</svg>