<?xml version="1.0" encoding="UTF-8" standalone="no"?>
<svg width="142px" height="142px" viewBox="0 0 142 142" version="1.1" xmlns="http://www.w3.org/2000/svg" xmlns:xlink="http://www.w3.org/1999/xlink" xmlns:sketch="http://www.bohemiancoding.com/sketch/ns">
    <!-- Generator: Sketch 3.3.3 (12081) - http://www.bohemiancoding.com/sketch -->
    <title>Group</title>
    <desc>Created with Sketch.</desc>
    <defs></defs>
    <g id="Scratch-pad" stroke="none" stroke-width="1" fill="none" fill-rule="evenodd" sketch:type="MSPage">
        <g id="Artboard-29-Copy-64" sketch:type="MSArtboardGroup" transform="translate(-538.000000, -514.000000)">
            <g id="Group" sketch:type="MSLayerGroup" transform="translate(538.000000, 514.000000)">
                <path d="M141.103527,70.8512615 C141.103527,109.855592 109.720476,141.474074 71.0014713,141.474074 C32.2839378,141.474074 0.896472835,109.855592 0.896472835,70.8512615 C0.896472835,31.8484137 32.2839378,0.228448972 71.0014713,0.228448972 C109.720476,0.228448972 141.103527,31.8484137 141.103527,70.8512615" id="Fill-122-Copy" fill-opacity="0.525701993" fill="#263238" sketch:type="MSShapeGroup"></path>
                <path d="M90.5154613,138.68011 C90.3595024,138.540782 90.2314984,138.379222 90.149105,138.18357 C89.78422,138.010152 89.5252694,137.752247 89.3737244,137.403928 C89.0103107,137.23051 88.7484175,136.971123 88.5983438,136.622804 C88.2364015,136.449386 87.9745082,136.191481 87.8244346,135.843162 C87.4595496,135.668261 87.2005989,135.410357 87.049054,135.06352 C86.6856403,134.888619 86.4252184,134.630715 86.2751447,134.282396 C85.9102597,134.107495 85.6483665,133.849591 85.4968215,133.501272 C85.1348791,133.326371 84.8773998,133.069949 84.7243835,132.723112 C84.3624412,132.548211 84.1034905,132.290307 83.9519456,131.941988 C83.5885319,131.768569 83.3266386,131.509183 83.176565,131.162346 C82.8131513,130.987445 82.5527293,130.728059 82.4026557,130.381222 C82.039242,130.204839 81.7788201,129.948417 81.6287464,129.603062 C81.2653327,129.426679 81.0034395,129.168775 80.8518945,128.820456 C80.4884808,128.645555 80.2280589,128.387651 80.0765139,128.039332 C79.7131003,127.864431 79.4526783,127.606527 79.304076,127.25969 C78.9406623,127.084789 78.683183,126.828367 78.531638,126.483012 C78.166753,126.306629 77.9033884,126.047243 77.7547861,125.698924 C77.3928437,125.524023 77.1324218,125.266119 76.9808768,124.920764 C76.6174632,124.745863 76.3585125,124.486477 76.2069675,124.13964 C75.8435539,123.966221 75.5816606,123.705352 75.4330583,123.358516 C75.0681733,123.183615 74.8077513,122.925711 74.6562064,122.578874 C74.2927927,122.402491 74.0308994,122.144586 73.8808258,121.796267 C73.5188834,121.622849 73.2599328,121.364944 73.1083878,121.01959 C72.7449741,120.844689 72.4845522,120.586785 72.3315359,120.238466 C71.9681223,120.063565 71.7077003,119.804178 71.5561553,119.455859 C71.1956843,119.280959 70.9352623,119.024536 70.7851887,118.679182 C70.421775,118.504281 70.1628244,118.246377 70.0098081,117.898058 C69.6463944,117.723157 69.3859725,117.465253 69.2358988,117.116933 C68.8710138,116.943515 68.6105919,116.684128 68.4590469,116.337292 C68.0971046,116.160909 67.8366826,115.903004 67.686609,115.556167 C67.3231953,115.381267 67.0627733,115.124845 66.9126997,114.776525 C66.549286,114.603107 66.2888641,114.34372 66.1358478,113.996884 C65.7724341,113.821983 65.5120122,113.562596 65.3604672,113.215759 C64.9985248,113.039376 64.7366316,112.782954 64.5895005,112.436117 C64.2260869,112.261217 63.9641936,112.003312 63.8155913,111.654993 C63.4507063,111.480093 63.1902843,111.222188 63.0402107,110.875351 C62.676797,110.700451 62.4163751,110.441064 62.2648301,110.095709 C61.9014164,109.919327 61.6424658,109.661422 61.4894495,109.314585 C61.1275071,109.139685 60.8656139,108.880298 60.7170115,108.534943 C60.3535979,108.35856 60.0931759,108.100656 59.9416309,107.753819 C59.5782173,107.580401 59.3177953,107.321014 59.1677217,106.975659 C58.8028367,106.799277 58.5409434,106.541372 58.3908698,106.193053 C58.0289274,106.01667 57.7685055,105.760248 57.6154892,105.411929 C57.2535468,105.237028 56.9931249,104.980606 56.8445225,104.635251 C56.4796376,104.458869 56.2177443,104.200964 56.0676706,103.852645 C55.704257,103.677744 55.4453063,103.41984 55.2937614,103.073003 C54.9303477,102.89662 54.6684544,102.638716 54.5183808,102.291879 C54.1564384,102.116978 53.8960165,101.859074 53.7444715,101.513719 C53.3810578,101.337336 53.1221072,101.080914 52.9690909,100.732595 C52.6056772,100.557694 52.343784,100.298308 52.1937103,99.9499887 C51.831768,99.7750881 51.5728173,99.5171837 51.4227437,99.171829 C51.0578587,98.9969284 50.7974367,98.739024 50.6473631,98.3921871 C50.2824781,98.2158042 50.0220562,97.9593821 49.8734538,97.6110629 C49.5085688,97.4361623 49.2481469,97.1782579 49.0980732,96.8299388 C48.7361309,96.6550381 48.4742376,96.3971338 48.3256353,96.0502968 C47.9607503,95.8753962 47.7017996,95.6160096 47.5487834,95.2706549 C47.1853697,95.0957542 46.9264191,94.8363677 46.7734028,94.4895308 C46.4099891,94.3146301 46.1510385,94.0582079 46.0009648,93.7098888 C45.6375511,93.5349882 45.3771292,93.2770838 45.2255842,92.9302469 C44.8606992,92.7553462 44.6017486,92.4959597 44.4502036,92.1491227 C44.08679,91.9742221 43.826368,91.7148355 43.6762944,91.3679986 C43.3128807,91.1930979 43.05393,90.9366758 42.9009138,90.5883567 C42.5375001,90.413456 42.2785495,90.1555516 42.1284758,89.8087147 C41.7635908,89.6338141 41.5031689,89.3759097 41.3516239,89.0275906 C40.3305345,88.5384616 40.0686412,87.4356981 40.8896324,85.470289 C41.0352922,85.1027011 41.2589313,84.5854102 41.5252385,83.967329 L41.5208246,83.9628824 C44.4001791,77.2751554 50.7385843,61.7875534 51.6699238,60.0711554 C51.6699238,60.0711554 53.1324064,56.515336 55.8646298,56.515336 C56.0397157,56.515336 56.2192156,56.5301581 56.4031294,56.5598023 L56.4031294,57.3157289 C56.5031785,57.3083178 56.6032276,57.3038712 56.7062194,57.3038712 C56.8592356,57.3038712 57.0166659,57.3142467 57.17851,57.3409264 L57.1755674,58.0953708 C57.2770878,58.0879598 57.3786082,58.0835131 57.4815999,58.0835131 C57.6346162,58.0835131 57.7905751,58.0938886 57.9524193,58.1205684 L57.950948,58.876495 C58.0509971,58.8690839 58.1510462,58.8631551 58.2540379,58.8631551 C58.4070542,58.8631551 58.5644844,58.8750127 58.7277999,58.9016925 L58.7263285,59.6561369 L58.8101932,59.6487258 C58.8131359,56.9436944 59.3884182,54.2268053 60.3477126,51.3261223 C61.695433,47.2544941 63.6213783,42.2120191 65.3472254,38.3345603 C66.378614,36.0312075 68.0426661,34.4333862 69.0152023,34.0657984 C69.7802837,33.7782498 70.5483077,33.6329934 71.2942621,33.6329934 C72.0387452,33.6329934 72.7611586,33.7782498 73.4350187,34.0657984 C73.9455634,34.2851653 74.659149,34.8380293 75.3742059,35.6473154 C75.6243286,35.8696468 75.8832793,36.1290333 76.1481151,36.4239929 C76.3997092,36.6478065 76.6601312,36.9101575 76.924967,37.2080815 C77.1750898,37.4304128 77.4340404,37.6897994 77.6959337,37.9862412 C77.9504704,38.2085726 78.2079497,38.4679591 78.469843,38.7658832 C78.7243797,38.9882145 78.9848016,39.2490833 79.2452235,39.5470073 C79.4997602,39.7708209 79.7601822,40.0316896 80.0220754,40.3310959 C80.2751408,40.5534272 80.5311488,40.8098494 80.7915708,41.1062912 C81.0461075,41.3286225 81.3065294,41.5894913 81.569894,41.8888975 C81.8229594,42.1112289 82.08191,42.3706155 82.342332,42.6685395 C82.5968687,42.8908708 82.8572906,43.1502574 83.1177125,43.4481814 C83.3707779,43.671995 83.6297286,43.9298993 83.8930931,44.2278233 C84.1446872,44.4501547 84.4051092,44.7125057 84.6684737,45.0104297 C84.9200678,45.232761 85.1790184,45.4906654 85.4379691,45.7871072 C85.6939771,46.0109208 85.9558703,46.2732718 86.2207062,46.572678 C86.4723003,46.7950093 86.7297796,47.0529137 86.9916729,47.3508377 C87.2432669,47.5731691 87.5036889,47.8325556 87.7655821,48.1289974 C88.0157049,48.3513288 88.2775982,48.6121976 88.5409627,48.9116038 C88.7925568,49.1339352 89.0515074,49.3933217 89.314872,49.6912457 C89.5664661,49.9135771 89.8254167,50.1729637 90.0887813,50.4708877 C90.3403754,50.693219 90.6007973,50.9540878 90.8656332,51.2520118 C91.1157559,51.4743432 91.3761779,51.7337298 91.6365998,52.0301716 C91.8896652,52.2539851 92.1500872,52.5133717 92.4134517,52.8127779 C92.6665171,53.0365915 92.9254677,53.295978 93.1888323,53.5939021 C93.4418977,53.8162334 93.699377,54.07562 93.959799,54.3720618 C94.2128644,54.5943931 94.471815,54.8537797 94.7351796,55.1517037 C94.9882449,55.3740351 95.2471956,55.6349039 95.5105601,55.9328279 C95.7636255,56.1551592 96.0240475,56.416028 96.2859407,56.713952 C96.5375348,56.9362834 96.7979568,57.1956699 97.05985,57.493594 C97.3143867,57.7159253 97.5733373,57.9767941 97.8352306,58.2762003 C98.088296,58.4985317 98.3487179,58.7579182 98.6106112,59.05436 C98.8607339,59.2766914 99.1196846,59.536078 99.3815778,59.8325198 C99.6346432,60.0548511 99.8935939,60.3157199 100.155487,60.6121617 C100.410024,60.8359753 100.670446,61.096844 100.93381,61.3947681 C101.186876,61.6170994 101.444355,61.876486 101.706248,62.17441 C101.959314,62.3967413 102.219736,62.6576101 102.481629,62.9540519 C102.731752,63.1778655 102.993645,63.4372521 103.257009,63.7351761 C103.508604,63.9575074 103.766083,64.2183762 104.030919,64.5163002 C104.283984,64.7401138 104.542935,64.9995004 104.807771,65.2974244 C105.057893,65.5197557 105.316844,65.7791423 105.580209,66.0755841 C105.831803,66.2993977 106.092225,66.5602664 106.355589,66.8581905 C106.607183,67.082004 106.866134,67.3399084 107.128027,67.6363502 C107.381093,67.8601637 107.638572,68.1180681 107.898994,68.4145099 C108.155002,68.6383235 108.415424,68.8991923 108.677317,69.1971163 C108.930382,69.4209298 109.189333,69.6803164 109.452698,69.9782404 C109.705763,70.2005718 109.963242,70.4599583 110.226607,70.7578824 C110.479672,70.9802137 110.740094,71.2410825 111.001987,71.5390065 C111.253582,71.7613379 111.512532,72.0222066 111.774425,72.3171662 C112.028962,72.5409798 112.287913,72.8018486 112.549806,73.0997726 C112.802871,73.3221039 113.061822,73.5814905 113.325187,73.8779323 C113.576781,74.1017459 113.837203,74.3626147 114.102038,74.6620209 C114.352161,74.8843522 114.609641,75.1407744 114.870063,75.435734 C115.124599,75.6595475 115.386492,75.9204163 115.648386,76.2198225 C115.902922,76.4421539 116.160402,76.7015405 116.422295,76.9994645 C116.676832,77.223278 116.935782,77.4826646 117.197676,77.7805886 C117.450741,78.00292 117.709692,78.2623066 117.973056,78.5602306 C118.22465,78.7840441 118.485072,79.0434307 118.746965,79.3413547 C118.99856,79.5651683 119.258981,79.8245549 119.520875,80.1209967 C119.772469,80.343328 120.031419,80.6027146 120.291841,80.8976742 C120.547849,81.1229699 120.808271,81.3868031 121.074579,81.6862094 C121.324701,81.9085407 121.580709,82.1634807 121.83966,82.4584403 C122.095668,82.6822538 122.353147,82.9431226 122.617983,83.2410466 C122.87252,83.463378 123.13147,83.7242467 123.391892,84.0221708 C123.646429,84.2459843 123.90538,84.5038887 124.167273,84.8032949 C124.42181,85.0256263 124.679289,85.2850128 124.942654,85.5829368 C125.195719,85.8067504 125.456141,86.0676192 125.718034,86.364061 C125.968157,86.5849101 126.227108,86.8442967 126.48753,87.1377741 C126.743538,87.3630699 127.003959,87.6239386 127.265853,87.9233449 C127.520389,88.1456762 127.77934,88.406545 128.039762,88.704469 C128.292827,88.9268004 128.551778,89.1861869 128.815143,89.4826287 C129.066737,89.7049601 129.325687,89.9658289 129.589052,90.2637529 C129.842117,90.4860842 130.101068,90.746953 130.364432,91.044877 C130.617498,91.2672084 130.876448,91.526595 131.138342,91.824519 C131.391407,92.0468503 131.650358,92.3062369 131.912251,92.6026787 C132.163845,92.8264923 132.425738,93.087361 132.690574,93.3867673 C132.940697,93.6090986 133.201119,93.8699674 133.464484,94.1664092 C133.714606,94.3887406 133.973557,94.6466449 134.232508,94.9416045 C134.487044,95.1654181 134.748937,95.4277691 135.013773,95.7286575 C135.265367,95.9509888 135.522847,96.2103754 135.78474,96.505335 L136.162867,96.8877449 C128.229561,117.02059 111.381586,132.598607 90.5154613,138.68011" id="Fill-123-Copy" fill-opacity="0.464900362" fill="#263238" sketch:type="MSShapeGroup"></path>
                <path d="M77.5841141,90.9692844 L64.8764061,90.96632 L64.8719921,96.3615607 L77.5841141,96.3571141 L77.5841141,90.9692844" id="Fill-124-Copy" fill="#FF5455" sketch:type="MSShapeGroup"></path>
                <path d="M64.8675782,98.18616 L64.7778283,98.5152104 L62.5075963,106.772597 L68.4193215,102.911442 L71.6120651,108.06953 L74.8239358,103.126363 L80.2059892,106.568052 L77.3590036,98.18616 L64.8675782,98.18616" id="Fill-125-Copy" fill="#F6C429" sketch:type="MSShapeGroup"></path>
                <path d="M71.2177539,74.8591547 C66.1858723,74.8591547 62.1132851,70.7475069 62.1088712,65.6798343 C62.1132851,60.6091973 66.1858723,56.4975495 71.2177539,56.4975495 C76.2628773,56.4975495 80.3428211,60.6091973 80.3428211,65.6798343 C80.3398785,70.7475069 76.2628773,74.8591547 71.2177539,74.8591547 L71.2177539,74.8591547 Z M77.100053,38.3360425 C76.0745496,36.034172 74.3943131,34.4778525 73.4350187,34.0657984 C72.0872984,33.4892191 70.5453651,33.4892191 69.0152023,34.0657984 C68.0426661,34.4333862 66.378614,36.0312075 65.3472254,38.3360425 C63.6213783,42.2120191 61.695433,47.2544941 60.3477126,51.3261223 C59.3840043,54.2371808 58.8087219,56.9585165 58.8087219,59.6724412 L58.8087219,89.3388545 L83.6429704,89.3447833 C83.6429704,89.3447833 83.6488556,62.9733207 83.6429704,59.6724412 C83.6429704,56.9585165 83.0735732,54.2371808 82.1069223,51.3261223 C80.7562593,47.2544941 78.8347279,42.2120191 77.100053,38.3360425 L77.100053,38.3360425 Z" id="Fill-126-Copy" fill="#FFFFFF" sketch:type="MSShapeGroup"></path>
                <path d="M51.6699238,60.0711554 C50.7385843,61.7875534 44.4001791,77.2751554 41.5208246,83.9628824 L41.5252385,83.967329 C41.2589313,84.5854102 41.0352922,85.1027011 40.8896324,85.470289 C39.7243546,88.2627707 40.702776,89.3388545 43.011262,89.3447833 L55.9838059,89.3388545 L55.9838059,89.264744 L56.3428057,89.264744 L56.4031294,56.5598023 C53.325148,56.046958 51.6699238,60.0711554 51.6699238,60.0711554" id="Fill-127-Copy" fill="#4990E2" sketch:type="MSShapeGroup"></path>
                <path d="M101.111839,85.470289 C100.957351,85.0997367 100.744011,84.5854102 100.476233,83.967329 L100.477704,83.967329 C97.6027635,77.2751554 91.2599444,61.7875534 90.3315475,60.0711554 C90.3315475,60.0711554 88.6763233,56.046958 85.5968706,56.5627667 L85.6630796,89.264744 L86.0161941,89.264744 L86.020608,89.3447833 L98.988738,89.3447833 C101.294281,89.3447833 102.277117,88.2627707 101.111839,85.470289" id="Fill-128-Copy" fill="#4990E2" sketch:type="MSShapeGroup"></path>
                <path d="M70.4423734,69.6714232 L71.6356061,69.6714232 C72.5066219,69.6714232 73.1436993,69.5172734 73.5497809,69.2060095 C73.9823462,68.8739947 74.1971575,68.4486007 74.1971575,67.9313098 C74.1971575,67.4332876 73.9911741,67.0153046 73.5747932,66.6758788 C73.1716542,66.3364529 72.455126,66.1719277 71.4178522,66.1719277 L70.4423734,66.1674811 L70.4423734,69.6714232 L70.4423734,69.6714232 Z M70.4423734,64.7104696 L71.0456106,64.7104696 C71.7606675,64.7104696 72.2888679,64.5637309 72.6213841,64.2761824 C72.9539002,63.9915982 73.1231009,63.5632398 73.1231009,63.004447 C73.1231009,62.4619585 72.9494863,62.0499044 72.6125562,61.7638381 C72.265327,61.4837006 71.772438,61.3399263 71.1221188,61.3399263 L70.4423734,61.3399263 L70.4423734,64.7104696 L70.4423734,64.7104696 Z M68.5120141,71.3151929 L68.5149567,59.7391406 L70.4350168,59.7391406 C71.2913195,59.7391406 71.9725362,59.798429 72.4801383,59.9170057 C72.9892117,60.0370646 73.4217769,60.2401272 73.7778341,60.5247114 C74.1338912,60.819671 74.4178541,61.1857766 74.6282515,61.6259927 C74.8415915,62.0706554 74.9489971,62.5212469 74.9489971,62.9762851 C74.9504685,63.8048399 74.6002966,64.507407 73.8955389,65.0810219 C74.5796982,65.2900133 75.1137839,65.6576012 75.5036812,66.1867498 C75.9024063,66.7070051 76.1025045,67.3117464 76.1025045,68.0009736 C76.1025045,68.9066033 75.7479187,69.6714232 75.0402184,70.2939509 C74.616481,70.6778431 74.142719,70.9476051 73.6101047,71.0973082 C73.0348223,71.2410825 72.3050523,71.3151929 71.4340366,71.3151929 L68.5120141,71.3151929 L68.5120141,71.3151929 Z" id="Fill-129-Copy" fill="#FF5455" sketch:type="MSShapeGroup"></path>
            </g>
        </g>
    </g>
</svg>