<?xml version="1.0" encoding="utf-8"?>
<!-- Generator: Adobe Illustrator 16.0.0, SVG Export Plug-In . SVG Version: 6.00 Build 0)  -->
<!DOCTYPE svg PUBLIC "-//W3C//DTD SVG 1.1//EN" "http://www.w3.org/Graphics/SVG/1.1/DTD/svg11.dtd">
<svg version="1.1" id="Layer_1" xmlns="http://www.w3.org/2000/svg" xmlns:xlink="http://www.w3.org/1999/xlink" x="0px" y="0px"
	 width="512px" height="512px" viewBox="0 0 512 512" enable-background="new 0 0 512 512" xml:space="preserve">
<path d="M399.75,349.906c3.656,6.188,5.5,13.406,5.5,21.688c0,12.688-3.781,23.25-11.344,31.719s-18.469,13.469-32.75,14.969V440
	h-18.188v-21.625c-23.781-2.438-38.5-16.281-44.188-41.469l28.125-7.344c2.594,15.844,11.219,23.781,25.875,23.781
	c6.844,0,11.906-1.688,15.125-5.094s4.844-7.469,4.844-12.281c0-4.969-1.625-8.75-4.844-11.281
	c-3.219-2.563-10.406-5.813-21.531-9.75c-10-3.469-17.813-6.875-23.438-10.313c-5.625-3.375-10.188-8.094-13.688-14.188
	c-3.531-6.125-5.281-13.25-5.281-21.344c0-10.625,3.156-20.219,9.406-28.719c6.281-8.5,16.125-13.688,29.594-15.594V248h18.188
	v16.781c20.313,2.438,33.5,13.938,39.5,34.5l-25.094,10.281c-4.875-14.094-12.406-21.156-22.656-21.156
	c-5.125,0-9.25,1.563-12.344,4.719c-3.125,3.156-4.688,6.969-4.688,11.469c0,4.563,1.5,8.063,4.5,10.531
	c3,2.438,9.406,5.469,19.25,9.063c10.781,3.938,19.281,7.688,25.406,11.188C391.188,338.875,396.063,343.75,399.75,349.906z
	 M512,344c0,88.375-71.625,160-160,160s-160-71.625-160-160s71.625-160,160-160S512,255.625,512,344z M480,344
	c0-70.594-57.406-128-128-128s-128,57.406-128,128s57.406,128,128,128S480,414.594,480,344z M256,56h192c8.844,0,16-5.375,16-12V20
	c0-6.625-7.156-12-16-12H256c-8.844,0-16,5.375-16,12v24C240,50.625,247.156,56,256,56z M256,120h192c8.844,0,16-5.375,16-12V84
	c0-6.625-7.156-12-16-12H256c-8.844,0-16,5.375-16,12v24C240,114.625,247.156,120,256,120z M16,440h188.688
	c-9.563-14.625-16.969-30.781-21.875-48H16c-8.844,0-16,5.375-16,12v24C0,434.625,7.156,440,16,440z M208,456H16
	c-8.844,0-16,5.375-16,12v24c0,6.625,7.156,12,16,12h192c8.844,0,16-5.375,16-12v-24C224,461.375,216.844,456,208,456z M16,376
	h163.063c-1.938-10.406-3.063-21.063-3.063-32c0-5.406,0.313-10.719,0.813-16H16c-8.844,0-16,5.375-16,12v24
	C0,370.625,7.156,376,16,376z M256,184h23.125c22.219-10.188,46.844-16,72.875-16c26,0,50.656,5.813,72.875,16H448
	c8.844,0,16-5.375,16-12v-24c0-6.625-7.156-12-16-12H256c-8.844,0-16,5.375-16,12v24C240,178.625,247.156,184,256,184z M16,184h192
	c8.844,0,16-5.375,16-12v-24c0-6.625-7.156-12-16-12H16c-8.844,0-16,5.375-16,12v24C0,178.625,7.156,184,16,184z M16,312h163.063
	c3.125-17,8.719-33.094,16.375-48H16c-8.844,0-16,5.375-16,12v24C0,306.625,7.156,312,16,312z M16,248h188.688
	c5.688-8.75,12.188-16.875,19.313-24.438V212c0-6.625-7.156-12-16-12H16c-8.844,0-16,5.375-16,12v24C0,242.625,7.156,248,16,248z"/>
</svg>
