<svg id="Layer_1" data-name="Layer 1" xmlns="http://www.w3.org/2000/svg" viewBox="0 0 672 106"><defs><style>.cls-1{fill:none;}.cls-2{fill:#ff5455;}.cls-3{fill:#4d4d4d;}.cls-4{fill:#ff9301;}.cls-5{fill:#f6c429;}.cls-6{fill:#86c44a;}.cls-7{fill:#2babe2;}.cls-8{fill:#80529b;}</style></defs><title>Logo</title><path class="cls-1" d="M122.92,21.61C112.5,21.61,105,29.93,105,40.13v0.15c0,10.2,7.65,18.6,18.08,18.6S141,50.63,141,40.43V40.28C141,30.08,133.35,21.61,122.92,21.61Z"/><path class="cls-2" d="M76.27,74.73a4.84,4.84,0,0,0-3.18,1.2c-7.24,6.1-13.64,8.58-22.34,8.58C33.75,84.51,21,70.8,21,52.63V52.38c0-17.81,13-31.76,29.75-31.76,7.84,0,14.6,2.55,21.35,8a5.21,5.21,0,0,0,3.23,1,5.3,5.3,0,0,0,5.42-5.31A5.5,5.5,0,0,0,78.6,20c-8.2-6.32-16.85-9.14-27.87-9.14C27,10.85,9,28.81,9,52.63v0.24C9,76.54,26.72,94.4,50.12,94.4c11.93,0,20.76-3.25,29.43-10.87a5.26,5.26,0,0,0,1.77-3.86A5.12,5.12,0,0,0,76.27,74.73Z"/><path class="cls-3" d="M122.62,14.1C107.48,14.1,96,25.36,96,40.28v0.15c0,14.84,11.41,26,26.47,26S149,55.2,149,40.28,137.67,14.1,122.62,14.1ZM141,40.43c0,10.2-7.5,18.45-17.92,18.45S105,50.48,105,40.28V40.13c0-10.2,7.5-18.52,17.92-18.52S141,30.08,141,40.28v0.15Z"/><path class="cls-4" d="M223.33,52.77l-4.38-1.46,4-2.09c7.42-3.86,11-9.46,11-17.12V31.86a17.4,17.4,0,0,0-5.16-12.79C224.32,14.54,217.1,12,208.07,12H177.64A5.76,5.76,0,0,0,172,17.85V87.4a5.54,5.54,0,0,0,5.64,5.6h31.63C227.92,93,239,85.21,239,71.7V71.46C239,62.19,234,56.42,223.33,52.77ZM183,22h23.13C216.65,22,223,26.33,223,34.27v0.24c0,8.4-6.76,13.49-18,13.49H183V22Zm45,48.13c0,8.6-7,13.87-18.61,13.87H183V57h25.31C225.12,57,228,64.93,228,69.89v0.24Z"/><path class="cls-5" d="M316.56,11.7A5.44,5.44,0,0,0,311,17.13V59c0,16.12-8.7,25.36-23.44,25.36S264,74.92,264,58.42V17.13a5.38,5.38,0,0,0-5.44-5.43A5.44,5.44,0,0,0,253,17.13V59c0,22.4,12.68,35.25,34.32,35.25,22.19,0,34.68-12.78,34.68-36V17.13A5.38,5.38,0,0,0,316.56,11.7Z"/><path class="cls-6" d="M372.4,12h-24c-3.16,0-5.37,2.69-5.37,5.85V87.4a5.32,5.32,0,0,0,5.37,5.6h24C397.3,93,416,76,416,52.63V52.38C416,29.16,397.3,12,372.4,12ZM404,52.87C404,70.79,390.81,83,372.4,83H354V22h18.4C390.81,22,404,34.56,404,52.63v0.24Z"/><path class="cls-7" d="M500.21,50H476.66a4.63,4.63,0,0,0-4.7,4.56,4.52,4.52,0,0,0,4.7,4.44H496V77.38l-1.15.58a35.65,35.65,0,0,1-21.37,6.78C455.42,84.75,443,71.54,443,52.63V52.38c0-17.51,12.79-31.76,29-31.76a33.56,33.56,0,0,1,21.48,7A5.62,5.62,0,0,0,496.8,29a5.39,5.39,0,0,0,5.38-5.43A5.59,5.59,0,0,0,499.92,19c-8-5.73-16.05-8.19-27.48-8.19C449.08,10.85,431,29.2,431,52.63v0.24c0,24.45,17,41.53,41.67,41.53a52.27,52.27,0,0,0,29-8.85A8.37,8.37,0,0,0,506,77.74V55.16C506,52,503.37,50,500.21,50Z"/><path class="cls-8" d="M579.21,84H535V57h38.17a4.48,4.48,0,0,0,4.7-4.38,4.6,4.6,0,0,0-4.7-4.62H535V22h43.61a5,5,0,0,0,4.7-5,5,5,0,0,0-4.7-5H529.46A5.62,5.62,0,0,0,524,17.85V87.4a5.4,5.4,0,0,0,5.46,5.6h49.75a4.54,4.54,0,0,0,4.71-4.5A4.59,4.59,0,0,0,579.21,84Z"/><path class="cls-2" d="M658.39,12H602.24a5,5,0,0,0,0,10H625V88.12a5.5,5.5,0,0,0,11,0V22h22.39A5,5,0,0,0,658.39,12Z"/><path class="cls-3" d="M143,82H102.18a5,5,0,0,0,0,10H143A5,5,0,0,0,143,82Z"/></svg>