<svg id="Layer_1" data-name="Layer 1" xmlns="http://www.w3.org/2000/svg" viewBox="0 0 672 586"><defs><style>.cls-1{fill:#80529b;}.cls-2{fill:#ff5455;}.cls-3{fill:#86c44a;}.cls-4{fill:#ff9301;}.cls-5{fill:#f6c429;}.cls-6{fill:#2babe2;}.cls-7{fill:#fff;}.cls-8{fill:#4d4d4d;}.cls-9{fill:none;}</style></defs><title>Logo</title><path class="cls-1" d="M265.77,292.21c-0.35-.44-0.69-0.89-1-1.33L207.57,335.1A175.6,175.6,0,0,0,317.8,400.19l11.8-70A104.75,104.75,0,0,1,265.77,292.21Z"/><path class="cls-2" d="M246,201l-70.6-18.35a175.92,175.92,0,0,0,30.83,150.7c0.44,0.58.9,1.15,1.35,1.72l57.16-44.23A105,105,0,0,1,246,201Z"/><path class="cls-3" d="M430.2,161.08a106.32,106.32,0,0,1,6.52,9.13h0a34.68,34.68,0,0,0,30.1,15.22c18.95-.63,33.79-16.72,33.15-35.94A35.05,35.05,0,0,0,495.25,133l0.32-.2q-4.38-7-9.48-13.67a175.76,175.76,0,0,0-49.28-44.05L401,135.78A104.9,104.9,0,0,1,430.2,161.08Z"/><path class="cls-4" d="M282.42,144.43a104.67,104.67,0,0,1,49-21.65l-10.52-71A176.31,176.31,0,0,0,175.39,182.68L246,201A104.69,104.69,0,0,1,282.42,144.43Z"/><path class="cls-5" d="M401,135.78l35.85-60.7A176.87,176.87,0,0,0,320.93,51.82l10.52,71A105.52,105.52,0,0,1,401,135.78Z"/><path class="cls-6" d="M498.71,303.18c-0.64-19.23-16.53-34.31-35.49-33.68A34.43,34.43,0,0,0,435,285.7h0A105.3,105.3,0,0,1,329.6,330.17l-11.8,70a176.44,176.44,0,0,0,175-76.14l-0.08-.05A35,35,0,0,0,498.71,303.18Z"/><path class="cls-7" d="M364.37,237.64a14.89,14.89,0,0,0-1-5.41,12.54,12.54,0,0,0-2.81-4.35,15.59,15.59,0,0,0-4.7-3.09,28.71,28.71,0,0,0-5.83-1.61c-3.41-.68-6.93-1.4-9.08-4a7.1,7.1,0,0,1-1.55-4.68,7,7,0,0,1,1.83-4.89,8.85,8.85,0,0,1,6.55-2.71,8.05,8.05,0,0,1,6,2.46,7.92,7.92,0,0,1,1.48,2.69,2.91,2.91,0,0,0,3.2,2l1.54-.23a2.91,2.91,0,0,0,2.32-3.86,13.91,13.91,0,0,0-4.35-5.85,14.37,14.37,0,0,0-7-3v-2.41c0-1.61-.76-2.68-2.36-2.68H347a2.85,2.85,0,0,0-3,2.68v2.39a14.16,14.16,0,0,0-7.13,3.25,14.53,14.53,0,0,0-3,17.32,11.57,11.57,0,0,0,4.6,4.61,34.2,34.2,0,0,0,9.56,3.27c2.74,0.63,5.8,1.55,7.58,3.74a7.54,7.54,0,0,1,1.47,4.8A8.69,8.69,0,0,1,355,244a8.77,8.77,0,0,1-5.33,2.83,10.75,10.75,0,0,1-1.5.1,9.38,9.38,0,0,1-7.41-3.44,11.19,11.19,0,0,1-1.8-4.07,2.93,2.93,0,0,0-3.34-2.17l-1.57.28a2.92,2.92,0,0,0-2.36,3.48,15.42,15.42,0,0,0,2,5.1,13.13,13.13,0,0,0,5,4.84,18.39,18.39,0,0,0,5.33,1.83v1.82c0,1.61,1.44,3.4,3,3.4h1.59c1.61,0,2.36-1.79,2.36-3.4v-1.76a14.91,14.91,0,0,0,9-4.51A15.21,15.21,0,0,0,364.37,237.64Z"/><path class="cls-8" d="M439.08,220.15l-41.9-38.28a66.08,66.08,0,0,0-61.11-21.34c-36.06,6.49-60,41.39-53.37,78s41.14,61,77.2,54.48a65.29,65.29,0,0,0,25.62-10.57l3-1.9,3.42-3.17,0.27-.25,46.87-43.4A9.06,9.06,0,0,0,439.08,220.15Zm-78.57,28.18a16.8,16.8,0,0,1-8.51,4.51v1.76a3.78,3.78,0,0,1-3.36,3.4H347c-1.61,0-3-1.79-3-3.4v-1.82a18.39,18.39,0,0,1-5.33-1.83,13.21,13.21,0,0,1-5-4.84,15.4,15.4,0,0,1-2-5.1,2.92,2.92,0,0,1,2.37-3.48l1.58-.28a2.93,2.93,0,0,1,3.34,2.17,11.19,11.19,0,0,0,1.8,4.07,9.38,9.38,0,0,0,7.41,3.44,10.76,10.76,0,0,0,1.5-.1A8.78,8.78,0,0,0,355,244a8.69,8.69,0,0,0,2.1-5.94,7.54,7.54,0,0,0-1.47-4.8c-1.78-2.18-4.84-3.11-7.58-3.74a34.18,34.18,0,0,1-9.55-3.27,11.55,11.55,0,0,1-4.59-4.61,14.62,14.62,0,0,1,3-17.32,14.16,14.16,0,0,1,7.13-3.25v-2.39a2.85,2.85,0,0,1,3-2.68h1.59c1.61,0,3.36,1.07,3.36,2.68v2.41a17.87,17.87,0,0,1,6.52,3,13.1,13.1,0,0,1,4,5.85,2.94,2.94,0,0,1-2.38,3.86l-1.56.23a2.93,2.93,0,0,1-3.21-2,7.93,7.93,0,0,0-1.49-2.69,8.06,8.06,0,0,0-6-2.46,8.85,8.85,0,0,0-6.55,2.71,7,7,0,0,0-1.83,4.89A7.1,7.1,0,0,0,341,219.2c2.15,2.58,5.68,3.3,9.08,4a28.71,28.71,0,0,1,5.83,1.61,15.59,15.59,0,0,1,4.7,3.09,12.54,12.54,0,0,1,2.81,4.35A15.53,15.53,0,0,1,360.51,248.33Z"/><path class="cls-9" d="M121.92,499.61c-10.42,0-17.92,8.32-17.92,18.52v0.15c0,10.2,7.65,18.6,18.08,18.6S140,528.63,140,518.43v-0.15C140,508.08,132.35,499.61,121.92,499.61Z"/><path class="cls-2" d="M75.27,552.73a4.84,4.84,0,0,0-3.18,1.2c-7.24,6.1-13.64,8.58-22.34,8.58-17,0-29.75-13.71-29.75-31.88v-0.24c0-17.81,13-31.76,29.75-31.76,7.84,0,14.6,2.55,21.35,8a5.21,5.21,0,0,0,3.23,1,5.3,5.3,0,0,0,5.42-5.31A5.5,5.5,0,0,0,77.6,498c-8.2-6.32-16.85-9.14-27.87-9.14C26,488.85,8,506.81,8,530.63v0.24c0,23.68,17.72,41.53,41.12,41.53,11.93,0,20.76-3.25,29.43-10.87a5.26,5.26,0,0,0,1.77-3.86A5.12,5.12,0,0,0,75.27,552.73Z"/><path class="cls-8" d="M121.62,492.1C106.48,492.1,95,503.36,95,518.28v0.15c0,14.84,11.41,26,26.47,26S148,533.2,148,518.28,136.67,492.1,121.62,492.1ZM140,518.43c0,10.2-7.5,18.45-17.92,18.45S104,528.48,104,518.28v-0.15c0-10.2,7.5-18.52,17.92-18.52S140,508.08,140,518.28v0.15Z"/><path class="cls-4" d="M222.33,530.77l-4.38-1.46,4-2.09c7.42-3.86,11-9.46,11-17.12v-0.24a17.4,17.4,0,0,0-5.16-12.79c-4.53-4.53-11.74-7.07-20.78-7.07H176.64a5.76,5.76,0,0,0-5.64,5.85V565.4a5.54,5.54,0,0,0,5.64,5.6h31.63c18.64,0,29.73-7.79,29.73-21.3v-0.24C238,540.19,233,534.42,222.33,530.77ZM182,500h23.13c10.51,0,16.87,4.33,16.87,12.27v0.24c0,8.4-6.76,13.49-18,13.49H182V500Zm45,48.13c0,8.6-7,13.87-18.61,13.87H182V535h25.31c16.81,0,19.69,7.93,19.69,12.89v0.24Z"/><path class="cls-5" d="M315.56,489.7a5.44,5.44,0,0,0-5.56,5.43V537c0,16.12-8.7,25.36-23.44,25.36s-23.56-9.46-23.56-26v-41.3a5.38,5.38,0,0,0-5.44-5.43,5.44,5.44,0,0,0-5.56,5.43V537c0,22.4,12.68,35.25,34.32,35.25,22.19,0,34.68-12.78,34.68-36V495.13A5.38,5.38,0,0,0,315.56,489.7Z"/><path class="cls-3" d="M371.4,490h-24c-3.16,0-5.37,2.69-5.37,5.85V565.4a5.32,5.32,0,0,0,5.37,5.6h24c24.9,0,43.6-17,43.6-40.37v-0.24C415,507.16,396.3,490,371.4,490ZM403,530.87c0,17.92-13.19,30.13-31.6,30.13H353V500h18.4c18.42,0,31.6,12.56,31.6,30.63v0.24Z"/><path class="cls-6" d="M499.21,528H475.66a4.63,4.63,0,0,0-4.7,4.56,4.52,4.52,0,0,0,4.7,4.44H495v18.38l-1.15.58a35.65,35.65,0,0,1-21.37,6.78c-18.06,0-30.48-13.21-30.48-32.12v-0.24c0-17.51,12.79-31.76,29-31.76a33.56,33.56,0,0,1,21.48,7A5.62,5.62,0,0,0,495.8,507a5.39,5.39,0,0,0,5.38-5.43,5.59,5.59,0,0,0-2.27-4.49c-8-5.73-16.05-8.19-27.48-8.19-23.36,0-41.44,18.35-41.44,41.77v0.24c0,24.45,17,41.53,41.67,41.53a52.27,52.27,0,0,0,29-8.85,8.37,8.37,0,0,0,4.34-7.81V533.16C505,530,502.37,528,499.21,528Z"/><path class="cls-1" d="M578.21,562H534V535h38.17a4.48,4.48,0,0,0,4.7-4.38,4.6,4.6,0,0,0-4.7-4.62H534V500h43.61a5,5,0,0,0,4.7-5,5,5,0,0,0-4.7-5H528.46a5.62,5.62,0,0,0-5.46,5.85V565.4a5.4,5.4,0,0,0,5.46,5.6h49.75a4.54,4.54,0,0,0,4.71-4.5A4.59,4.59,0,0,0,578.21,562Z"/><path class="cls-2" d="M657.39,490H601.24a5,5,0,0,0,0,10H624v66.12a5.5,5.5,0,0,0,11,0V500h22.39A5,5,0,0,0,657.39,490Z"/><path class="cls-8" d="M142,560H101.18a5,5,0,0,0,0,10H142A5,5,0,0,0,142,560Z"/></svg>